<?xml version="1.0" encoding="UTF-8"?>
<svg width="284px" height="256px" viewBox="0 0 284 256" version="1.1" xmlns="http://www.w3.org/2000/svg" xmlns:xlink="http://www.w3.org/1999/xlink">
    <title>Logotype Dark Background</title>
    <g id="页面-1" stroke="none" stroke-width="1" fill="none" fill-rule="evenodd">
        <g id="madiakit" transform="translate(-274.000000, -2822.000000)">
            <g id="Logotype-Dark-Background" transform="translate(274.000000, 2822.000000)">
                <path d="M48.4663718,87 L72.4187596,130.598729 C74.0312198,134.078782 74.9327436,137.96702 74.9327436,142.069512 C74.9327436,156.94281 63.0833453,169 48.4663718,169 C33.8493983,169 22,156.94281 22,142.069512 C22,137.842848 22.9569232,133.843605 24.6623473,130.283861 L48.4663718,87 Z M48.4647838,94.227023 L27.7416147,131.908846 L27.6833765,132.032364 C26.2642798,135.069894 25.5028065,138.394151 25.469664,141.834747 L25.4685338,142.069512 C25.4685338,154.998198 35.7663233,165.476571 48.4663718,165.476571 C61.1664203,165.476571 71.4642098,154.998198 71.4642098,142.069512 C71.4642098,138.649095 70.7450605,135.33918 69.3749004,132.305629 L69.327166,132.201626 L48.4647838,94.227023 Z M48.700718,114.751755 L48.7143337,114.905134 C49.0029378,118.756236 46.6420069,123.048824 43.3581879,124.80884 C43.0591056,125.37779 42.7694993,125.953002 42.4859245,126.535263 L42.0646555,127.414041 L41.8863374,127.796389 C43.7391468,125.784315 46.6489312,124.551988 49.1969569,124.856266 L49.4685108,124.894782 L49.4802989,124.892234 L49.4179189,125.005728 C47.8932765,127.917213 44.2408005,129.91323 41.0858668,129.613569 C40.4159493,131.202508 39.7925765,132.837627 39.2228698,134.523689 C41.2304213,132.401867 44.5120015,131.251688 47.2146131,131.830765 L47.4828758,131.894464 L47.4945966,131.891931 L47.4251096,132.000728 C45.6601347,134.732828 41.8901502,136.372825 38.794856,135.829015 C38.2355372,137.594073 37.7286378,139.404111 37.2813179,141.263744 C39.1805561,138.981878 42.4621753,137.627439 45.2377435,138.085941 L45.5047038,138.136001 L45.5164919,138.133454 L45.4482658,138.248283 C43.8116101,141.065125 40.115695,142.882974 36.9949655,142.482213 C36.8494214,143.123838 36.7104094,143.771539 36.5782511,144.424804 C36.7816693,144.43586 36.986154,144.440535 37.1917119,144.440535 C40.1549011,144.440535 42.8950755,143.468951 45.1213379,141.821782 C45.3529985,141.65037 45.578784,141.471904 45.7986938,141.286475 C48.4565865,139.435839 51.6721143,138.354253 55.1359065,138.354253 C59.3180122,138.354253 63.1382078,139.930947 66.0536953,142.532019 L66.2294805,142.717375 C66.2153686,143.005277 66.194645,143.291408 66.1674611,143.575613 L66.1218588,144.000457 L66.1171853,144.039355 C66.1009111,144.173601 66.083192,144.307391 66.0640446,144.44071 C65.9706448,145.091047 65.843236,145.730227 65.6837235,146.356248 C65.6345863,146.54912 65.5822225,146.741361 65.5268476,146.932287 C65.4539503,147.183639 65.3757744,147.432891 65.2925002,147.679733 C65.2537207,147.794674 65.2139717,147.908716 65.1731373,148.022225 C64.9950276,148.517354 64.7961137,149.002687 64.5775833,149.476796 L64.5176597,149.605477 C64.3942815,149.867725 64.2650326,150.126189 64.1299547,150.380981 C64.1135956,150.41184 64.0970495,150.442833 64.0804171,150.473772 C64.0528424,150.525064 64.0251087,150.576063 63.9971408,150.626911 C63.9792078,150.659515 63.9611454,150.692116 63.9429867,150.724655 C63.9092513,150.785102 63.8753445,150.845052 63.8411112,150.904784 C63.705125,151.142059 63.5640212,151.375845 63.4179229,151.60604 C63.3907875,151.648794 63.3636459,151.691167 63.3363351,151.733416 C63.2511949,151.86513 63.1643102,151.995791 63.0758069,152.12522 L62.987701,152.252894 L62.9455332,152.313183 C62.898791,152.379726 62.8515118,152.446079 62.8038028,152.51209 C62.6689417,152.698681 62.5308117,152.882334 62.3893507,153.063168 C62.3365607,153.130649 62.2835323,153.197457 62.2300488,153.263871 C62.2058528,153.293915 62.1817435,153.323659 62.1575429,153.353323 C61.9249336,153.638457 61.6835634,153.916557 61.4341239,154.186856 L61.3936205,154.230601 C61.2837672,154.348857 61.1723638,154.465605 61.0594434,154.580813 L60.9631293,154.678336 C60.8901278,154.751694 60.8165057,154.824414 60.7422716,154.896487 L60.5502322,155.080206 C60.0768341,155.526455 59.5795305,155.946818 59.0604943,156.339083 C58.9825047,156.398025 58.9038799,156.456439 58.82477,156.514208 C58.5338767,156.726629 58.2364714,156.930309 57.932878,157.124906 C57.8006661,157.209654 57.6669915,157.292855 57.5321689,157.374294 L57.4158388,157.443957 C57.2810003,157.524007 57.1446615,157.602512 57.0072184,157.679222 C56.9518817,157.710106 56.8966067,157.740568 56.8411563,157.770739 L56.7349075,157.828081 C56.6748819,157.860213 56.6142341,157.892225 56.5533834,157.923891 L56.4279028,157.988551 L56.3426609,158.031753 L56.1609543,158.121917 C56.0033942,158.198968 55.8446603,158.273674 55.6846822,158.346049 C55.651119,158.361234 55.6170765,158.376505 55.5829781,158.391671 C55.5565866,158.403408 55.5305006,158.414934 55.5043823,158.426397 L55.3368601,158.498885 C55.3225642,158.504982 55.3082587,158.511061 55.2939439,158.517122 C55.2549128,158.533647 55.2158784,158.550007 55.1767746,158.566229 C55.0041757,158.637833 54.8301109,158.7068 54.6547407,158.773033 C54.6155871,158.78782 54.5766418,158.802369 54.5376329,158.816783 L54.4099741,158.863391 L54.1899837,158.941081 L54.131952,158.961025 C54.060849,158.985322 53.989519,159.009183 53.9179913,159.032595 L53.7370419,159.090733 L53.7370419,159.090733 L53.6691676,159.11198 C53.5881028,159.137175 53.5068449,159.161781 53.4253459,159.18581 C53.3936352,159.195159 53.3619584,159.2044 53.3302456,159.213554 C53.2867178,159.226119 53.2430506,159.23854 53.1993159,159.250795 C53.1249956,159.271619 53.0505474,159.291948 52.9759081,159.311795 C52.9402534,159.321277 52.9042793,159.33072 52.8682613,159.340052 C52.8187,159.35289 52.7695795,159.365386 52.7203786,159.377674 C52.6413112,159.397425 52.5612608,159.416819 52.4810026,159.435661 C52.4572339,159.441241 52.4338881,159.44667 52.4105248,159.452052 C52.3373153,159.46892 52.2635894,159.485404 52.1896937,159.50142 C52.1503435,159.509949 52.1109818,159.518337 52.0715725,159.526593 L51.8977544,159.562084 L51.7554475,159.589772 C51.6930868,159.601638 51.6301144,159.613262 51.5670275,159.624548 C51.5205072,159.632869 51.4744865,159.640909 51.4284058,159.64877 C51.3851572,159.656148 51.3414943,159.663426 51.2977783,159.670542 L51.0971324,159.702007 L51.0971324,159.702007 C51.0390097,159.710774 50.9813916,159.719171 50.923685,159.727286 C50.8811559,159.733268 50.8380874,159.739162 50.7949703,159.744899 C50.7098204,159.756228 50.6248963,159.766894 50.5397888,159.776949 L50.4719529,159.784829 L50.2571315,159.808021 L50.2571315,159.808021 C50.2148914,159.812318 50.1725143,159.816474 50.130094,159.820478 C49.9674674,159.83583 49.8041393,159.848959 49.6402055,159.859827 C49.5191204,159.867854 49.3978821,159.874639 49.2763263,159.880183 C49.155329,159.8857 49.0342724,159.88998 48.9129141,159.893023 L48.6899629,159.897215 L48.4663718,159.898615 L48.06,159.893 L47.9830274,159.892062 L47.9830274,159.892062 C47.8658966,159.888878 47.7496443,159.88457 47.6336818,159.879132 L47.5096009,159.872876 C47.4144718,159.867746 47.3193358,159.861841 47.2244047,159.855178 C47.1509806,159.850026 47.0773,159.844389 47.003746,159.838297 L46.7194126,159.812421 L46.7194126,159.812421 C46.6891989,159.809424 46.6588352,159.806332 46.6284941,159.803163 L46.3126569,159.767274 L46.3126569,159.767274 L46.2062642,159.753876 L46.2062642,159.753876 C46.0746751,159.7369 45.9428014,159.71835 45.8113977,159.698337 C45.7983007,159.696342 45.7852952,159.694346 45.7722943,159.692336 C45.5030991,159.650715 45.2358217,159.60294 44.9706699,159.549166 C44.9543702,159.545861 44.9380658,159.54253 44.9217696,159.539176 C44.7905565,159.512175 44.6598398,159.483697 44.5296644,159.453767 L44.4614363,159.437935 C44.3586265,159.413862 44.2559881,159.388839 44.1536999,159.362915 L44.0499496,159.336281 L44.0499496,159.336281 C43.7965193,159.270387 43.5453786,159.19899 43.2965456,159.122193 C43.257093,159.110015 43.2180378,159.09781 43.1790401,159.085472 C42.8081195,158.968126 42.442047,158.838619 42.0816305,158.697515 C42.0521566,158.685975 42.0231702,158.674536 41.9942208,158.663023 C41.7641547,158.57153 41.5359409,158.475088 41.3101844,158.37401 C41.2527584,158.348301 41.1949667,158.322051 41.1373388,158.295496 L40.9156574,158.191467 L40.9156574,158.191467 C40.8843267,158.176495 40.8536534,158.161728 40.8230283,158.146874 C40.6018883,158.039627 40.3827061,157.927567 40.1661717,157.811093 L40.0303319,157.737255 L40.0303319,157.737255 C39.8096518,157.616047 39.5916723,157.490169 39.3766242,157.359806 C39.3466745,157.34165 39.3168607,157.323455 39.2871037,157.305175 C39.2061674,157.255454 39.1255251,157.205015 39.0453118,157.153943 C39.0167151,157.135735 38.98838,157.11758 38.960099,157.099346 C38.878108,157.046487 38.7961632,156.992691 38.7146846,156.938232 C38.6927521,156.923572 38.6712565,156.909136 38.6497935,156.894653 C34.0907651,153.818419 31.006145,148.660669 30.7051931,142.753624 C32.2909715,143.639391 34.0701476,144.210424 35.9618554,144.384288 C36.098527,143.696573 36.2439117,143.017473 36.3942359,142.343254 C33.717526,140.640759 31.9590609,136.81639 32.3541141,133.528348 L32.3920467,133.255643 L32.4153757,133.131819 C34.8708788,134.5266 36.6150812,137.694284 36.7701954,140.730303 C37.1976067,138.981218 37.6774374,137.277113 38.2038802,135.619172 C35.6759369,133.839567 34.1519787,130.090819 34.6827499,126.919649 L34.7349417,126.641403 L34.7653776,126.522276 C37.1103757,127.947174 38.6837732,131.032994 38.7504117,133.969426 C39.2918562,132.383251 39.8856386,130.842003 40.518873,129.342304 C38.4637388,126.98927 37.8826884,122.933566 39.1799136,119.9689 L39.3030288,119.702468 L39.3607276,119.596218 C41.1146727,121.398964 41.9048601,124.385266 41.5263107,127.074042 C41.9266553,126.224747 42.336696,125.392198 42.7680719,124.573809 C42.6426622,120.698953 45.112179,116.472111 48.4491795,114.864578 L48.6889887,114.754248 L48.700718,114.751755 Z" id="蒙版" fill="#DBA45C"></path>
                <text id="ENKI" font-family="Nunito-Medium, Nunito" font-size="58.8343445" font-weight="400" letter-spacing="6.68572095" fill="#FFFFFF">
                    <tspan x="104.339823" y="147.657801">ENKI</tspan>
                </text>
            </g>
        </g>
    </g>
</svg>