<svg width="214" height="50" viewBox="0 0 214 50" fill="none" xmlns="http://www.w3.org/2000/svg">
<path d="M89.3539 40.6016H85.757C85.4422 40.6016 85.1403 40.4767 84.9175 40.2543C84.6947 40.0319 84.5693 39.7301 84.5688 39.4153V26.2407C84.5688 24.296 83.5425 23.3236 81.4899 23.3236C81.0478 23.3197 80.6067 23.3638 80.1741 23.455C80.0396 23.4854 79.9025 23.5235 79.7628 23.5692C79.5265 23.6475 79.321 23.7985 79.1757 24.0006C79.0303 24.2027 78.9526 24.4456 78.9536 24.6946V39.4229C78.9536 39.7376 78.8286 40.0393 78.6061 40.2618C78.3837 40.4842 78.0819 40.6092 77.7673 40.6092H74.1685C73.8539 40.6092 73.5522 40.4842 73.3297 40.2618C73.1072 40.0393 72.9822 39.7376 72.9822 39.4229V11.6894C72.982 11.5335 73.0125 11.379 73.072 11.2348C73.1315 11.0907 73.2188 10.9597 73.329 10.8493C73.4392 10.739 73.5701 10.6514 73.7141 10.5917C73.8582 10.532 74.0126 10.5012 74.1685 10.5012H77.7673C77.9232 10.5012 78.0777 10.532 78.2217 10.5917C78.3658 10.6514 78.4966 10.739 78.6068 10.8493C78.717 10.9597 78.8043 11.0907 78.8638 11.2348C78.9233 11.379 78.9538 11.5335 78.9536 11.6894V18.946C78.9524 19.1312 78.9946 19.314 79.0769 19.4799C79.1591 19.6458 79.2792 19.7901 79.4273 19.9011C79.5754 20.0122 79.7475 20.0871 79.9298 20.1196C80.1121 20.1521 80.2995 20.1415 80.4769 20.0885C81.4327 19.8177 82.4215 19.6812 83.4149 19.6829C85.8344 19.6829 87.6281 20.2852 88.796 21.4899C89.9638 22.6946 90.5478 24.2388 90.5478 26.1226V39.4229C90.5453 39.7374 90.4182 40.038 90.1944 40.259C89.9706 40.4799 89.6684 40.6031 89.3539 40.6016Z" fill="#FFDA82"/>
<path d="M111.391 38.6081C111.391 38.8418 111.323 39.0703 111.194 39.2651C111.064 39.4599 110.881 39.6122 110.665 39.703C108.634 40.5522 106.006 40.9768 102.78 40.9768C100.834 40.9768 99.2185 40.723 97.9326 40.2152C96.7351 39.7822 95.7214 38.9532 95.0592 37.8655C94.4245 36.8055 94.1072 35.4581 94.1072 33.823V21.1245C94.1072 20.8093 94.2324 20.5071 94.4552 20.2843C94.678 20.0615 94.9802 19.9363 95.2953 19.9363H98.8922C99.0482 19.9363 99.2026 19.967 99.3466 20.0268C99.4907 20.0865 99.6215 20.174 99.7317 20.2844C99.8419 20.3948 99.9293 20.5258 99.9888 20.6699C100.048 20.814 100.079 20.9685 100.079 21.1245V34.2381C100.053 34.9548 100.307 35.6533 100.787 36.1861C101.255 36.6938 101.97 36.9477 102.931 36.9477C103.461 36.9539 103.99 36.9002 104.507 36.7878C104.767 36.726 104.999 36.5783 105.165 36.3685C105.33 36.1587 105.42 35.8992 105.42 35.632V21.1245C105.42 20.8093 105.545 20.5071 105.768 20.2843C105.99 20.0615 106.293 19.9363 106.608 19.9363H110.205C110.361 19.9363 110.515 19.967 110.659 20.0268C110.803 20.0865 110.934 20.174 111.044 20.2844C111.154 20.3948 111.242 20.5258 111.301 20.6699C111.361 20.814 111.391 20.9685 111.391 21.1245V38.6081Z" fill="#FFDA82"/>
<path d="M142.94 40.6016H139.343C139.028 40.6016 138.727 40.4766 138.504 40.2541C138.282 40.0317 138.157 39.7299 138.157 39.4153V26.1303C138.157 25.281 137.909 24.607 137.416 24.0909C136.923 23.5749 136.173 23.3293 135.162 23.3293C134.424 23.3101 133.698 23.5138 133.079 23.9139C132.918 24.0218 132.786 24.1678 132.696 24.3389C132.605 24.51 132.558 24.7009 132.559 24.8945V39.4229C132.559 39.7376 132.434 40.0393 132.211 40.2618C131.989 40.4842 131.687 40.6092 131.372 40.6092H127.776C127.62 40.6095 127.465 40.579 127.321 40.5195C127.177 40.46 127.046 40.3726 126.935 40.2624C126.825 40.1523 126.738 40.0214 126.678 39.8773C126.618 39.7333 126.587 39.5789 126.587 39.4229V26.0541C126.587 25.2074 126.309 24.541 125.751 24.0548C125.194 23.5686 124.396 23.3249 123.356 23.3236C122.862 23.3208 122.37 23.3641 121.884 23.4531C121.615 23.5058 121.372 23.6509 121.199 23.8633C121.025 24.0757 120.931 24.3421 120.932 24.6165V39.4229C120.932 39.7376 120.807 40.0393 120.585 40.2618C120.362 40.4842 120.06 40.6092 119.746 40.6092H116.151C115.836 40.6092 115.535 40.4842 115.312 40.2618C115.09 40.0393 114.965 39.7376 114.965 39.4229V21.8841C114.964 21.6471 115.035 21.4154 115.167 21.2191C115.3 21.0228 115.489 20.871 115.709 20.7835C116.673 20.401 117.672 20.1109 118.691 19.9171C120.219 19.6588 121.768 19.5396 123.318 19.561C124.929 19.561 126.262 19.7514 127.317 20.1323C127.992 20.3609 128.633 20.6812 129.221 21.0843C129.417 21.2257 129.651 21.3042 129.892 21.3093C130.134 21.3144 130.371 21.2459 130.573 21.1129C132.119 20.0809 134.16 19.5642 136.696 19.5629C138.281 19.5629 139.631 19.8473 140.746 20.416C141.806 20.9305 142.686 21.7519 143.273 22.7733C143.845 23.7935 144.138 24.9458 144.124 26.115V39.4229C144.122 39.7359 143.997 40.0354 143.775 40.2562C143.553 40.4769 143.253 40.6011 142.94 40.6016Z" fill="#FFDA82"/>
<path d="M175.678 40.6016H172.082C171.926 40.6019 171.771 40.5714 171.627 40.5119C171.483 40.4524 171.352 40.365 171.241 40.2549C171.131 40.1447 171.044 40.0138 170.984 39.8698C170.924 39.7257 170.893 39.5713 170.893 39.4154V26.1303C170.893 25.2811 170.648 24.607 170.155 24.091C169.661 23.575 168.909 23.3293 167.898 23.3293C167.161 23.3105 166.435 23.5142 165.815 23.9139C165.655 24.0223 165.524 24.1685 165.434 24.3395C165.343 24.5105 165.296 24.7011 165.297 24.8945V39.423C165.297 39.7378 165.171 40.0395 164.948 40.2619C164.726 40.4843 164.424 40.6092 164.109 40.6092H160.518C160.203 40.6092 159.901 40.4843 159.679 40.2618C159.456 40.0393 159.332 39.7376 159.332 39.423V26.0541C159.332 25.2074 159.052 24.541 158.494 24.0548C157.935 23.5686 157.137 23.3249 156.1 23.3236C155.607 23.3207 155.114 23.364 154.628 23.4531C154.359 23.5059 154.117 23.6509 153.943 23.8633C153.769 24.0757 153.675 24.3421 153.676 24.6165V39.423C153.676 39.7378 153.55 40.0395 153.328 40.2619C153.105 40.4843 152.803 40.6092 152.488 40.6092H148.887C148.573 40.6092 148.271 40.4843 148.048 40.2619C147.825 40.0395 147.7 39.7378 147.699 39.423V21.8841C147.699 21.647 147.77 21.4152 147.903 21.2189C148.036 21.0227 148.225 20.871 148.446 20.7835C149.41 20.401 150.408 20.1109 151.427 19.9171C152.956 19.6587 154.505 19.5395 156.055 19.5611C157.664 19.5611 159 19.7515 160.063 20.1323C160.738 20.3607 161.379 20.6811 161.967 21.0844C162.163 21.2258 162.397 21.3042 162.638 21.3093C162.88 21.3144 163.117 21.2459 163.319 21.1129C164.865 20.0809 166.907 19.5642 169.444 19.563C171.026 19.563 172.376 19.8473 173.494 20.416C174.554 20.9306 175.433 21.752 176.019 22.7733C176.591 23.7935 176.884 24.9459 176.87 26.1151V39.423C176.868 39.7373 176.742 40.0379 176.518 40.2589C176.295 40.4799 175.993 40.6032 175.678 40.6016Z" fill="#FFDA82"/>
<path d="M197.713 38.6082C197.714 38.8421 197.645 39.0708 197.515 39.2656C197.386 39.4604 197.202 39.6126 196.986 39.7031C194.955 40.5523 192.327 40.9769 189.103 40.9769C187.154 40.9769 185.538 40.723 184.253 40.2153C183.056 39.7823 182.042 38.9533 181.38 37.8656C180.745 36.8056 180.428 35.4581 180.428 33.8231V21.1245C180.427 20.9686 180.458 20.8141 180.517 20.67C180.577 20.5258 180.664 20.3948 180.775 20.2845C180.885 20.1741 181.016 20.0866 181.16 20.0268C181.304 19.9671 181.458 19.9364 181.614 19.9364H185.211C185.368 19.9346 185.524 19.964 185.67 20.0229C185.815 20.0819 185.948 20.1691 186.06 20.2796C186.171 20.3901 186.26 20.5217 186.321 20.6667C186.381 20.8118 186.412 20.9674 186.412 21.1245V34.2382C186.384 34.9533 186.633 35.6516 187.109 36.1861C187.576 36.6939 188.29 36.9478 189.251 36.9478C189.781 36.9541 190.31 36.9004 190.828 36.7878C191.088 36.7264 191.32 36.5789 191.486 36.3691C191.652 36.1592 191.742 35.8995 191.742 35.632V21.1245C191.742 20.9686 191.772 20.8141 191.832 20.67C191.891 20.5258 191.979 20.3948 192.089 20.2845C192.199 20.1741 192.33 20.0866 192.474 20.0268C192.618 19.9671 192.772 19.9364 192.928 19.9364H196.525C196.84 19.9364 197.143 20.0615 197.365 20.2844C197.588 20.5072 197.713 20.8094 197.713 21.1245V38.6082Z" fill="#FFDA82"/>
<path d="M213.976 34.4304C213.982 35.2973 213.803 36.1555 213.451 36.9477C213.084 37.7535 212.545 38.4686 211.87 39.0422C211.131 39.6719 210.276 40.1512 209.353 40.4532C208.309 40.7949 207.215 40.9622 206.116 40.9482C205.332 40.9459 204.55 40.8822 203.776 40.7578C203.06 40.6534 202.355 40.4845 201.67 40.2532C201.462 40.179 201.261 40.1009 201.068 40.0152C200.788 39.8908 200.567 39.6626 200.451 39.3786C200.335 39.0946 200.334 38.7768 200.448 38.4919L201.078 36.9324C201.136 36.7857 201.223 36.6521 201.334 36.5397C201.445 36.4273 201.578 36.3382 201.724 36.2778C201.869 36.2175 202.026 36.187 202.184 36.1882C202.342 36.1895 202.498 36.2224 202.643 36.285C202.833 36.3669 203.037 36.445 203.252 36.5154C203.904 36.7364 204.587 36.8502 205.274 36.8525C205.948 36.8787 206.607 36.6488 207.118 36.2089C207.349 36.0089 207.534 35.7603 207.658 35.4809C207.782 35.2015 207.844 34.8981 207.837 34.5923C207.857 33.9725 207.636 33.3692 207.22 32.909C206.809 32.4596 206.135 32.0547 205.198 31.6942C203.452 30.9947 202.241 30.1696 201.567 29.2188C200.891 28.2615 200.537 27.1138 200.556 25.9418C200.55 25.0762 200.722 24.2185 201.063 23.4227C201.386 22.6613 201.864 21.9753 202.466 21.4081C203.095 20.8306 203.829 20.3782 204.627 20.0752C205.533 19.7326 206.496 19.564 207.464 19.5783C208.583 19.5583 209.7 19.6818 210.787 19.9458C211.339 20.0923 211.876 20.2892 212.392 20.5341C212.67 20.6651 212.885 20.8987 212.994 21.1857C213.103 21.4727 213.096 21.7907 212.975 22.0727L212.47 23.2532C212.409 23.3978 212.319 23.5288 212.206 23.6384C212.094 23.7481 211.961 23.8343 211.815 23.8921C211.668 23.9498 211.512 23.978 211.355 23.9749C211.198 23.9718 211.043 23.9375 210.899 23.874C210.798 23.8283 210.692 23.7864 210.581 23.7445C210.01 23.5276 209.404 23.4166 208.793 23.417C208.032 23.417 207.445 23.6226 207.034 24.0339C206.832 24.2322 206.673 24.4696 206.567 24.7316C206.461 24.9936 206.409 25.2745 206.415 25.5572C206.406 25.8597 206.46 26.1608 206.574 26.441C206.689 26.7211 206.861 26.9741 207.08 27.1833C207.671 27.6982 208.345 28.1089 209.073 28.3982C210.958 29.1839 212.247 30.0535 212.939 31.0068C213.644 32.0064 214.008 33.2072 213.976 34.4304Z" fill="#FFDA82"/>
<path d="M55.1428 11.1927C59.3319 22.705 57.2793 36.3918 36.4329 43.9779C15.5866 51.5639 5.21862 42.4012 1.02764 30.8889C-1.14306 24.9328 9.21727 15.6959 24.1589 10.2577C39.1006 4.81956 52.974 5.23847 55.1428 11.1927Z" fill="#C7676A"/>
<path d="M22.4889 47.4985C18.6806 47.4985 15.2246 46.754 12.159 45.2631C6.84079 42.6792 2.75073 37.7951 0.330593 31.144C-2.01338 24.7043 8.34314 15.2236 23.9055 9.55887C31.2269 6.8969 38.5197 5.52974 44.4644 5.72016C50.6394 5.91057 54.68 7.76328 55.8396 10.9489C58.2616 17.6019 58.2654 23.9712 55.8548 29.3694C52.9015 35.9786 46.4523 41.1311 36.6879 44.6861C31.5201 46.5579 26.7751 47.4985 22.4889 47.4985ZM43.4133 7.18062C37.8437 7.18062 31.1488 8.5135 24.4216 10.9546C10.1254 16.1567 -0.263494 25.1689 1.72632 30.6356C4.01126 36.9192 7.84426 41.5139 12.8102 43.9283C18.9434 46.9101 26.8055 46.6912 36.1795 43.2809C59.1128 34.9332 57.4676 19.7535 54.4439 11.4478C53.5204 8.90956 49.874 7.35961 44.4187 7.19395C44.0854 7.18443 43.7465 7.18062 43.4133 7.18062Z" fill="#3E064F"/>
<path d="M46.9711 31.9969C48.8867 37.2637 49.9206 42.8066 37.6409 47.2794C25.3612 51.7522 22.5831 46.8414 20.6656 41.567C19.6736 38.8422 23.2191 35.0492 32.0256 31.8445C40.8322 28.6399 45.9791 29.2721 46.9711 31.9969Z" fill="#AAAAAA"/>
<path d="M29.4859 49.7663C27.7074 49.7663 26.1879 49.4217 24.916 48.7324C22.1264 47.2338 20.9002 44.3814 19.9652 41.828C19.5311 40.6322 19.5597 38.711 22.1702 36.3422C24.2133 34.4914 27.5341 32.6958 31.7708 31.1535C36.0075 29.6112 39.7015 28.8533 42.4625 28.9504C45.9832 29.0856 47.2418 30.5404 47.6759 31.7362C48.6071 34.2896 49.5001 37.2581 48.3272 40.2038C47.08 43.3285 43.6678 45.8686 37.8964 47.9688C34.6118 49.1703 31.8241 49.7663 29.4859 49.7663ZM41.9274 30.4318C39.6177 30.4318 36.4054 31.0469 32.2754 32.5492C23.6688 35.6815 20.5898 39.2137 21.3572 41.3196C23.3089 46.6797 25.8604 50.7755 37.3823 46.5807C42.7347 44.6328 45.8613 42.3688 46.941 39.6611C47.9216 37.2029 47.1104 34.5485 46.2745 32.2503C45.8766 31.1535 44.4313 30.4318 41.9274 30.4318Z" fill="#3E064F"/>
<path d="M45.4459 32.2007C47.1596 36.902 48.0793 41.8508 37.1116 45.8438C26.1438 49.8367 23.6685 45.4515 21.9567 40.7502C21.0712 38.3187 24.2416 34.9331 32.098 32.0712C39.9544 29.2094 44.5548 29.7692 45.4459 32.2007Z" fill="#8C8C8C"/>
<path d="M4.51435 34.2361C4.62098 31.8083 6.20331 28.9274 9.08425 26.0369C13.1381 21.9659 19.2066 18.3271 26.1738 15.7908C32.0327 13.6582 37.907 12.531 43.029 12.531C44.0002 12.531 44.9414 12.5716 45.8529 12.6528C49.9163 13.0184 52.98 14.2066 54.6233 15.9984C55.1697 14.8559 55.4477 13.7706 55.4249 12.7462C49.6973 8.50948 37.8137 8.38571 25.1589 12.9994C12.5041 17.6131 3.46709 25.3324 1.80859 32.2596C2.45028 33.0612 3.36807 33.7201 4.51435 34.2361Z" fill="#3E064F"/>
<path d="M32.011 31.8257C44.443 27.3015 53.697 20.1477 55.2203 14.441C50.3515 9.97967 38.2736 9.74737 25.6569 14.342C13.0402 18.9367 3.92707 26.8731 3.06641 33.4213C7.89145 36.8202 19.5809 36.3499 32.011 31.8257Z" fill="#FFEBB1"/>
<path d="M32.0089 31.8257C43.8335 27.5205 52.7847 20.8389 54.9326 15.2865C50.5703 10.7166 38.5419 10.4557 25.9042 15.0542C13.2666 19.6527 4.22198 27.5852 3.81641 33.8898C9.0318 36.7574 20.1823 36.129 32.0089 31.8257Z" fill="#FFDA82"/>
<path d="M12.9996 32.5986C7.48718 32.5986 4.03691 31.1229 3.0182 28.322C0.761814 22.1202 12.1523 14.1838 24.0188 9.86528C30.3443 7.5632 36.6317 6.2703 41.7271 6.22841C47.4014 6.18081 50.9374 7.66031 51.9713 10.5051C54.2296 16.7068 42.8315 24.6432 30.9726 28.9617C24.6452 31.2638 18.3578 32.5548 13.2643 32.5986H12.9996ZM41.9689 9.09983H41.7481C36.9744 9.14743 31.0374 10.3718 25.0013 12.5749C11.5087 17.4761 4.67669 24.4794 5.71253 27.3394C6.26092 28.8456 9.13996 29.7615 13.2338 29.7253C18.0056 29.6853 23.9521 28.4552 29.9806 26.2617C43.4713 21.351 50.3033 14.3476 49.2636 11.4876C48.7305 10.0081 45.9429 9.09983 41.9689 9.09983Z" fill="#3E064F"/>
<path d="M28.6723 22.6531C37.7528 19.348 44.1697 14.074 43.0047 10.8733C41.8397 7.67248 33.5341 7.75701 24.4535 11.0621C15.373 14.3671 8.95613 19.6411 10.1211 22.8419C11.2861 26.0427 19.5917 25.9581 28.6723 22.6531Z" fill="#FFDA82"/>
<path d="M32.3145 21.1608C32.6115 21.0237 32.9041 20.8859 33.1923 20.7476L32.3145 21.1608Z" fill="#FFDA82"/>
<path d="M32.3139 21.9052C32.1442 21.9055 31.9795 21.8476 31.8473 21.7411C31.7151 21.6347 31.6233 21.4863 31.5873 21.3204C31.5512 21.1546 31.573 20.9814 31.6491 20.8297C31.7252 20.678 31.851 20.5569 32.0054 20.4867C32.2961 20.3597 32.5837 20.2245 32.868 20.0811C32.9563 20.0305 33.0541 19.9986 33.1552 19.9874C33.2564 19.9762 33.3588 19.9859 33.456 20.0159C33.5532 20.0459 33.6433 20.0956 33.7205 20.1619C33.7978 20.2281 33.8606 20.3095 33.905 20.4011C33.9495 20.4926 33.9747 20.5923 33.979 20.694C33.9833 20.7957 33.9667 20.8971 33.9301 20.9921C33.8936 21.0871 33.8379 21.1735 33.7666 21.2461C33.6953 21.3187 33.6098 21.3758 33.5154 21.414C33.2241 21.5549 32.9251 21.6958 32.6243 21.8348C32.5271 21.8803 32.4212 21.9043 32.3139 21.9052Z" fill="#3E064F"/>
<path d="M13.0342 31.8752C7.89302 31.8752 4.57794 30.5157 3.6811 28.0498C2.76902 25.544 4.49987 22.3184 8.55375 18.9672C12.4172 15.7739 17.9887 12.7654 24.2418 10.4805C30.5959 8.16888 36.8776 6.89502 41.9292 6.89502C47.0704 6.89502 50.3854 8.25266 51.2823 10.7204C52.1943 13.2243 50.4635 16.4499 46.4096 19.8012C42.5443 22.9963 36.9728 26.0086 30.7215 28.284C24.3713 30.6014 18.0877 31.8752 13.0342 31.8752Z" fill="#FFEBB1"/>
<path d="M41.9304 7.62418C46.5441 7.62418 49.7944 8.7381 50.6075 10.9754C52.2622 15.5168 43.2481 22.9714 30.4771 27.6175C24.0031 29.9767 17.7899 31.1611 13.0353 31.1611C8.42166 31.1611 5.17132 30.0452 4.35826 27.8079C2.70358 23.2666 11.7177 15.8119 24.4887 11.1659C30.9627 8.80664 37.1758 7.62418 41.9304 7.62418ZM41.9304 6.18467C36.7893 6.18467 30.4276 7.47376 23.9974 9.81393C17.67 12.1122 12.0224 15.1683 8.09605 18.4129C6.11577 20.0505 4.65721 21.669 3.76227 23.2228C2.44462 25.5077 2.6198 27.2443 3.00062 28.2953C3.38145 29.3464 4.33351 30.7574 6.76317 31.6656C8.40833 32.2807 10.5162 32.593 13.0315 32.593C18.1727 32.593 24.5324 31.3039 30.9646 28.9637C37.292 26.6597 42.9396 23.6055 46.864 20.359C48.8462 18.7214 50.3048 17.1029 51.1997 15.551C52.5173 13.2661 52.3422 11.5276 51.9613 10.4766C51.5805 9.42549 50.6285 8.01453 48.2007 7.10626C46.5555 6.49123 44.4477 6.17896 41.9323 6.17896L41.9304 6.18467Z" fill="#3E064F"/>
<path d="M30.2071 26.8655C42.5003 22.3911 51.248 15.4178 49.7456 11.2901C48.2433 7.16239 37.0598 7.4434 24.7666 11.9178C12.4734 16.3921 3.72572 23.3655 5.22808 27.4932C6.73044 31.6209 17.9139 31.3398 30.2071 26.8655Z" fill="#FFDA82"/>
<path d="M6.14676 20.4066C5.74887 20.4084 5.35742 20.3063 5.01114 20.1103C4.66486 19.9143 4.37575 19.6313 4.17242 19.2893C3.9691 18.9473 3.85861 18.5581 3.85189 18.1603C3.84517 17.7625 3.94245 17.3698 4.1341 17.0211L10.5167 5.28026C10.7072 4.9246 10.9884 4.62571 11.3318 4.41397C11.6752 4.20223 12.0686 4.08519 12.4719 4.07474C12.8752 4.0643 13.2741 4.16082 13.628 4.3545C13.9819 4.54818 14.2782 4.83211 14.4868 5.17744L21.4635 16.5736C21.6763 16.9169 21.7943 17.3105 21.8054 17.7143C21.8166 18.1181 21.7205 18.5176 21.527 18.8721C21.3334 19.2266 21.0494 19.5235 20.7038 19.7326C20.3581 19.9416 19.9633 20.0552 19.5594 20.062L6.20007 20.4066H6.14676Z" fill="#C38D44"/>
<path d="M12.5309 4.82503C12.7967 4.8225 13.0585 4.88953 13.2903 5.01947C13.5221 5.1494 13.7159 5.33773 13.8524 5.56573L20.8291 16.9543C20.9708 17.1863 21.049 17.4514 21.0558 17.7232C21.0627 17.9949 20.9979 18.2637 20.8681 18.5025C20.7383 18.7413 20.5479 18.9418 20.3162 19.0838C20.0844 19.2258 19.8194 19.3044 19.5476 19.3116L6.18831 19.6562H6.14642C5.87866 19.6554 5.61568 19.5851 5.38313 19.4524C5.15059 19.3197 4.95639 19.129 4.81947 18.8988C4.68255 18.6687 4.60759 18.4071 4.60187 18.1394C4.59616 17.8717 4.6599 17.607 4.78688 17.3713L11.1695 5.63428C11.3004 5.38753 11.4967 5.18153 11.7368 5.03881C11.9769 4.89608 12.2516 4.82213 12.5309 4.82503ZM12.5309 3.33791C11.9853 3.33933 11.45 3.48729 10.9811 3.7663C10.5121 4.04532 10.1267 4.44516 9.86517 4.92404L3.48255 16.6649C3.23096 17.1271 3.10389 17.6469 3.11382 18.1731C3.12375 18.6993 3.27034 19.2139 3.53919 19.6663C3.80805 20.1187 4.18993 20.4935 4.64736 20.7538C5.10478 21.0141 5.62203 21.151 6.14832 21.151H6.2283L19.5876 20.8063C20.1194 20.7922 20.6382 20.6384 21.0918 20.3605C21.5454 20.0825 21.918 19.6901 22.172 19.2227C22.4261 18.7553 22.5528 18.2292 22.5393 17.6974C22.5258 17.1656 22.3727 16.6466 22.0954 16.1926L15.1186 4.78885C14.849 4.34439 14.4691 3.97721 14.0157 3.72298C13.5622 3.46874 13.0508 3.33609 12.5309 3.33791Z" fill="#3E064F"/>
<path d="M12.9217 14.6027C10.4711 16.3069 8.75736 18.0663 8.13281 19.62L19.5576 19.3249C19.8305 19.3174 20.0966 19.2379 20.329 19.0945C20.5613 18.9512 20.7517 18.7489 20.8808 18.5083C21.0099 18.2677 21.0731 17.9973 21.0641 17.7244C21.0551 17.4515 20.9742 17.1858 20.8295 16.9543L16.3224 9.59863C14.624 11.1581 13.4206 12.8433 12.9217 14.6027Z" fill="#B27E38"/>
<path d="M35.6568 19.4508C36.677 18.8713 37.6642 18.2356 38.6139 17.5467C41.9042 15.1456 43.6617 12.6778 43.0048 10.8708C42.624 9.80259 41.4301 9.10187 39.6897 8.76294C38.8502 7.52971 37.6651 6.57187 36.2833 6.00957C33.2005 4.74333 35.6073 1.53107 33.6613 0.803699C32.2484 0.270545 29.6969 4.10355 25.226 6.32566C20.0697 8.87147 16.0691 12.1713 15.0428 15.7872C11.4135 18.3064 9.42942 20.9398 10.1206 22.842C11.2859 26.0429 19.5917 25.9591 28.6725 22.6516" fill="#FFDA82"/>
<path d="M16.2237 25.9304C12.5012 25.9304 10.0906 24.9269 9.42412 23.0951C8.6301 20.913 10.3971 18.1597 14.4053 15.3263C15.8048 10.9373 20.8622 7.6508 24.897 5.65147C27.0011 4.60991 28.6748 3.18563 30.0191 2.03364C31.63 0.662667 32.7915 -0.327477 33.9245 0.10095C35.2574 0.603639 35.2707 1.89083 35.2802 2.82956C35.2935 4.0501 35.364 4.82127 36.5674 5.31634C37.9848 5.89771 39.2157 6.85661 40.1262 8.08875C42.5102 8.62571 43.388 9.74724 43.7021 10.6117C44.4638 12.7177 42.8186 15.393 39.0523 18.1406C38.08 18.8456 37.0693 19.4959 36.0247 20.0885C35.8535 20.1862 35.6505 20.212 35.4604 20.16C35.2702 20.108 35.1085 19.9827 35.0108 19.8115C34.9131 19.6403 34.8874 19.4373 34.9393 19.2471C34.9913 19.057 35.1166 18.8953 35.2878 18.7975C36.2845 18.2379 37.2489 17.6225 38.1764 16.9543C41.223 14.7322 42.8053 12.5006 42.3064 11.1334C41.9523 10.1566 40.6099 9.70535 39.5474 9.4997C39.3558 9.46225 39.1868 9.35071 39.077 9.18933C38.3212 8.07387 37.2508 7.20828 36.0019 6.70254C33.8274 5.80951 33.8083 4.03677 33.795 2.86002C33.7836 1.84132 33.7207 1.62615 33.3989 1.50429C33.0771 1.38243 31.8204 2.45635 30.9826 3.17801C29.5755 4.37571 27.8237 5.86663 25.5559 6.98626C20.1215 9.67679 16.6407 12.8757 15.7572 15.9928C15.7097 16.158 15.6068 16.3018 15.4659 16.4002C12.0689 18.7556 10.2829 21.1263 10.8198 22.5867C11.6976 24.9993 19.1409 25.3325 28.4197 21.9546C28.6034 21.8929 28.804 21.9055 28.9786 21.9897C29.1532 22.0739 29.288 22.223 29.3541 22.4052C29.4202 22.5874 29.4125 22.7883 29.3325 22.9649C29.2526 23.1415 29.1067 23.2798 28.9262 23.3503C24.4591 24.9783 20.0225 25.8942 16.437 25.9304H16.2237Z" fill="#3E064F"/>
<path d="M13.4072 22.2916C13.8068 22.2916 14.1307 21.9677 14.1307 21.568C14.1307 21.1684 13.8068 20.8445 13.4072 20.8445C13.0075 20.8445 12.6836 21.1684 12.6836 21.568C12.6836 21.9677 13.0075 22.2916 13.4072 22.2916Z" fill="#FFC466"/>
<path d="M22.8935 28.3697C23.2931 28.3697 23.6171 28.0458 23.6171 27.6462C23.6171 27.2466 23.2931 26.9226 22.8935 26.9226C22.4939 26.9226 22.1699 27.2466 22.1699 27.6462C22.1699 28.0458 22.4939 28.3697 22.8935 28.3697Z" fill="#FFC466"/>
<path d="M12.6533 8.16881C13.0529 8.16881 13.3768 7.84486 13.3768 7.44525C13.3768 7.04563 13.0529 6.72168 12.6533 6.72168C12.2536 6.72168 11.9297 7.04563 11.9297 7.44525C11.9297 7.84486 12.2536 8.16881 12.6533 8.16881Z" fill="#E2A749"/>
<path d="M14.9638 11.5028C15.3634 11.5028 15.6874 11.1788 15.6874 10.7792C15.6874 10.3796 15.3634 10.0557 14.9638 10.0557C14.5642 10.0557 14.2402 10.3796 14.2402 10.7792C14.2402 11.1788 14.5642 11.5028 14.9638 11.5028Z" fill="#E2A749"/>
<path d="M11.5126 10.368C11.9122 10.368 12.2362 10.0441 12.2362 9.64447C12.2362 9.24485 11.9122 8.9209 11.5126 8.9209C11.113 8.9209 10.7891 9.24485 10.7891 9.64447C10.7891 10.0441 11.113 10.368 11.5126 10.368Z" fill="#E2A749"/>
<path d="M7.19622 18.0511C7.59584 18.0511 7.91979 17.7272 7.91979 17.3276C7.91979 16.928 7.59584 16.604 7.19622 16.604C6.79661 16.604 6.47266 16.928 6.47266 17.3276C6.47266 17.7272 6.79661 18.0511 7.19622 18.0511Z" fill="#E2A749"/>
<path d="M15.7646 22.8439C16.1642 22.8439 16.4881 22.5199 16.4881 22.1203C16.4881 21.7207 16.1642 21.3967 15.7646 21.3967C15.365 21.3967 15.041 21.7207 15.041 22.1203C15.041 22.5199 15.365 22.8439 15.7646 22.8439Z" fill="#FFC466"/>
<path d="M14.8583 20.3534C15.2579 20.3534 15.5819 20.0294 15.5819 19.6298C15.5819 19.2302 15.2579 18.9062 14.8583 18.9062C14.4587 18.9062 14.1348 19.2302 14.1348 19.6298C14.1348 20.0294 14.4587 20.3534 14.8583 20.3534Z" fill="#FFC466"/>
<path d="M6.90911 27.3473C7.30873 27.3473 7.63268 27.0233 7.63268 26.6237C7.63268 26.2241 7.30873 25.9001 6.90911 25.9001C6.5095 25.9001 6.18555 26.2241 6.18555 26.6237C6.18555 27.0233 6.5095 27.3473 6.90911 27.3473Z" fill="#FFC466"/>
<path d="M18.8066 15.3435C18.6846 15.3436 18.5646 15.3127 18.4579 15.2536C18.3512 15.1946 18.2613 15.1092 18.1967 15.0058C18.1321 14.9023 18.0949 14.7841 18.0887 14.6623C18.0825 14.5404 18.1074 14.419 18.1611 14.3095C19.3322 12.1869 21.1461 10.4903 23.3422 9.46354C23.4282 9.41962 23.5221 9.39345 23.6184 9.38659C23.7147 9.37972 23.8114 9.3923 23.9028 9.42358C23.9941 9.45485 24.0782 9.50418 24.1501 9.56864C24.222 9.63309 24.2802 9.71134 24.3212 9.79874C24.3622 9.88614 24.3852 9.9809 24.3889 10.0774C24.3925 10.1739 24.3767 10.2701 24.3424 10.3603C24.3081 10.4506 24.256 10.533 24.1891 10.6027C24.1223 10.6724 24.0422 10.7279 23.9534 10.766C22.0598 11.6619 20.4886 13.1201 19.454 14.9417C19.3945 15.0625 19.3023 15.1643 19.1878 15.2353C19.0734 15.3063 18.9413 15.3438 18.8066 15.3435Z" fill="#FFEBB1"/>
<path d="M33.8558 8.34215C33.7308 8.34212 33.6081 8.30929 33.4998 8.24694C32.8435 7.87787 32.331 7.29824 32.045 6.60178C31.9786 6.42301 31.9859 6.22518 32.0654 6.05181C32.1448 5.87844 32.2899 5.74374 32.4687 5.67733C32.6474 5.61092 32.8453 5.61825 33.0186 5.6977C33.192 5.77716 33.3267 5.92222 33.3931 6.101C33.5676 6.47696 33.8543 6.78962 34.2138 6.99593C34.3515 7.0748 34.4592 7.19696 34.5203 7.3434C34.5814 7.48984 34.5924 7.65237 34.5516 7.8057C34.5107 7.95903 34.4204 8.09457 34.2946 8.19124C34.1687 8.28791 34.0145 8.34029 33.8558 8.34024V8.34215Z" fill="#FFEBB1"/>
<path d="M17.8148 29.2606C17.6312 29.2579 17.4555 29.1852 17.3238 29.0573C17.192 28.9293 17.1142 28.7558 17.1062 28.5724C17.0981 28.3889 17.1605 28.2093 17.2806 28.0703C17.4007 27.9314 17.5693 27.8436 17.752 27.8249C18.4832 27.7582 19.8827 27.5145 20.6825 27.3374C20.8669 27.3013 21.0581 27.3387 21.2153 27.4416C21.3725 27.5446 21.4832 27.705 21.5238 27.8885C21.5643 28.072 21.5314 28.2641 21.4322 28.4237C21.333 28.5833 21.1753 28.6978 20.9928 28.7427C19.9653 28.9676 18.9268 29.1392 17.8815 29.2568L17.8148 29.2606Z" fill="#FFC466"/>
<path d="M46.4774 16.1242C46.3378 16.1242 46.2012 16.0836 46.0843 16.0073C45.9674 15.9311 45.8751 15.8225 45.8188 15.6947C45.7625 15.567 45.7446 15.4256 45.7672 15.2879C45.7898 15.1501 45.852 15.0219 45.9461 14.9189C47.2581 13.487 47.6598 12.6339 47.3419 11.9484C47.2671 11.8369 47.1712 11.7411 47.0594 11.6666C46.9477 11.5921 46.8224 11.5404 46.6907 11.5143C46.5959 11.4948 46.5061 11.4564 46.4266 11.4014C46.3471 11.3464 46.2794 11.2759 46.2277 11.1942C46.176 11.1125 46.1413 11.0212 46.1256 10.9258C46.11 10.8304 46.1137 10.7328 46.1367 10.6388C46.1596 10.5449 46.2012 10.4565 46.259 10.379C46.3168 10.3015 46.3897 10.2364 46.4732 10.1877C46.5567 10.139 46.6492 10.1076 46.7451 10.0954C46.841 10.0832 46.9384 10.0904 47.0315 10.1167C47.3057 10.1833 48.2368 10.4689 48.6443 11.3353C49.4059 12.9462 48.2425 14.5419 47.0086 15.89C46.9413 15.9639 46.8592 16.0229 46.7677 16.0632C46.6763 16.1035 46.5774 16.1243 46.4774 16.1242Z" fill="#FFEBB1"/>
<path d="M28.6528 26.5853C28.4821 26.5842 28.3173 26.5225 28.1878 26.4112C28.0584 26.2998 27.9727 26.1461 27.9462 25.9774C27.9196 25.8088 27.9539 25.6362 28.0429 25.4904C28.1319 25.3447 28.2698 25.2354 28.4319 25.1819C29.0931 24.9805 29.7422 24.7415 30.376 24.466C30.4618 24.4211 30.5557 24.394 30.6522 24.3863C30.7486 24.3786 30.8456 24.3904 30.9374 24.4211C31.0292 24.4517 31.1139 24.5005 31.1864 24.5646C31.2589 24.6287 31.3177 24.7068 31.3593 24.7942C31.4009 24.8815 31.4245 24.9764 31.4287 25.073C31.4328 25.1697 31.4174 25.2663 31.3834 25.3568C31.3493 25.4474 31.2974 25.5302 31.2307 25.6003C31.1639 25.6704 31.0837 25.7262 30.9949 25.7646C30.3051 26.0695 29.5973 26.3321 28.8756 26.551C28.8034 26.5734 28.7283 26.585 28.6528 26.5853Z" fill="#FFEBB1"/>
<path d="M25.6774 27.6041C25.5051 27.6029 25.3389 27.5398 25.2092 27.4265C25.0794 27.3131 24.9946 27.157 24.9702 26.9864C24.9457 26.8159 24.9833 26.6422 25.076 26.497C25.1688 26.3518 25.3105 26.2447 25.4755 26.1951L25.9211 26.0599C26.1015 26.0101 26.2941 26.0325 26.4583 26.1224C26.6224 26.2122 26.7451 26.3625 26.8003 26.5413C26.8555 26.7201 26.8389 26.9133 26.7541 27.0801C26.6692 27.2469 26.5227 27.3741 26.3457 27.4347L25.8811 27.5756C25.8148 27.5945 25.7463 27.6041 25.6774 27.6041Z" fill="#FFEBB1"/>
<path d="M33.1649 18.2148C33.0039 18.2147 32.8475 18.1607 32.7208 18.0613C32.5941 17.962 32.5044 17.823 32.4661 17.6666C32.4277 17.5102 32.4428 17.3455 32.5091 17.1988C32.5754 17.052 32.689 16.9317 32.8317 16.8571C33.6657 16.4192 34.4406 15.9736 35.1338 15.5243C37.9499 13.7172 38.7268 12.3863 38.5612 11.9312C38.5012 11.7532 38.5132 11.5589 38.5946 11.3896C38.6759 11.2204 38.8202 11.0896 38.9966 11.0253C39.173 10.9609 39.3676 10.9681 39.5388 11.0452C39.7101 11.1223 39.8444 11.2633 39.9131 11.438C40.5776 13.266 38.1042 15.3281 35.9144 16.7353C35.1871 17.2037 34.374 17.6721 33.5019 18.1291C33.3982 18.1846 33.2825 18.214 33.1649 18.2148Z" fill="#FFEBB1"/>
<path d="M31.8086 21.3453C32.1056 21.2082 32.3982 21.0705 32.6864 20.9321L31.8086 21.3453Z" fill="#FFDA82"/>
<path d="M31.8081 22.0954C31.6383 22.0961 31.4733 22.0385 31.3407 21.9322C31.2082 21.826 31.1161 21.6775 31.0798 21.5115C31.0435 21.3456 31.0652 21.1722 31.1412 21.0203C31.2173 20.8684 31.3431 20.7472 31.4978 20.6768C31.791 20.5499 32.0792 20.4147 32.3622 20.2713C32.4506 20.2207 32.5483 20.1888 32.6495 20.1776C32.7506 20.1664 32.853 20.1761 32.9502 20.2061C33.0475 20.2361 33.1375 20.2858 33.2147 20.352C33.292 20.4183 33.3548 20.4997 33.3992 20.5913C33.4437 20.6828 33.4689 20.7825 33.4732 20.8842C33.4775 20.9858 33.4609 21.0873 33.4244 21.1823C33.3878 21.2773 33.3322 21.3637 33.2608 21.4363C33.1895 21.5089 33.104 21.566 33.0096 21.6042C32.7164 21.7451 32.4194 21.886 32.1185 22.0231C32.0218 22.0701 31.9157 22.0948 31.8081 22.0954Z" fill="#3E064F"/>
<path d="M38.9863 26.212C38.67 25.7331 38.2365 25.3431 37.7269 25.0791C37.2173 24.815 36.6487 24.6857 36.075 24.7034C35.5014 24.7211 34.9418 24.8853 34.4495 25.1802C33.9572 25.4752 33.5485 25.8912 33.2624 26.3887C32.9762 26.8862 32.822 27.4486 32.8146 28.0225C32.8071 28.5964 32.9465 29.1626 33.2196 29.6674C33.4927 30.1722 33.8903 30.5987 34.3748 30.9064C34.8592 31.2142 35.4143 31.3928 35.9873 31.4255C35.6919 31.945 35.5401 32.5337 35.5475 33.1313C35.5549 33.7288 35.7212 34.3136 36.0294 34.8256C36.3375 35.3376 36.7764 35.7583 37.3009 36.0446C37.8255 36.3309 38.4168 36.4724 39.0141 36.4546C39.6114 36.4368 40.1932 36.2603 40.6997 35.9433C41.2063 35.6263 41.6193 35.1801 41.8964 34.6507C42.1735 34.1212 42.3047 33.5276 42.2765 32.9307C42.2483 32.3337 42.0617 31.7551 41.7359 31.2542C42.3328 31.2832 42.9268 31.1528 43.4567 30.8763C43.9866 30.5998 44.4333 30.1873 44.751 29.681C45.0687 29.1748 45.2459 28.593 45.2644 27.9956C45.2828 27.3982 45.1419 26.8067 44.8561 26.2818C44.5703 25.7569 44.1499 25.3175 43.6381 25.0088C43.1262 24.7002 42.5415 24.5333 41.9438 24.5254C41.3462 24.5176 40.7572 24.6689 40.2375 24.964C39.7177 25.2591 39.2859 25.6872 38.9863 26.2044V26.212Z" fill="#00B76A"/>
<path d="M38.9061 37.2045C38.1909 37.205 37.4882 37.0172 36.8686 36.6599C36.0798 36.2026 35.465 35.4965 35.1204 34.6523C34.7759 33.8081 34.721 32.8735 34.9645 31.9948C34.6784 31.9059 34.4031 31.7852 34.1438 31.6349C33.6442 31.3468 33.2109 30.9566 32.872 30.4899C32.5331 30.0233 32.2963 29.4905 32.1769 28.9262C32.0575 28.3619 32.0582 27.7789 32.179 27.2149C32.2998 26.6509 32.538 26.1187 32.878 25.6529C33.2181 25.187 33.6524 24.798 34.1527 24.5111C34.653 24.2241 35.2081 24.0457 35.7819 23.9875C36.3557 23.9292 36.9354 23.9924 37.4831 24.1729C38.0309 24.3534 38.5345 24.6473 38.9613 25.0352C39.5987 24.3825 40.4347 23.9597 41.3382 23.8332C42.2418 23.7068 43.1618 23.8838 43.9539 24.3364C44.668 24.7477 45.2419 25.3641 45.6012 26.1057C45.9605 26.8474 46.0885 27.6799 45.9686 28.4951C45.8487 29.3104 45.4864 30.0708 44.9288 30.6776C44.3713 31.2844 43.6441 31.7095 42.8419 31.8977C43.0288 32.5126 43.069 33.1628 42.9592 33.796C42.8493 34.4293 42.5926 35.0279 42.2095 35.544C41.8264 36.06 41.3276 36.479 40.7533 36.7674C40.1789 37.0558 39.5449 37.2055 38.9022 37.2045H38.9061ZM36.1774 25.4484C35.9447 25.4487 35.7129 25.4794 35.4882 25.5398C34.8866 25.7024 34.3626 26.0736 34.0098 26.5872C33.657 27.1008 33.4985 27.7232 33.5626 28.3429C33.6268 28.9627 33.9094 29.5394 34.3598 29.9699C34.8103 30.4004 35.3993 30.6565 36.0213 30.6924C36.1477 30.699 36.2702 30.738 36.3773 30.8054C36.4843 30.8729 36.5723 30.9667 36.6329 31.0778C36.6934 31.1889 36.7244 31.3137 36.7231 31.4402C36.7217 31.5668 36.6879 31.6908 36.6249 31.8006C36.3948 32.2056 36.2767 32.6645 36.2826 33.1302C36.2885 33.5959 36.4183 34.0517 36.6586 34.4506C36.8989 34.8496 37.2411 35.1774 37.65 35.4004C38.059 35.6234 38.5199 35.7336 38.9854 35.7195C39.451 35.7055 39.9044 35.5677 40.2991 35.3205C40.6938 35.0733 41.0156 34.7254 41.2314 34.3127C41.4473 33.8999 41.5493 33.4372 41.5272 32.9719C41.505 32.5067 41.3594 32.0558 41.1053 31.6654C41.032 31.5509 40.9915 31.4185 40.9883 31.2826C40.985 31.1467 41.0191 31.0125 41.0869 30.8947C41.1546 30.7769 41.2534 30.6799 41.3725 30.6143C41.4916 30.5488 41.6264 30.5171 41.7622 30.5229C42.2276 30.5457 42.6906 30.4442 43.1037 30.2288C43.5168 30.0135 43.8651 29.692 44.1128 29.2974C44.3605 28.9029 44.4988 28.4495 44.5132 27.9838C44.5277 27.5182 44.418 27.057 44.1953 26.6479C43.9726 26.2387 43.6449 25.8961 43.246 25.6555C42.8471 25.4148 42.3913 25.2847 41.9255 25.2785C41.4596 25.2724 41.0005 25.3903 40.5954 25.6203C40.1902 25.8503 39.8536 26.184 39.6201 26.5871C39.5567 26.6962 39.4665 26.7874 39.3581 26.852C39.2497 26.9166 39.1266 26.9525 39.0004 26.9563C38.8743 26.9601 38.7492 26.9317 38.6371 26.8738C38.525 26.8159 38.4294 26.7303 38.3596 26.6252C38.121 26.2644 37.797 25.9681 37.4163 25.7628C37.0355 25.5575 36.61 25.4495 36.1774 25.4484Z" fill="#3E064F"/>
<path d="M44.802 28.9846C44.996 28.1981 44.8999 27.368 44.5313 26.6467C44.1627 25.9253 43.5463 25.3611 42.7953 25.0575C42.0443 24.7538 41.209 24.7312 40.4427 24.9936C39.6763 25.2561 39.0303 25.7861 38.6231 26.4864C38.322 26.0314 37.9147 25.6565 37.4363 25.3941C36.9579 25.1317 36.4229 24.9897 35.8774 24.9802C35.8774 25.0221 35.8774 25.064 35.8679 25.1059C35.8247 26.0094 36.0867 26.9011 36.6116 27.6377C37.1366 28.3743 37.894 28.913 38.7621 29.167C39.6302 29.4211 40.5585 29.3758 41.3978 29.0384C42.237 28.7011 42.9384 28.0913 43.3892 27.3071C43.6967 27.9856 44.1856 28.5661 44.802 28.9846Z" fill="#009F61"/>
<path d="M38.9061 37.2045C38.1909 37.205 37.4882 37.0172 36.8686 36.6599C36.0798 36.2026 35.465 35.4965 35.1204 34.6523C34.7759 33.8081 34.721 32.8735 34.9645 31.9948C34.6784 31.9059 34.4031 31.7852 34.1438 31.6349C33.6442 31.3468 33.2109 30.9566 32.872 30.4899C32.5331 30.0233 32.2963 29.4905 32.1769 28.9262C32.0575 28.3619 32.0582 27.7789 32.179 27.2149C32.2998 26.6509 32.538 26.1187 32.878 25.6529C33.2181 25.187 33.6524 24.798 34.1527 24.5111C34.653 24.2241 35.2081 24.0457 35.7819 23.9875C36.3557 23.9292 36.9354 23.9924 37.4831 24.1729C38.0309 24.3534 38.5345 24.6473 38.9613 25.0352C39.5987 24.3825 40.4347 23.9597 41.3382 23.8332C42.2418 23.7068 43.1618 23.8838 43.9539 24.3364C44.668 24.7477 45.2419 25.3641 45.6012 26.1057C45.9605 26.8474 46.0885 27.6799 45.9686 28.4951C45.8487 29.3104 45.4864 30.0708 44.9288 30.6776C44.3713 31.2844 43.6441 31.7095 42.8419 31.8977C43.0288 32.5126 43.069 33.1628 42.9592 33.796C42.8493 34.4293 42.5926 35.0279 42.2095 35.544C41.8264 36.06 41.3276 36.479 40.7533 36.7674C40.1789 37.0558 39.5449 37.2055 38.9022 37.2045H38.9061ZM36.1774 25.4484C35.9447 25.4487 35.7129 25.4794 35.4882 25.5398C34.8866 25.7024 34.3626 26.0736 34.0098 26.5872C33.657 27.1008 33.4985 27.7232 33.5626 28.3429C33.6268 28.9627 33.9094 29.5394 34.3598 29.9699C34.8103 30.4004 35.3993 30.6565 36.0213 30.6924C36.1477 30.699 36.2702 30.738 36.3773 30.8054C36.4843 30.8729 36.5723 30.9667 36.6329 31.0778C36.6934 31.1889 36.7244 31.3137 36.7231 31.4402C36.7217 31.5668 36.6879 31.6908 36.6249 31.8006C36.3948 32.2056 36.2767 32.6645 36.2826 33.1302C36.2885 33.5959 36.4183 34.0517 36.6586 34.4506C36.8989 34.8496 37.2411 35.1774 37.65 35.4004C38.059 35.6234 38.5199 35.7336 38.9854 35.7195C39.451 35.7055 39.9044 35.5677 40.2991 35.3205C40.6938 35.0733 41.0156 34.7254 41.2314 34.3127C41.4473 33.8999 41.5493 33.4372 41.5272 32.9719C41.505 32.5067 41.3594 32.0558 41.1053 31.6654C41.032 31.5509 40.9915 31.4185 40.9883 31.2826C40.985 31.1467 41.0191 31.0125 41.0869 30.8947C41.1546 30.7769 41.2534 30.6799 41.3725 30.6143C41.4916 30.5488 41.6264 30.5171 41.7622 30.5229C42.2276 30.5457 42.6906 30.4442 43.1037 30.2288C43.5168 30.0135 43.8651 29.692 44.1128 29.2974C44.3605 28.9029 44.4988 28.4495 44.5132 27.9838C44.5277 27.5182 44.418 27.057 44.1953 26.6479C43.9726 26.2387 43.6449 25.8961 43.246 25.6555C42.8471 25.4148 42.3913 25.2847 41.9255 25.2785C41.4596 25.2724 41.0005 25.3903 40.5954 25.6203C40.1902 25.8503 39.8536 26.184 39.6201 26.5871C39.5567 26.6962 39.4665 26.7874 39.3581 26.852C39.2497 26.9166 39.1266 26.9525 39.0004 26.9563C38.8743 26.9601 38.7492 26.9317 38.6371 26.8738C38.525 26.8159 38.4294 26.7303 38.3596 26.6252C38.121 26.2644 37.797 25.9681 37.4163 25.7628C37.0355 25.5575 36.61 25.4495 36.1774 25.4484Z" fill="#3E064F"/>
<path d="M47.0314 21.5033C47.3128 21.003 47.4616 20.439 47.4637 19.865C47.4658 19.291 47.3211 18.726 47.0433 18.2236C46.7655 17.7213 46.3638 17.2984 45.8765 16.995C45.3892 16.6916 44.8325 16.5178 44.2591 16.4902C43.6857 16.4626 43.1148 16.5821 42.6006 16.8373C42.0865 17.0925 41.6461 17.4749 41.3213 17.9482C40.9966 18.4216 40.7982 18.9701 40.7452 19.5416C40.6921 20.1132 40.7861 20.6889 41.0182 21.2139C40.4217 21.1887 39.8293 21.3227 39.3017 21.6021C38.7741 21.8814 38.3304 22.2962 38.016 22.8037C37.7016 23.3112 37.5279 23.8932 37.5127 24.49C37.4976 25.0868 37.6415 25.6769 37.9297 26.1997C38.2179 26.7225 38.64 27.1593 39.1527 27.4651C39.6654 27.7709 40.2503 27.9348 40.8472 27.9399C41.4442 27.9451 42.0318 27.7913 42.5497 27.4944C43.0676 27.1974 43.4972 26.7681 43.7944 26.2503C44.0406 26.7946 44.4273 27.2635 44.9148 27.6089C45.4023 27.9543 45.9729 28.1636 46.5681 28.2154C47.1633 28.2672 47.7615 28.1596 48.3013 27.9037C48.8411 27.6477 49.3031 27.2527 49.6397 26.7591C49.9762 26.2655 50.1753 25.6912 50.2165 25.0952C50.2576 24.4992 50.1393 23.903 49.8737 23.3678C49.6082 22.8327 49.2049 22.3779 48.7053 22.0502C48.2058 21.7225 47.628 21.5338 47.0314 21.5033Z" fill="#00B76A"/>
<path d="M46.8587 28.9733H46.6568C46.0959 28.9466 45.5464 28.8051 45.0423 28.5575C44.5382 28.3099 44.0903 27.9614 43.7264 27.5337C43.2678 27.9769 42.7124 28.3073 42.104 28.4987C41.4956 28.6901 40.8511 28.7373 40.2214 28.6365C39.5916 28.5357 38.994 28.2897 38.4758 27.9179C37.9576 27.5462 37.533 27.059 37.2356 26.4948C36.9383 25.9306 36.7764 25.3049 36.7627 24.6673C36.749 24.0297 36.8839 23.3977 37.1567 22.8212C37.4295 22.2448 37.8328 21.7397 38.3345 21.3461C38.8363 20.9524 39.4228 20.681 40.0476 20.5532C39.9964 20.2585 39.9785 19.9589 39.9943 19.6602C40.022 19.0833 40.171 18.5188 40.4315 18.0034C40.6921 17.488 41.0583 17.0332 41.5064 16.6689C41.9545 16.3046 42.4744 16.0388 43.0321 15.8889C43.5899 15.739 44.1729 15.7083 44.7433 15.7989C45.3137 15.8895 45.8585 16.0993 46.3424 16.4147C46.8262 16.73 47.2381 17.1438 47.5513 17.6291C47.8644 18.1143 48.0718 18.6601 48.1598 19.2309C48.2478 19.8017 48.2145 20.3846 48.0621 20.9417C49.0038 21.2292 49.8109 21.8454 50.3363 22.6781C50.8617 23.5107 51.0706 24.5045 50.9247 25.4782C50.7789 26.4519 50.2881 27.3409 49.5418 27.9831C48.7955 28.6253 47.8433 28.9781 46.8587 28.9771V28.9733ZM43.7949 25.5078H43.8311C43.9674 25.5142 44.0993 25.5581 44.2122 25.6347C44.3251 25.7113 44.4146 25.8176 44.4709 25.9419C44.6626 26.3665 44.9638 26.7324 45.3437 27.0021C45.7235 27.2718 46.1684 27.4354 46.6324 27.4763C47.0965 27.5171 47.5631 27.4337 47.9842 27.2345C48.4053 27.0354 48.7659 26.7277 49.0287 26.3431C49.2916 25.9585 49.4473 25.5108 49.4799 25.0461C49.5125 24.5814 49.4208 24.1164 49.2142 23.6988C49.0076 23.2813 48.6936 22.9263 48.3044 22.6703C47.9152 22.4143 47.4648 22.2665 46.9996 22.2422C46.8733 22.2361 46.7506 22.1978 46.6433 22.131C46.536 22.0641 46.4476 21.9709 46.3865 21.8601C46.3254 21.7494 46.2937 21.6249 46.2944 21.4985C46.295 21.372 46.328 21.2479 46.3903 21.1378C46.608 20.748 46.7226 20.3091 46.7232 19.8626C46.7238 19.4162 46.6104 18.9769 46.3937 18.5866C46.177 18.1962 45.8642 17.8676 45.485 17.632C45.1058 17.3964 44.6726 17.2615 44.2267 17.2401C43.7807 17.2188 43.3367 17.3116 42.9367 17.5099C42.5367 17.7082 42.1939 18.0054 41.9409 18.3732C41.6879 18.7411 41.533 19.1675 41.4909 19.6119C41.4488 20.0564 41.5209 20.5043 41.7004 20.9131C41.7519 21.0286 41.773 21.1555 41.7616 21.2815C41.7503 21.4075 41.7068 21.5284 41.6354 21.6329C41.564 21.7373 41.467 21.8217 41.3537 21.878C41.2405 21.9344 41.1146 21.9608 40.9883 21.9547C40.5229 21.9342 40.0605 22.038 39.6485 22.2554C39.2365 22.4728 38.8899 22.796 38.6441 23.1917C38.3983 23.5874 38.2623 24.0414 38.2501 24.507C38.2379 24.9727 38.3498 25.4332 38.5744 25.8413C38.799 26.2494 39.1282 26.5903 39.5282 26.829C39.9282 27.0678 40.3845 27.1958 40.8503 27.1998C41.3161 27.2038 41.7746 27.0838 42.1787 26.852C42.5827 26.6202 42.9178 26.2851 43.1494 25.881C43.2146 25.7674 43.3086 25.673 43.422 25.6075C43.5353 25.5419 43.664 25.5075 43.7949 25.5078Z" fill="#3E064F"/>
<path d="M44.0972 21.1129C44.8607 21.1129 45.4796 20.494 45.4796 19.7305C45.4796 18.9671 44.8607 18.3481 44.0972 18.3481C43.3338 18.3481 42.7148 18.9671 42.7148 19.7305C42.7148 20.494 43.3338 21.1129 44.0972 21.1129Z" fill="#12C96A"/>
<path d="M39.7759 25.6393C39.6251 25.6391 39.4782 25.5916 39.3559 25.5034C39.2336 25.4153 39.1421 25.291 39.0942 25.148C38.9439 24.7109 38.9635 24.2333 39.149 23.81C39.3346 23.3867 39.6725 23.0487 40.0958 22.8631C40.2688 22.7884 40.4642 22.7846 40.64 22.8525C40.8158 22.9203 40.958 23.0544 41.036 23.2259C41.114 23.3974 41.1217 23.5927 41.0573 23.7698C40.9929 23.9469 40.8617 24.0917 40.6918 24.1731C40.64 24.1892 40.5922 24.2162 40.5517 24.2523C40.5112 24.2884 40.4789 24.3327 40.4569 24.3822C40.4349 24.4318 40.4238 24.4855 40.4242 24.5398C40.4247 24.594 40.4367 24.6475 40.4595 24.6967C40.5198 24.8778 40.5057 25.0753 40.4204 25.246C40.335 25.4167 40.1854 25.5465 40.0044 25.6069C39.9304 25.6296 39.8533 25.6406 39.7759 25.6393Z" fill="#12C96A"/>
<path d="M1.02747 30.8886C5.21654 42.401 15.5883 51.5655 36.4327 43.9776C57.2772 36.3896 59.3317 22.7047 55.1426 11.1924C57.3133 17.1447 46.953 26.3854 32.0095 31.8255C17.0659 37.2655 3.19626 36.8447 1.02747 30.8886Z" fill="#E6E6E6"/>
<path d="M5.97461 35.0719C8.7413 42.6694 18.519 48.576 35.816 42.279C53.1131 35.9821 56.8052 25.1724 54.0404 17.575L43.4801 26.8138L30.7872 32.4957L18.7379 35.4033L5.97461 35.0719Z" fill="#C8C8C8"/>
<path d="M49.4747 22.0955C50.1405 26.122 49.2788 30.2521 47.0584 33.6764C46.9821 33.7902 46.9518 33.9287 46.9738 34.064C46.9957 34.1992 47.0681 34.3211 47.1764 34.405C47.2847 34.4889 47.4209 34.5286 47.5573 34.516C47.6937 34.5034 47.8203 34.4394 47.9114 34.3371C52.2909 29.5387 53.2963 24.3062 52.4014 19.4316L49.4747 22.0955Z" fill="white"/>
<path d="M6.51152 34.876C6.44037 34.9014 6.37514 34.9411 6.31983 34.9925C6.26451 35.044 6.22027 35.1062 6.1898 35.1753C6.15933 35.2445 6.14327 35.3191 6.1426 35.3947C6.14193 35.4702 6.15667 35.5451 6.18592 35.6148C7.80633 39.5582 11.3804 42.9666 16.9575 44.3166C17.0877 44.3479 17.2248 44.3312 17.3437 44.2698C17.4627 44.2084 17.5556 44.1062 17.6055 43.982C17.6553 43.8577 17.6589 43.7197 17.6154 43.5931C17.572 43.4664 17.4845 43.3597 17.3688 43.2922C14.2423 41.47 11.8469 38.6709 10.2131 35.5462L6.51152 34.876Z" fill="#B4B4B4"/>
<path d="M22.4884 47.4984C18.6802 47.4984 15.2242 46.7539 12.1585 45.2629C6.84223 42.679 2.75217 37.7988 0.332031 31.1496L1.72775 30.6412C3.72518 36.1022 17.4729 36.325 31.7558 31.1267C38.8962 28.5276 45.197 24.984 49.4984 21.1491C53.5637 17.5313 55.3669 13.9858 54.4491 11.4476L55.8448 10.9392C58.265 17.5903 58.2688 23.9577 55.8582 29.354C52.9049 35.9632 46.4556 41.1158 36.6913 44.6708C31.5197 46.5577 26.7746 47.4984 22.4884 47.4984ZM3.4567 34.537C5.75497 38.8384 8.94819 42.0469 12.8098 43.9281C18.9429 46.91 26.8051 46.691 36.1791 43.2807C55.7039 36.1726 57.4119 24.1138 55.624 15.5605C54.8033 17.676 53.0705 19.9514 50.4828 22.2573C46.0443 26.216 39.5722 29.8605 32.2604 32.5224C20.1197 36.9476 8.91011 37.5455 3.4567 34.537Z" fill="#3E064F"/>
</svg>
