<svg width="209" height="50" viewBox="0 0 209 50" fill="none" xmlns="http://www.w3.org/2000/svg">
<g clip-path="url(#clip0_415_215)">
<path d="M142.624 44.596H138.109C138.121 38.8509 138.098 33.1097 138.121 27.3491H142.605C142.609 27.4964 142.62 27.636 142.62 27.7755C142.62 29.7526 142.62 31.7296 142.62 33.7067C142.62 33.8036 142.617 33.9005 142.62 33.9974C142.636 34.2262 142.771 34.3812 142.992 34.4122C143.111 34.4277 143.231 34.42 143.351 34.42H157.829C157.902 34.6526 157.941 44.0959 157.871 44.5999H153.468C153.468 44.4719 153.456 44.3324 153.456 44.1928C153.456 42.1576 153.456 40.1185 153.456 38.0833C153.456 37.5096 153.271 37.3197 152.706 37.3197C149.563 37.3197 146.417 37.3197 143.274 37.3197C143.2 37.3197 143.127 37.3197 143.057 37.3274C142.748 37.3701 142.621 37.5135 142.613 37.8314C142.613 37.9981 142.613 38.1686 142.613 38.3392V44.6076L142.624 44.596Z" fill="#00DBAB"/>
<path d="M88.256 30.8692C88.256 30.3613 88.2212 29.9117 88.2637 29.4736C88.3603 28.4463 89.2997 27.5159 90.328 27.3958C90.6605 27.357 91.0007 27.3337 91.337 27.3337C96.9772 27.3337 102.613 27.3337 108.254 27.3337H108.694C108.741 28.1091 108.795 28.8417 108.412 29.5162C107.944 30.342 107.229 30.7955 106.278 30.8614C106.124 30.873 105.965 30.873 105.81 30.873C100.17 30.873 94.5301 30.873 88.8938 30.873H88.256V30.8692Z" fill="#00DBAB"/>
<path d="M113.264 30.8691C113.264 30.3419 113.217 29.8651 113.271 29.4038C113.415 28.1865 114.505 27.3724 115.429 27.3686C115.73 27.3686 116.028 27.3259 116.329 27.3259C121.726 27.3259 127.119 27.3259 132.515 27.3259H132.995C133.091 28.423 133.03 29.427 132.148 30.2023C131.673 30.6249 131.116 30.8032 130.501 30.8497C130.323 30.8652 130.142 30.8614 129.96 30.8614C124.529 30.8614 119.097 30.8614 113.666 30.8614H113.264V30.8691Z" fill="#00DBAB"/>
<path d="M157.898 28.8959C157.898 29.7371 157.225 30.4233 156.387 30.4388C155.946 30.4466 155.467 30.4466 155.026 30.4466C154.179 30.4466 153.495 29.7527 153.495 28.9037V28.8959C153.495 28.047 154.183 27.3569 155.03 27.3569H156.36C157.21 27.3569 157.898 28.047 157.898 28.8959Z" fill="#00DBAB"/>
<path d="M104.759 34.4201C104.983 36.0289 103.769 37.1802 102.556 37.2965C102.378 37.3121 102.196 37.3121 102.014 37.3121C99.1962 37.3121 96.3741 37.3121 93.556 37.3121C93.4709 37.3121 93.3859 37.3121 93.3047 37.3121C92.8601 37.3198 92.663 37.4981 92.6552 37.9478C92.6436 38.5254 92.6552 39.103 92.6552 39.6845C92.6552 39.9481 92.6436 40.2156 92.6552 40.4792C92.6823 40.9909 92.9258 41.0801 93.2854 41.0801C97.4913 41.0723 101.693 41.0762 105.899 41.0723C106.325 41.0723 106.742 41.1033 107.133 41.2894C108.122 41.7585 108.683 42.5183 108.718 43.6309C108.729 43.941 108.718 44.2511 108.718 44.6155H108.308C102.548 44.6155 96.7916 44.6078 91.0316 44.6155C90.2894 44.6155 89.6245 44.4643 89.0639 43.9604C88.542 43.4952 88.256 42.9137 88.2444 42.2159C88.2328 41.4677 88.2405 40.7196 88.2405 39.9753C88.2405 38.9984 88.2482 38.0215 88.2405 37.0446C88.2328 35.9087 88.7701 35.1218 89.7714 34.6372C90.2159 34.4201 90.7069 34.424 91.1901 34.4201C92.9606 34.4124 94.7312 34.4163 96.5017 34.4163H104.759V34.4201Z" fill="#00DBAB"/>
<path d="M84.0615 27.3298C84.077 27.9113 84.135 28.4347 83.9842 28.9541C83.6595 30.0628 82.7974 30.7567 81.6106 30.8536C81.4328 30.8692 81.2511 30.8692 81.0694 30.8692C79.6236 30.8692 78.1778 30.8692 76.732 30.8692C76.647 30.8692 76.5619 30.8653 76.4807 30.873C76.2295 30.904 76.071 31.0746 76.0594 31.3266C76.0516 31.4468 76.0594 31.5669 76.0594 31.6871V44.5457C75.8081 44.631 72.1047 44.6504 71.575 44.569V31.753C71.575 31.6445 71.575 31.5359 71.575 31.4274C71.5673 31.0358 71.4204 30.8847 71.03 30.8653C70.8251 30.8575 70.6202 30.8653 70.4153 30.8653C68.2698 30.8653 66.1281 30.8653 63.9826 30.8653H63.6231C63.6386 30.3071 63.5729 29.7798 63.6772 29.2604C63.8512 28.3843 64.7906 27.4772 65.7068 27.3919C66.0199 27.3609 66.333 27.3298 66.6423 27.3298C72.2786 27.326 77.9149 27.3298 83.5551 27.3298H84.0693H84.0615Z" fill="#00DBAB"/>
<path d="M133.064 44.6232H132.674C127.146 44.6232 121.614 44.6232 116.086 44.6116C115.773 44.6116 115.452 44.6193 115.154 44.5418C114.099 44.2704 113.407 43.5145 113.302 42.3593C113.287 42.2042 113.287 42.0453 113.287 41.8902C113.287 40.4675 113.279 39.0448 113.291 37.6221C113.291 37.3003 113.322 36.967 113.415 36.6607C113.728 35.6179 114.617 34.9163 115.703 34.8542C116.341 34.8193 116.979 34.8465 117.617 34.8465C117.651 34.8465 117.682 34.8659 117.76 34.893V35.3427C117.76 36.9825 117.76 38.6223 117.76 40.262C117.76 40.3357 117.76 40.4055 117.76 40.4791C117.775 40.9366 117.91 41.0722 118.378 41.0722C122.352 41.0722 126.33 41.0722 130.304 41.0722C131.089 41.0722 131.773 41.3087 132.326 41.8747C132.732 42.2895 133.002 42.7741 133.049 43.3711C133.08 43.7781 133.08 44.1813 133.057 44.6232" fill="#00DBAB"/>
<path d="M162.321 4.98926C163.14 5.01252 163.917 4.95825 164.675 5.06679C166.183 5.28775 166.816 6.62517 166.813 7.63696C166.805 11.0367 166.809 14.4365 166.809 17.8362C166.809 17.9796 166.805 18.127 166.813 18.2704C166.832 18.5999 167.01 18.7705 167.338 18.7937C167.423 18.8015 167.508 18.7937 167.59 18.7937H178.684C178.719 18.7937 178.758 18.7937 178.793 18.7937C179.365 18.7898 179.523 18.6348 179.523 18.0572C179.523 14.7427 179.523 11.4282 179.523 8.11377C179.523 7.64471 179.531 7.17564 179.701 6.72596C180.068 5.75294 180.768 5.17533 181.781 5.05128C182.469 4.96987 183.177 5.02415 183.872 5.02415C183.907 5.02415 183.938 5.04353 183.992 5.06291C184 5.15207 184.012 5.24511 184.012 5.33815C184.012 10.1373 184.012 14.9327 184.012 19.7319C184.012 21.0654 183.006 22.1586 181.673 22.271C181.302 22.302 180.927 22.2943 180.552 22.2943C175.36 22.2943 170.168 22.2943 164.973 22.2904C163.446 22.2904 162.321 21.1623 162.317 19.6388C162.317 14.9016 162.317 10.1645 162.317 5.42731V4.98926H162.321Z" fill="#02C2E4"/>
<path d="M122.232 19.3402C122.495 18.8362 122.743 18.3711 122.982 17.902C123.477 16.9406 124.254 16.456 125.337 16.4638C125.576 16.4638 125.82 16.4677 126.059 16.456C126.179 16.4521 126.299 16.4289 126.411 16.3862C126.655 16.2855 126.751 16.0916 126.682 15.8319C126.639 15.6807 126.574 15.5373 126.504 15.4016C125.596 13.6494 124.683 11.8972 123.771 10.145C123.694 9.99378 123.612 9.8426 123.512 9.71079C123.315 9.45106 123.025 9.43943 122.801 9.67591C122.712 9.77282 122.634 9.88524 122.573 9.99766C121.904 11.2769 121.239 12.5601 120.574 13.8432C119.368 16.1614 118.158 18.4796 116.959 20.8017C116.449 21.7863 115.653 22.2825 114.547 22.2825C113.643 22.2825 112.742 22.2786 111.837 22.2748C111.744 22.2748 111.648 22.2631 111.524 22.2554C111.57 22.1468 111.601 22.0577 111.648 21.9763C113.465 18.5222 115.286 15.0682 117.102 11.6142C117.934 10.0364 118.761 8.45866 119.592 6.8809C119.65 6.77623 119.708 6.66769 119.758 6.55914C120.261 5.49696 121.115 5.00464 122.275 5.00464C123.288 5.00464 124.301 5.00464 125.31 5.00464C125.441 5.00464 125.572 5.02014 125.704 5.03177C128.723 10.7691 131.738 16.4909 134.765 22.2437C134.672 22.2593 134.607 22.2825 134.541 22.2825C133.578 22.2864 132.612 22.2941 131.649 22.2864C130.834 22.2786 130.142 21.9801 129.635 21.325C129.438 21.0691 129.299 20.7706 129.141 20.4877C129.017 20.2667 128.897 20.0419 128.796 19.8131C128.65 19.4759 128.429 19.3324 128.043 19.3363C126.21 19.3557 124.378 19.3441 122.549 19.3441H122.236" fill="#02C2E4"/>
<path d="M104.937 12.1104C104.875 13.1881 104.566 14.0681 103.646 14.6224C103.224 14.8744 102.76 15.0023 102.269 15.0062C101.415 15.0139 100.561 15.0139 99.7025 15.0139C97.6305 15.0139 95.5584 15.0139 93.4863 15.0139C93.3781 15.0139 93.2698 15.0101 93.1616 15.0178C92.9065 15.0411 92.7905 15.1457 92.7905 15.4093C92.7828 16.3746 92.7828 17.3399 92.7905 18.3013C92.7905 18.5688 92.9335 18.7199 93.2003 18.7703C93.3046 18.7897 93.4167 18.7858 93.525 18.7858C97.7542 18.7858 101.983 18.7975 106.209 18.7781C107.372 18.7742 108.25 19.441 108.629 20.4373C108.718 20.6699 108.76 20.9257 108.779 21.1738C108.803 21.5188 108.787 21.8716 108.787 22.2592C108.632 22.267 108.493 22.2825 108.354 22.2825C106.332 22.2825 104.307 22.2825 102.281 22.2825C98.4848 22.2825 94.6925 22.2825 90.8963 22.2825C89.636 22.2825 88.6425 21.5033 88.3526 20.2861C88.3178 20.1349 88.3062 19.9759 88.3062 19.8209C88.3062 18.0842 88.2984 16.3475 88.3062 14.6147C88.31 13.3238 89.3151 12.2267 90.5947 12.1026C90.7378 12.0871 90.8847 12.0833 91.0277 12.0833C95.2801 12.0833 99.5324 12.0833 103.785 12.0871C104.156 12.0871 104.527 12.0988 104.937 12.1065" fill="#02C2E4"/>
<path d="M208.954 22.2903H208.579C202.869 22.2903 197.159 22.2903 191.449 22.2864C191.067 22.2864 190.672 22.267 190.305 22.1701C189.226 21.8833 188.504 20.9025 188.5 19.7899C188.5 18.0803 188.5 16.3669 188.5 14.6573C188.5 13.3083 189.482 12.2345 190.823 12.1143C191.028 12.0949 191.233 12.091 191.438 12.091C195.81 12.091 200.182 12.091 204.554 12.0872H205.065C205.068 12.2732 205.088 12.4244 205.072 12.5756C204.933 14.0332 203.882 14.9326 202.525 15.0101C201.972 15.0411 201.415 15.0178 200.863 15.0178C198.466 15.0178 196.069 15.0178 193.672 15.0178C193.069 15.0178 192.949 15.1303 192.941 15.7273C192.934 16.4754 192.934 17.2197 192.941 17.9679C192.941 18.0997 192.957 18.2315 192.984 18.3633C193.038 18.6192 193.193 18.7549 193.456 18.782C193.587 18.7975 193.722 18.7897 193.854 18.7897C198.06 18.7897 202.262 18.8014 206.464 18.782C207.639 18.7781 208.764 19.7007 208.942 20.8947C209.008 21.3289 208.954 21.7825 208.954 22.2903Z" fill="#02C2E4"/>
<path d="M142.601 12.533C142.601 12.8896 142.601 13.1881 142.601 13.4905C142.601 14.9752 142.593 16.456 142.593 17.9408C142.593 18.0609 142.593 18.1811 142.609 18.3013C142.648 18.6075 142.822 18.7704 143.131 18.7936C143.216 18.8014 143.301 18.7936 143.382 18.7936C146.792 18.7936 150.201 18.7936 153.615 18.7936C153.7 18.7936 153.785 18.7936 153.866 18.7936C154.191 18.7742 154.369 18.6308 154.376 18.3052C154.396 17.6423 154.392 16.9794 154.376 16.3165C154.369 16.0219 154.179 15.8668 153.885 15.8397C153.766 15.828 153.646 15.8358 153.526 15.8358C152.815 15.8358 152.103 15.8242 151.392 15.828C150.178 15.828 149.007 14.6612 148.995 13.4711C148.995 13.2579 148.995 13.0408 148.995 12.8043C149.107 12.7927 149.196 12.7772 149.289 12.7772C151.384 12.7772 153.483 12.7966 155.579 12.7694C156.564 12.7578 157.933 13.7347 157.898 15.1148C157.856 16.7274 157.867 18.3478 157.898 19.9605C157.917 20.7978 157.229 21.9298 156.147 22.174C155.811 22.2515 155.455 22.2864 155.111 22.2864C150.267 22.2942 145.423 22.298 140.579 22.2864C139.543 22.2864 138.782 21.7863 138.349 20.8443C138.237 20.6001 138.167 20.3132 138.167 20.0458C138.152 18.3439 138.144 16.646 138.167 14.9442C138.179 14.0565 138.635 13.3897 139.369 12.9206C139.76 12.6725 140.189 12.5252 140.668 12.5368C141.295 12.5485 141.917 12.5368 142.613 12.5368" fill="#02C2E4"/>
<path d="M83.7523 22.267C83.5436 22.2787 83.3889 22.2903 83.2304 22.2903C77.6521 22.2903 72.0738 22.2903 66.4954 22.2903C65.4478 22.2903 64.6669 21.8367 64.1914 20.8909C64.002 20.5148 63.9749 20.1039 63.9556 19.693C63.9363 19.3325 63.9401 18.9719 63.9401 18.6076C63.9401 14.4596 63.9401 10.3156 63.9401 6.16764V5.04343C64.0561 5.02793 64.1566 5.00467 64.2571 5.00467C64.7751 5.00467 65.2932 4.99691 65.8112 5.00467C66.7854 5.02405 67.5431 5.4466 68.0727 6.27231C68.2505 6.55142 68.3665 6.84991 68.3742 7.18718C68.3858 7.57096 68.4167 7.95861 68.4167 8.34239C68.4167 11.5599 68.4167 14.7775 68.4167 17.9989C68.4167 18.0842 68.4167 18.1695 68.4167 18.2509C68.4322 18.5649 68.6177 18.7626 68.9347 18.7859C69.0778 18.7975 69.2247 18.7859 69.3677 18.7859C73.2953 18.7859 77.223 18.813 81.1506 18.7704C82.5926 18.7549 83.7987 20.0341 83.7446 21.3909C83.733 21.6662 83.7446 21.9414 83.7446 22.2554" fill="#02C2E4"/>
<path d="M88.3062 8.52072C88.3062 8.06328 88.2676 7.66012 88.314 7.26859C88.4299 6.34209 88.9132 5.65593 89.7675 5.25665C90.1077 5.09771 90.4711 5.00854 90.8499 5.00854C90.9814 5.00854 91.1167 5.00854 91.2481 5.00854H108.756C108.772 5.12872 108.791 5.22176 108.791 5.31092C108.791 5.53963 108.772 5.76835 108.791 5.99707C108.872 7.17555 107.74 8.49358 106.363 8.51684C106.135 8.52072 105.907 8.52459 105.675 8.52459C100.039 8.52459 94.4026 8.52459 88.7624 8.52459H88.3024L88.3062 8.52072Z" fill="#02C2E4"/>
<path d="M188.538 8.52072C188.538 7.978 188.473 7.47404 188.55 6.99722C188.724 5.96606 189.683 5.13647 190.738 5.03568C190.955 5.0163 191.171 5.00854 191.387 5.00854C197.097 5.00854 202.811 5.00854 208.521 5.00854H208.907C209.336 6.97784 208.157 8.48195 206.476 8.51684C206.306 8.52072 206.139 8.52072 205.969 8.52072C200.317 8.52072 194.666 8.52072 189.018 8.52072H188.538Z" fill="#02C2E4"/>
<path d="M157.318 5.00455C157.291 5.69846 157.392 6.33422 157.11 6.94671C156.688 7.87321 155.985 8.39267 154.979 8.50509C154.802 8.52448 154.62 8.51672 154.438 8.51672C149.173 8.51672 143.908 8.51672 138.643 8.51672H138.14C138.194 7.77242 138.028 7.05913 138.376 6.38461C138.797 5.56665 139.458 5.11697 140.363 5.0123C140.506 4.9968 140.653 5.00067 140.796 5.00067C146.123 5.00067 151.446 5.00067 156.773 5.00067H157.318" fill="#02C2E4"/>
<path d="M23.8442 1.90721C21.8494 3.90752 19.8354 5.92722 17.8097 7.95854C19.8779 10.0325 23.7669 13.9323 24.9459 15.1108C25.1392 15.3046 25.1354 15.6148 24.9459 15.8047L22.0002 18.7393C22.0002 18.7393 24.0877 20.8288 24.9653 21.7087C26.9445 19.7239 29.0282 17.6345 31.1544 15.4985C28.6996 13.0446 26.1405 10.4899 23.62 7.97405C24.6057 6.9894 25.5606 6.02801 26.4961 5.08988C27.5785 4.00444 29.3336 4.00444 30.416 5.08988C36.5085 11.2032 42.6281 17.3437 48.6703 23.4067C48.8752 23.6121 48.8752 23.9416 48.6703 24.1471C48.0518 24.7673 47.4216 25.3954 46.7838 26.035C45.423 27.3957 43.2002 27.3957 41.8472 26.0234C41.0779 25.2442 40.2931 24.4533 39.5045 23.6509C37.8615 21.9878 35.1825 21.984 33.5318 23.6393C31.166 26.0195 28.8195 28.3764 26.4497 30.7566C26.241 30.9699 25.8969 30.9699 25.6843 30.7566C22.7927 27.8531 19.9281 24.9806 17.0868 22.1274C13.3718 18.3981 7.345 18.402 3.62998 22.1274C2.41225 23.3485 1.20226 24.5619 0 25.7675C7.04347 32.8306 14.1217 39.9286 21.1768 47.0034C24.1612 49.9922 28.9934 49.9961 31.9778 47.0034C34.8037 44.1696 37.645 41.3203 40.4748 38.4788L37.6837 35.7303L30.3155 43.1345C28.3672 45.0922 25.174 45.0922 23.2257 43.1345C17.3883 37.277 11.6244 31.4932 5.86827 25.7171L5.91466 25.6706C8.31531 23.2943 12.1811 23.3059 14.5663 25.6977C18.1537 29.2991 21.7605 32.9236 25.3905 36.5637C25.6727 36.8467 26.1327 36.8467 26.4149 36.5637C29.6661 33.2842 32.8128 30.1054 35.975 26.915C36.1838 26.7018 36.5278 26.7018 36.7405 26.915L38.2906 28.4695C41.6655 31.8615 47.1472 31.8576 50.5181 28.4656C52.0296 26.946 53.5296 25.4341 55.0179 23.9416C47.7038 16.6072 40.355 9.23781 33.037 1.89946C31.7691 0.627945 30.1068 -0.0078125 28.4445 -0.0078125C26.7822 -0.0078125 25.1199 0.627945 23.8519 1.89946" fill="url(#paint0_linear_415_215)"/>
</g>
<defs>
<linearGradient id="paint0_linear_415_215" x1="0.386579" y1="26.1668" x2="55.4741" y2="26.3595" gradientUnits="userSpaceOnUse">
<stop stop-color="#FE6C1C"/>
<stop offset="0.5" stop-color="#FEBE01"/>
<stop offset="1" stop-color="#02C2E4"/>
</linearGradient>
<clipPath id="clip0_415_215">
<rect width="209" height="50" fill="white"/>
</clipPath>
</defs>
</svg>
