<svg width="204" height="38" viewBox="0 0 204 38" fill="none" xmlns="http://www.w3.org/2000/svg">
<path fill-rule="evenodd" clip-rule="evenodd" d="M189.861 29.6593C189.706 29.5042 189.556 29.447 189.412 29.4851H189.409C189.208 29.6512 189.096 29.8717 189.077 30.1521C188.922 32.4227 188.864 34.3556 188.903 35.951L189.134 36.3866C189.134 36.4819 189.559 36.6915 190.409 37.01C191.839 37.5518 193.566 37.756 195.588 37.6199C199.551 37.3585 202.191 35.6488 203.507 32.488C203.837 31.4644 204 30.4652 204 29.4878C204 26.7926 202.758 24.2852 200.273 21.9656C199.946 21.6008 198.424 20.3566 195.705 18.2412L194.487 17.008L193.703 15.8917C193.49 15.5814 193.34 15.0832 193.253 14.3971V13.613C193.553 11.7182 194.702 10.5883 196.705 10.2208C198.069 10.1418 199.075 10.2671 199.723 10.5965C200.903 11.1954 201.72 12.1265 202.175 13.3925L202.45 15.0015C202.45 15.0886 202.537 15.1322 202.711 15.1322C202.769 15.1322 202.831 15.1294 202.899 15.1186C203.006 15.1186 203.098 14.9116 203.175 14.4951V11.887L203.292 9.32238C203.33 9.14814 202.717 8.94395 201.45 8.71254C199.914 8.43213 198.462 8.34228 197.1 8.43757C194.171 8.65265 192.033 9.76342 190.69 11.7726C189.943 12.8916 189.573 14.0894 189.573 15.4534C189.573 16.8174 189.962 18.2467 190.747 19.7441C191.125 20.4601 191.793 21.3095 192.749 22.295C193.58 23.1444 195.013 24.3532 197.042 25.9186L198.827 27.7019L199.437 28.6003C199.794 29.3245 200.004 29.8608 200.061 30.2093C200.167 30.7892 200.2 31.3827 200.162 31.9925C199.756 33.8084 198.791 34.9764 197.274 35.4991C196.375 35.8094 195.427 35.8829 194.43 35.7169C191.567 35.235 190.044 33.2149 189.861 29.6593ZM85.8191 8.42398C85.9008 8.41309 85.9798 8.41036 86.0588 8.41036C86.2713 8.41036 86.4348 8.49204 86.5492 8.65811C86.6173 8.67717 87.3991 10.2916 88.892 13.5041L96.9529 30.6558L107.079 8.718C107.234 8.51382 107.406 8.41036 107.599 8.41036C107.705 8.41036 107.811 8.43486 107.918 8.48387C108.119 8.70984 108.236 8.95486 108.264 9.22166L111.688 33.4572C111.911 35.0036 112.345 35.981 112.993 36.3866C113.592 36.6562 114.096 36.8059 114.502 36.8358L116.082 36.9366L116.257 37.1108C116.257 37.3722 116.107 37.541 115.807 37.6172C109.803 37.6172 106.801 37.4484 106.801 37.1108V36.8358L107.193 36.5445C107.348 36.4275 107.425 36.2968 107.425 36.1525L107.444 35.0363L105.226 18.4999H105.06L96.675 36.6044C96.3563 37.2796 96.0839 37.6199 95.8632 37.6199L95.8562 37.6179L95.8561 37.6179L95.8561 37.6179C95.8213 37.608 95.7939 37.6002 95.776 37.59C95.5717 37.6771 95.0078 36.7868 94.0789 34.9219L90.423 27.5004L86.5928 18.9491L86.4402 18.8919L84.4543 34.6306C84.329 35.6352 84.4788 36.2559 84.9038 36.4874C85.2525 36.6807 86.0997 36.8304 87.4482 36.9366C87.5844 37.0427 87.6525 37.1489 87.6525 37.2551C87.6525 37.3041 87.6389 37.3477 87.6089 37.3858L87.2766 37.6172C85.7183 37.5791 84.2445 37.56 82.8525 37.56C81.4604 37.56 80.131 37.5791 78.8915 37.6172L78.6163 37.3422C78.6054 37.2932 78.6027 37.2469 78.6027 37.1979C78.6027 37.0917 78.6409 37.0237 78.7199 36.9937L80.4742 36.7759C81.1308 36.4846 81.5803 35.4909 81.8227 33.7894L85.4187 9.1046C85.6012 8.66083 85.7347 8.43215 85.8164 8.42398H85.8191ZM118.902 8.45369L122.427 8.57076H125.821L128.984 8.45369L129.447 8.62793C129.485 8.88929 129.447 9.05808 129.33 9.13431C128.325 9.17243 127.595 9.30855 127.14 9.53996C126.598 9.80949 126.328 10.8114 126.328 12.5401V32.9642C126.328 34.821 126.521 35.8909 126.908 36.1822L127.371 36.5307L130.302 36.8655C130.39 36.9336 130.433 37.0207 130.433 37.1269C130.433 37.2059 130.409 37.2903 130.36 37.3883L129.736 37.5625L123.514 37.4482L118.741 37.5053L118.45 37.2739V36.9853L118.681 36.8111C119.618 36.8111 120.253 36.7376 120.583 36.5933C121.046 36.3891 121.313 35.9644 121.381 35.3164C121.631 33.1221 121.71 31.573 121.612 30.6637L121.555 11.0373C121.438 10.4275 121.245 9.97011 120.975 9.65975L120.468 9.37117L118.627 9.19693C118.452 9.10981 118.365 8.98457 118.365 8.82122C118.365 8.76405 118.376 8.70143 118.395 8.63337L118.902 8.45913V8.45369ZM138.257 8.61472L132.991 8.49765L132.988 8.49493C132.795 8.44592 132.626 8.56299 132.482 8.8434C132.444 9.0367 132.534 9.16738 132.757 9.23544L134.353 9.29261C134.623 9.2545 135.045 9.42874 135.615 9.81533C135.993 10.1556 136.181 10.8363 136.181 11.8599V31.1542C136.181 32.0145 136.094 33.3104 135.922 35.0392C135.74 35.9757 135.424 36.4739 134.974 36.5311L133.163 36.7489C133.078 36.7788 133.035 36.8605 133.035 36.9966C133.035 37.0429 133.04 37.0973 133.048 37.1545L133.34 37.3723L139.562 37.3288L142.085 37.5466L146.378 37.7943C146.822 37.8243 147.261 37.8379 147.696 37.8379C151.633 37.8379 154.877 36.7979 157.43 34.7206C159.868 32.7414 161.522 29.9481 162.391 26.3435C162.72 24.9796 162.854 23.4931 162.797 21.8787C162.682 18.6689 161.671 15.8647 159.773 13.4635C157.874 11.0622 155.046 9.54036 151.295 8.9033C149.573 8.61472 147.974 8.47859 146.495 8.49765L138.257 8.61472ZM140.706 22.8343C140.706 19.7306 140.763 16.3847 140.88 12.7883L140.875 12.7856L140.932 11.0023L141.224 10.6675C141.921 10.3108 143.291 10.2155 145.343 10.3789C147.993 10.5831 150.342 11.3263 152.393 12.6113C153.303 13.183 154.134 13.9263 154.888 14.8438C155.787 15.9464 156.498 17.245 157.021 18.7369C157.544 20.2316 157.806 21.9331 157.806 23.847C157.806 24.2908 157.792 24.74 157.762 25.1946C157.637 27.0895 157.351 28.6359 156.907 29.8338C156.365 31.274 155.485 32.51 154.267 33.5445C153.349 34.3286 152.3 34.903 151.121 35.2706C149.661 35.7252 148.151 35.9512 146.596 35.9512C146.122 35.9512 145.648 35.9321 145.174 35.894C142.793 35.6817 141.458 35.0337 141.169 33.9529C140.861 32.8122 140.706 29.1069 140.706 22.8343ZM172.901 8.68502C172.969 8.66596 173.031 8.65507 173.089 8.65507C173.407 8.65507 173.68 8.94093 173.901 9.50993L182.994 33.0077C183.411 34.0804 183.871 34.9134 184.38 35.5097C184.887 36.1032 185.345 36.4734 185.751 36.6177C186.407 36.7729 187.086 36.8491 187.78 36.8491L187.955 37.0098C187.955 37.3201 187.805 37.4835 187.505 37.5025L186.301 37.576C185.045 37.6523 183.868 37.6904 182.776 37.6904C179.943 37.6904 178.507 37.5543 178.469 37.2847V36.9499C178.652 36.8056 178.856 36.7321 179.079 36.7321C179.224 36.615 179.316 36.4326 179.354 36.1794L176.369 27.9439L176.151 27.8431H168.054L167.779 28.2787L165.676 34.0613L165.401 35.2783C165.363 36.0215 165.488 36.468 165.777 36.6123L166.226 36.7865C167.174 36.7865 167.711 36.8246 167.836 36.9009C167.875 36.988 167.894 37.0697 167.894 37.1459C167.894 37.3011 167.812 37.4181 167.646 37.4944C166.458 37.4644 165.123 37.4508 163.644 37.4508C162.165 37.4508 160.555 37.4644 158.784 37.4944L158.566 37.2766L158.623 36.9009L158.999 36.7865C159.928 36.9009 160.754 36.6994 161.481 36.1767C162.031 35.7901 162.636 34.731 163.295 33.0023L172.288 9.56438C172.451 9.12878 172.656 8.83475 172.895 8.67957L172.901 8.68502ZM168.708 25.7904L168.765 25.9646H175.628L172.233 16.2808L172.015 16.4986L168.708 25.7904Z" fill="url(#paint0_linear_415_214)"/>
<path fill-rule="evenodd" clip-rule="evenodd" d="M51.0549 37.1667C47.9269 35.908 44.3698 34.9225 40.5186 34.2793H40.5152L32.2765 28.4836L21.5569 20.9452L18.9652 19.1228L29.8648 0L31.6813 3.18483L42.1449 21.5399L51.0549 37.1667ZM34.0032 33.5426C32.6468 33.4562 31.2662 33.4147 29.8648 33.4147C20.9791 33.4147 12.8788 35.1471 6.74735 38L0 9.63048L17.3978 21.8649L19.9929 23.6908L29.543 30.4062L34.0032 33.5426ZM54.9961 37.7095L62.1932 7.44158L44.7401 19.7175L54.9961 37.7095Z" fill="url(#paint1_linear_415_214)"/>
<defs>
<linearGradient id="paint0_linear_415_214" x1="196.446" y1="8.40088" x2="196.446" y2="37.6608" gradientUnits="userSpaceOnUse">
<stop stop-color="#FFE9C8"/>
<stop offset="0.479167" stop-color="#F6CC8E"/>
<stop offset="1" stop-color="#F4BD76"/>
</linearGradient>
<linearGradient id="paint1_linear_415_214" x1="31.0966" y1="0" x2="31.0966" y2="38" gradientUnits="userSpaceOnUse">
<stop stop-color="#FFE9C8"/>
<stop offset="0.479167" stop-color="#F6CC8E"/>
<stop offset="1" stop-color="#F4BD76"/>
</linearGradient>
</defs>
</svg>
