<svg width="224" height="60" viewBox="0 0 224 60" fill="none" xmlns="http://www.w3.org/2000/svg">
<g clip-path="url(#clip0_415_108)">
<path d="M72.2148 0.497668L53.6669 31.1658L39.6758 20.3819L69.2248 0.410805L69.2983 0.333964C69.7502 0.0829309 70.264 -0.0349247 70.7802 -0.00595329C71.2963 0.0230182 71.7938 0.197638 72.2148 0.497668Z" fill="white"/>
<path d="M16.189 3.04004L22.9941 29.0679L1.00528 59.5122C0.766341 59.3274 0.562648 59.1011 0.403943 58.8441C0.209697 58.5355 0.0827916 58.1894 0.0315539 57.8285C-0.0196838 57.4675 0.00589635 57.0998 0.106611 56.7494L14.542 4.83737V4.76053C14.6787 4.37329 14.8963 4.01959 15.1803 3.72294C15.4642 3.4263 15.8081 3.1935 16.189 3.04004Z" fill="white"/>
<path d="M17.8331 2.96644C18.1879 3.03696 18.521 3.19035 18.8053 3.4141L53.7396 31.0923L23.0046 29.0711L16.1895 3.03994C16.7127 2.82769 17.293 2.80174 17.8331 2.96644Z" fill="white"/>
<path d="M22.9928 29.0679L36.9805 39.0901L4.07072 59.5857C3.60496 59.8757 3.06181 60.0166 2.51381 59.9898C1.96582 59.9629 1.43907 59.7695 1.00391 59.4354L22.9928 29.0679Z" fill="white"/>
<path d="M72.2139 0.497559C72.4551 0.701016 72.6786 0.924532 72.8821 1.16571C73.2482 1.74397 73.4061 2.42985 73.3297 3.11002L64.8108 52.9341L64.4366 54.9552C64.3581 55.392 64.1739 55.803 63.9003 56.1523C63.6266 56.5017 63.2717 56.7788 62.8665 56.9597L53.666 31.0788L72.2139 0.497559Z" fill="white"/>
<path d="M22.9941 29.0679L53.7291 31.089L62.9295 56.9699C62.4409 57.2016 61.8934 57.2797 61.3594 57.1937C60.9581 57.1242 60.5758 56.9717 60.2369 56.746L22.9941 29.0679Z" fill="white"/>
<path d="M72.2148 0.497668L53.6669 31.1658L39.6758 20.3819L69.2248 0.410805L69.2983 0.333964C69.7502 0.0829309 70.264 -0.0349247 70.7802 -0.00595329C71.2963 0.0230182 71.7938 0.197638 72.2148 0.497668Z" fill="#3D9EFF"/>
<path d="M16.189 3.04004L22.9941 29.0679L1.00528 59.5122C0.766341 59.3274 0.562648 59.1011 0.403943 58.8441C0.209697 58.5355 0.0827916 58.1894 0.0315539 57.8285C-0.0196838 57.4675 0.00589635 57.0998 0.106611 56.7494L14.542 4.83737V4.76053C14.6787 4.37329 14.8963 4.01959 15.1803 3.72294C15.4642 3.4263 15.8081 3.1935 16.189 3.04004Z" fill="#0647D5"/>
<path d="M17.8331 2.96644C18.1879 3.03696 18.521 3.19035 18.8053 3.4141L53.7396 31.0923L23.0046 29.0711L16.1895 3.03994C16.7127 2.82769 17.293 2.80174 17.8331 2.96644Z" fill="#1667F6"/>
<path d="M22.9928 29.0679L36.9805 39.0901L4.07072 59.5857C3.60496 59.8757 3.06181 60.0166 2.51381 59.9898C1.96582 59.9629 1.43907 59.7695 1.00391 59.4354L22.9928 29.0679Z" fill="#002392"/>
<path d="M72.2139 0.497559C72.4551 0.701016 72.6786 0.924532 72.8821 1.16571C73.2482 1.74397 73.4061 2.42985 73.3297 3.11002L64.8108 52.9341L64.4366 54.9552C64.3581 55.392 64.1739 55.803 63.9003 56.1523C63.6266 56.5017 63.2717 56.7788 62.8665 56.9597L53.666 31.0788L72.2139 0.497559Z" fill="#2E8EFF"/>
<path d="M22.9941 29.0679L53.7291 31.089L62.9295 56.9699C62.4409 57.2016 61.8934 57.2797 61.3594 57.1937C60.9581 57.1242 60.5758 56.9717 60.2369 56.746L22.9941 29.0679Z" fill="#2179FF"/>
<path d="M112.465 18.0769V40.3664H108.426L98.7006 26.3954H98.5503V40.3831H93.8398V18.0769H97.9523L107.604 32.0747H107.828V18.0769H112.465Z" fill="white"/>
<path d="M123.831 40.6671C122.294 40.7025 120.774 40.3412 119.417 39.6181C118.184 38.9309 117.192 37.8813 116.574 36.6114C115.892 35.1988 115.558 33.6429 115.602 32.0746C115.554 30.5209 115.887 28.9791 116.574 27.5847C117.213 26.3143 118.199 25.2509 119.417 24.5178C120.704 23.7447 122.183 23.3531 123.684 23.3887C125.067 23.354 126.435 23.6897 127.646 24.3608C128.853 25.0068 129.843 25.9961 130.489 27.2038C131.22 28.6639 131.58 30.2818 131.538 31.9143V33.1871H120.179C120.179 34.4566 120.553 35.4287 121.228 36.1036C121.896 36.8519 122.798 37.1492 123.994 37.1492C124.698 37.1696 125.394 36.9888 125.999 36.6281C126.565 36.3249 126.994 35.8153 127.195 35.2049L131.458 35.5056C131.316 36.2617 131.024 36.9819 130.6 37.6238C130.176 38.2658 129.628 38.8166 128.989 39.2439C127.572 40.2161 125.925 40.6671 123.831 40.6671ZM120.156 30.2706H127.171C127.186 29.8145 127.108 29.3602 126.941 28.9356C126.774 28.5109 126.521 28.1251 126.199 27.8018C125.601 27.1337 124.776 26.8296 123.73 26.8296C123.262 26.8058 122.794 26.88 122.357 27.0474C121.919 27.2148 121.521 27.4718 121.188 27.8018C120.548 28.466 120.182 29.3481 120.166 30.2706H120.156Z" fill="white"/>
<path d="M143.431 23.6125V27.127H140.287V35.2049C140.287 35.8731 140.437 36.2539 140.738 36.4777C141.06 36.7226 141.453 36.8541 141.857 36.8519C142.082 36.8634 142.308 36.8385 142.525 36.7784C142.694 36.7202 142.872 36.6942 143.05 36.7016L143.798 40.1425C143.48 40.2418 143.155 40.3166 142.826 40.3664C142.307 40.4656 141.781 40.5159 141.253 40.5167C139.609 40.5902 138.186 40.216 137.214 39.3942C136.168 38.5724 135.717 37.3898 135.717 35.7194V27.1169H133.398V23.6025H135.717V19.5635H140.364V23.6025L143.431 23.6125Z" fill="white"/>
<path d="M160.111 28.3998L155.848 28.6236C155.721 28.0839 155.401 27.609 154.95 27.2873C154.391 26.8682 153.703 26.6567 153.005 26.6893C152.375 26.6591 151.75 26.8148 151.208 27.137C150.981 27.2421 150.789 27.4112 150.656 27.6236C150.523 27.836 150.455 28.0825 150.46 28.333C150.462 28.529 150.502 28.7227 150.58 28.9027C150.657 29.0828 150.77 29.2457 150.911 29.382C151.389 29.7473 151.957 29.978 152.554 30.0501L155.561 30.6481C158.778 31.3163 160.348 32.8196 160.422 35.1381C160.445 36.1935 160.101 37.2241 159.45 38.0546C158.762 38.9193 157.86 39.5895 156.834 39.9989C155.617 40.4641 154.321 40.6909 153.019 40.6671C150.774 40.6671 149.053 40.2161 147.707 39.2439C147.056 38.8214 146.508 38.258 146.105 37.5953C145.701 36.9325 145.452 36.1875 145.375 35.4154L149.938 35.1916C150.046 35.8222 150.395 36.3864 150.911 36.7651C151.508 37.143 152.209 37.3251 152.915 37.2862C153.593 37.3248 154.267 37.1695 154.859 36.8386C155.082 36.7267 155.269 36.5561 155.401 36.3452C155.533 36.1343 155.604 35.8913 155.608 35.6426C155.608 34.8174 154.859 34.3063 153.44 33.9956L150.536 33.4109C147.319 32.7428 145.672 31.166 145.672 28.6236C145.656 27.8762 145.825 27.1364 146.165 26.4705C146.505 25.8046 147.005 25.2335 147.62 24.8085C148.889 23.9098 150.627 23.3887 152.781 23.3887C154.873 23.3887 156.52 23.8363 157.793 24.725C158.439 25.1137 158.986 25.6486 159.389 26.2868C159.791 26.925 160.039 27.6487 160.111 28.3998Z" fill="white"/>
<path d="M166.692 40.3664L162.129 23.686H166.843L169.462 34.9076H169.609L172.302 23.686H176.942L179.708 34.8308H179.858L182.401 23.686H187.114L182.477 40.3664H177.54L174.697 29.8965H174.473L171.633 40.3664H166.692Z" fill="white"/>
<path d="M194.221 40.667C192.793 40.7042 191.395 40.2554 190.256 39.3942C189.21 38.5723 188.686 37.2995 188.686 35.6559C188.686 34.3819 188.985 33.4086 189.584 32.736C190.217 32.0314 191.013 31.4924 191.903 31.1659C192.904 30.8561 193.93 30.6326 194.969 30.4977C196.023 30.4018 197.072 30.2513 198.11 30.0467C198.708 29.8997 199.082 29.5256 199.082 29.0011V28.9276C199.098 28.6317 199.047 28.3359 198.931 28.0632C198.815 27.7904 198.638 27.5478 198.414 27.3541C197.883 26.9359 197.218 26.7235 196.543 26.7561C195.837 26.7177 195.136 26.9011 194.539 27.2806C194.069 27.5991 193.725 28.0718 193.566 28.6169L189.304 28.2427C189.593 26.7819 190.446 25.4939 191.679 24.6581C192.948 23.7672 194.593 23.3218 196.613 23.3218C197.811 23.3254 198.999 23.5275 200.131 23.9198C201.152 24.267 202.057 24.8889 202.747 25.7171C203.415 26.5389 203.722 27.6614 203.722 28.9343V40.3763H199.306V38.0579H199.159C198.744 38.8352 198.122 39.4827 197.361 39.9287C196.4 40.4526 195.315 40.7076 194.221 40.667ZM195.557 37.4498C196.008 37.4747 196.46 37.4079 196.884 37.2534C197.308 37.0989 197.697 36.86 198.026 36.5512C198.324 36.2724 198.563 35.9371 198.73 35.5648C198.897 35.1926 198.988 34.7909 198.998 34.383V32.589C198.754 32.7566 198.471 32.8589 198.177 32.8864C197.802 32.9632 197.351 33.0367 196.977 33.1102C196.609 33.1884 196.234 33.2386 195.858 33.2605C195.172 33.3549 194.51 33.5818 193.91 33.9287C193.666 34.09 193.468 34.313 193.336 34.5751C193.205 34.8372 193.145 35.1293 193.162 35.422C193.138 35.6971 193.187 35.9737 193.304 36.2237C193.422 36.4737 193.603 36.6881 193.83 36.8452C194.221 37.2995 194.819 37.4498 195.567 37.4498H195.557Z" fill="white"/>
<path d="M207.236 46.5767V23.6124H211.8V26.4553H212.024C212.27 25.9763 212.572 25.5279 212.922 25.119C213.354 24.6435 213.858 24.2388 214.416 23.9197C215.152 23.598 215.951 23.445 216.754 23.472C217.947 23.4592 219.117 23.7973 220.118 24.4442C221.217 25.1115 222.08 26.1054 222.587 27.2872C223.185 28.56 223.486 30.1302 223.486 32.0745C223.535 33.6926 223.228 35.3018 222.587 36.7883C222.059 37.9761 221.203 38.9881 220.118 39.7048C219.093 40.3623 217.895 40.7006 216.677 40.6769C215.881 40.6946 215.09 40.5408 214.359 40.2259C213.778 39.9407 213.248 39.5627 212.789 39.1068C212.439 38.6969 212.138 38.2485 211.89 37.7705H211.723V46.7438H207.236V46.5767ZM211.8 31.991C211.8 33.4843 212.097 34.6836 212.695 35.5789C212.979 36.0092 213.369 36.3584 213.828 36.5926C214.287 36.8268 214.799 36.938 215.314 36.9152C215.829 36.9383 216.341 36.8273 216.8 36.5931C217.26 36.3588 217.65 36.0094 217.933 35.5789C218.531 34.6836 218.829 33.4843 218.829 31.991C218.829 30.5678 218.531 29.3718 217.933 28.4732C217.65 28.0427 217.26 27.6933 216.8 27.459C216.341 27.2248 215.829 27.1138 215.314 27.1369C214.799 27.1141 214.287 27.2253 213.828 27.4595C213.369 27.6937 212.979 28.0429 212.695 28.4732C212.097 29.295 211.8 30.4943 211.8 31.991Z" fill="white"/>
</g>
<defs>
<clipPath id="clip0_415_108">
<rect width="223.467" height="60" fill="white"/>
</clipPath>
</defs>
</svg>
