<svg width="177" height="60" viewBox="0 0 177 60" fill="none" xmlns="http://www.w3.org/2000/svg">
<g clip-path="url(#clip0_415_89)">
<path d="M50.9802 60H30.3502C30.0711 59.9998 29.7968 59.9281 29.5534 59.7915C29.31 59.6549 29.1058 59.4581 28.9602 59.22C28.8226 58.9776 28.7502 58.7037 28.7502 58.425C28.7502 58.1463 28.8226 57.8723 28.9602 57.63L32.4902 51.38H22.7902C22.5551 51.3799 22.3241 51.318 22.1205 51.2004C21.9169 51.0828 21.7478 50.9136 21.6302 50.71C21.547 50.6273 21.4763 50.533 21.4202 50.43L17.6302 44.11L13.8902 50.37C13.7549 50.6024 13.5607 50.795 13.3272 50.9284C13.0937 51.0618 12.8291 51.1314 12.5602 51.13C12.2905 51.1293 12.0257 51.0579 11.7923 50.9227C11.5589 50.7876 11.3651 50.5936 11.2302 50.36L0.230217 31.07C0.0948202 30.8396 0.0234375 30.5772 0.0234375 30.31C0.0234375 30.0428 0.0948202 29.7804 0.230217 29.55L11.1702 11.03C11.3074 10.8023 11.5009 10.6137 11.7321 10.4823C11.9633 10.351 12.2243 10.2813 12.4902 10.28C12.7538 10.28 13.013 10.3482 13.2425 10.4778C13.472 10.6075 13.6641 10.7943 13.8002 11.02L17.3302 16.83L21.2802 10.24C21.3235 10.1654 21.3737 10.0951 21.4302 10.03L21.8602 9.27H32.6902L28.3402 1.27L29.1002 0H29.8502H51.8502L52.2402 0.660004L63.1302 19.49C63.2577 19.7168 63.3235 19.973 63.3212 20.2332C63.3189 20.4934 63.2485 20.7484 63.1171 20.9729C62.9856 21.1974 62.7976 21.3836 62.5719 21.5129C62.3461 21.6422 62.0904 21.7102 61.8302 21.71H54.1002L58.6502 29.29C58.8964 29.9339 58.8964 30.6461 58.6502 31.29L54.2102 38.89H61.6202C61.9028 38.8902 62.1803 38.9653 62.4244 39.1076C62.6686 39.2499 62.8707 39.4543 63.0102 39.7C63.1526 39.9426 63.2277 40.2187 63.2277 40.5C63.2277 40.7813 63.1526 41.0574 63.0102 41.3L52.3102 59.19C52.1744 59.4259 51.9814 59.6237 51.7489 59.7653C51.5165 59.9068 51.2521 59.9876 50.9802 60ZM31.9802 57.44H50.3802L59.9202 41.49H52.7302L47.3602 50.69C47.2364 50.8985 47.0609 51.0715 46.8507 51.1924C46.6405 51.3133 46.4027 51.3779 46.1602 51.38H35.4402L31.9802 57.44ZM36.8902 48.81H45.5202L49.7902 41.49H41.0202L36.8902 48.81ZM24.9802 48.81H33.9802L39.0902 39.73C39.2322 39.4842 39.4362 39.2799 39.6819 39.1378C39.9276 38.9956 40.2064 38.9205 40.4902 38.92H51.3402L55.6102 31.6H35.2902L24.9802 48.81ZM19.0802 41.53L22.7102 47.58L33.0602 30.32L22.7102 13.05L18.9602 19.32L25.1702 29.53C25.3101 29.7661 25.384 30.0355 25.384 30.31C25.384 30.5845 25.3101 30.8539 25.1702 31.09L19.0802 41.53ZM2.89022 30.33L12.6402 47.5L16.1102 41.55L9.84022 31.1C9.70231 30.8632 9.62966 30.594 9.62966 30.32C9.62966 30.0459 9.70231 29.7768 9.84022 29.54L15.8902 19.32L12.5602 13.84L2.89022 30.33ZM12.3902 30.33L17.6002 39.01L22.6602 30.34L17.4902 21.82L12.3902 30.33ZM35.3302 29.04H55.5602L51.1702 21.72H39.5002L39.1102 21.05L34.1102 11.84H24.9902L35.3302 29.04ZM52.6402 19.16H60.0302L50.4502 2.58H31.9802L35.6302 9.27H45.7402C46.0267 9.27102 46.308 9.34614 46.5568 9.48808C46.8057 9.63002 47.0135 9.83394 47.1602 10.08L52.6402 19.16ZM41.0602 19.16H49.6402L45.2502 11.84H37.0702L41.0602 19.16Z" fill="white"/>
<path d="M79.263 45.2499C77.8727 43.5721 77.1816 41.4236 77.333 39.2499V14.9199H82.393V39.6599C82.3143 40.5057 82.5531 41.3505 83.063 42.0299C83.5861 42.5 84.2647 42.7601 84.968 42.7601C85.6714 42.7601 86.3499 42.5 86.873 42.0299C87.3812 41.3497 87.6198 40.5055 87.543 39.6599V14.9199H92.413V39.2899C92.5697 41.4642 91.8779 43.6147 90.483 45.2899C88.9189 46.6253 86.9297 47.359 84.873 47.359C82.8164 47.359 80.8271 46.6253 79.263 45.2899V45.2499Z" fill="white"/>
<path d="M96.002 14.9199H102.352L107.272 34.0399H107.362V14.9199H111.892V46.9199H106.702L100.632 23.5999H100.542V46.9199H96.032L96.002 14.9199Z" fill="white"/>
<path d="M115.633 14.9199H120.693V46.9199H115.633V14.9199Z" fill="white"/>
<path d="M124.461 14.9199H132.191C134.698 14.9199 136.581 15.5866 137.841 16.9199C139.207 18.5659 139.884 20.6763 139.731 22.8099V38.9599C139.884 41.0936 139.207 43.204 137.841 44.8499C136.581 46.1832 134.698 46.8499 132.191 46.8499H124.461V14.9199ZM132.101 42.2999C132.452 42.3229 132.803 42.2695 133.131 42.1434C133.459 42.0174 133.756 41.8217 134.001 41.5699C134.507 40.8888 134.746 40.0454 134.671 39.1999V22.5899C134.744 21.7416 134.506 20.8957 134.001 20.2099C133.755 19.9597 133.458 19.7651 133.13 19.6392C132.802 19.5133 132.451 19.459 132.101 19.4799H129.521V42.2999H132.101Z" fill="white"/>
<path d="M143.132 14.9199H156.892V19.4799H148.192V27.9199H155.132V32.4799H148.192V42.2899H156.892V46.9199H143.092L143.132 14.9199Z" fill="white"/>
<path d="M164.381 30.5299L158.811 14.9199H164.141L167.551 25.2299H167.641L171.131 14.9199H175.891L170.321 30.5299L176.191 46.9199H170.891L167.211 35.7799H167.121L163.321 46.9199H158.531L164.381 30.5299Z" fill="white"/>
</g>
<defs>
<clipPath id="clip0_415_89">
<rect width="176.09" height="60" fill="white" transform="translate(0.101562)"/>
</clipPath>
</defs>
</svg>
