<svg width="123" height="44" viewBox="0 0 123 44" fill="none" xmlns="http://www.w3.org/2000/svg">
<path d="M44.0407 22C44.0407 17.6488 42.7492 13.3953 40.3296 9.77746C37.9099 6.15958 34.4708 3.33979 30.4471 1.67466C26.4235 0.00953293 21.9959 -0.426141 17.7244 0.422733C13.4529 1.27161 9.5292 3.36691 6.4496 6.44366C3.37 9.52041 1.27279 13.4404 0.423126 17.708C-0.426533 21.9756 0.00953613 26.3991 1.6762 30.419C3.34287 34.439 6.16527 37.8749 9.78649 40.2923C13.4077 42.7097 17.6651 44 22.0203 44C27.8605 44 33.4614 41.6821 37.591 37.5564C41.7207 33.4305 44.0407 27.8348 44.0407 22Z" fill="#00D2FF"/>
<path d="M36.8728 20.9077C36.4065 20.5556 35.9212 20.2291 35.4191 19.9297C35.2053 19.7956 35.0072 19.6381 34.8283 19.4603C34.4532 19.0886 33.8256 18.4431 33.6221 18.0446C33.4922 17.8001 33.5462 17.3306 33.6467 16.8954C33.8246 16.1278 33.6915 15.3212 33.2765 14.6508L32.6219 13.5921C32.3214 13.1089 32.0795 12.5918 31.9012 12.0517C31.6767 11.3571 31.2844 10.7282 30.7588 10.2204C29.6973 9.18611 26.7604 8.67754 24.3211 8.59685C24.1698 8.55182 24.0159 8.51589 23.8603 8.48926C22.7742 8.30344 21.6147 8.00025 20.5752 8.1983C19.0308 8.48682 17.4716 8.9685 16.3047 10.1544C16.0595 10.3989 15.7041 10.5089 15.4516 10.7363C14.9613 11.1886 14.2724 11.1886 13.8262 11.6899C13.5664 11.9808 13.4463 12.9368 12.7623 13.3011C11.6297 13.9051 10.8011 14.5726 10.5192 14.9124C10.3108 15.1692 10.1514 15.4675 9.94796 15.7291C9.74449 15.9907 8.76879 16.4504 8.47706 16.734C8.26059 16.9733 8.10346 17.2598 8.0183 17.5707C7.93314 17.8816 7.92233 18.208 7.98676 18.5238C8.00392 18.5996 8.01619 18.6607 8.02599 18.7096C8.13876 19.1253 8.44027 19.8759 8.37163 20.2207C8.28828 20.629 7.23659 23.6707 9.59738 24.48C9.81338 24.5445 10.0029 24.6765 10.138 24.8565C10.273 25.0366 10.3465 25.2551 10.3476 25.48C10.3985 25.886 10.5161 26.2809 10.6957 26.6488C10.8526 26.9468 11.0839 27.1995 11.3674 27.3823C11.6697 27.669 11.9554 27.9727 12.223 28.2918C13.0565 29.8298 12.8211 30.6 14.4293 31.1208C14.8397 31.2557 15.2335 31.4362 15.6036 31.6587C16.0546 31.93 16.5381 32.1436 17.0426 32.2944L17.1063 32.3164C17.4594 31.4606 17.8197 30.6513 18.1777 29.886C15.3045 26.9519 16.0596 23.6535 16.3366 22.7733C16.3446 22.7472 16.359 22.7235 16.3785 22.7044C16.398 22.6853 16.422 22.6713 16.4483 22.6638C16.4746 22.6562 16.5024 22.6554 16.5291 22.6613C16.5559 22.6672 16.5807 22.6796 16.6014 22.6975C17.2044 23.2257 19.0528 25.1255 18.8249 28.5657C19.4573 27.3016 20.0751 26.1915 20.639 25.2428C19.9603 24.131 19.5979 22.8558 19.5905 21.5541C19.5832 20.2524 19.9312 18.9733 20.5973 17.8539C20.612 17.8301 20.6326 17.8105 20.657 17.7969C20.6815 17.7833 20.709 17.7761 20.737 17.7761C20.765 17.7761 20.7926 17.7833 20.817 17.7969C20.8415 17.8105 20.862 17.8301 20.8768 17.8539C21.3009 18.4798 22.4482 20.5434 21.7372 23.4775C22.2521 22.6902 22.6713 22.1083 22.9458 21.744C23.6813 16.8538 27.388 15.2499 28.3612 14.91C28.3873 14.9008 28.4154 14.8983 28.4427 14.9028C28.47 14.9073 28.4958 14.9186 28.5175 14.9357C28.5393 14.9528 28.5564 14.975 28.5672 15.0005C28.578 15.0259 28.5822 15.0537 28.5794 15.0812C28.4247 16.5704 27.8782 17.9924 26.9953 19.2032C26.1123 20.4141 24.9242 21.3707 23.5514 21.9762C23.0341 22.6535 22.5365 23.3675 22.0609 24.0986C23.7034 22.8198 26.0029 22.2183 27.9151 22.6804C27.9419 22.6865 27.9667 22.6992 27.9874 22.7172C28.0081 22.7353 28.0241 22.7581 28.0338 22.7838C28.0435 22.8094 28.0467 22.8371 28.043 22.8643C28.0394 22.8915 28.0292 22.9173 28.0131 22.9396C27.464 23.6731 25.2772 26.1182 21.1489 25.5534C20.4526 26.7246 19.8153 27.908 19.249 29.0425C21.0288 27.7001 23.6274 27.1867 25.6425 27.8615C25.6694 27.8701 25.6937 27.8854 25.7132 27.9058C25.7327 27.9262 25.7468 27.9512 25.7541 27.9784C25.7614 28.0057 25.7617 28.0343 25.7551 28.0617C25.7484 28.0891 25.735 28.1145 25.716 28.1354C25.0909 28.8077 22.6811 31.0132 18.717 30.1379C18.3444 30.9203 17.7903 32.2088 17.5207 32.8445C17.4275 33.0646 17.3417 33.2847 17.2755 33.5096C17.099 34.028 16.8636 34.6759 16.5817 35.3214C16.5426 35.4137 16.5228 35.513 16.5236 35.6132C16.5244 35.7134 16.5458 35.8124 16.5865 35.9041C16.6272 35.9957 16.6862 36.0781 16.76 36.1461C16.8338 36.2141 16.9208 36.2663 17.0156 36.2994C20.1423 37.4139 23.5375 37.5394 26.7383 36.6588C26.8441 36.6287 26.9417 36.5752 27.024 36.5025C27.1063 36.4297 27.1712 36.3394 27.2139 36.2383L27.3463 35.9302C27.3463 35.9302 28.7289 32.7296 28.9324 31.3335C28.9905 30.8938 29.1275 30.468 29.3369 30.0767C29.4448 29.881 29.6009 29.7159 29.7905 29.597C29.98 29.478 30.1969 29.4092 30.4205 29.397C31.4746 29.3408 33.7178 29.1941 34.5341 28.9349C35.6177 28.5926 35.147 26.6219 35.0906 26.4091C35.0342 26.1964 35.6128 25.7025 35.7305 25.4164C35.8481 25.1304 35.4387 25.0277 35.2696 24.7123C35.1004 24.3969 35.6888 24.167 35.7599 23.8809C35.831 23.5949 35.5687 23.2795 35.4559 23.0667C35.3809 22.9123 35.3297 22.7474 35.3039 22.5777C35.3039 22.5777 36.0957 21.9982 36.5296 21.6339C36.9635 21.2696 36.8728 20.9664 36.8728 20.9004" fill="black"/>
<path d="M66.063 29.3986V20.5827L62.882 27.0021H61.0174L57.8363 20.5827V29.3986H54.4375V14.6013H58.1275L61.9398 22.3346L65.7742 14.6013H69.4447V29.3986H66.063Z" fill="white"/>
<path d="M84.7467 26.3969V29.3986H74.3496V14.6013H84.5598V17.6031H77.7661V20.4794H83.6005V23.2499H77.7661V26.3969H84.7467Z" fill="white"/>
<path d="M100.146 17.6031H95.677V29.3986H92.2781V17.6031H87.7871V14.6013H100.141L100.146 17.6031Z" fill="white"/>
<path d="M103.873 29.3986V14.6013H107.306V29.3986H103.873Z" fill="white"/>
<path d="M121.067 18.9481C120.943 18.813 120.794 18.7029 120.628 18.6234C120.325 18.45 120.011 18.294 119.689 18.1561C119.29 17.9805 118.878 17.8342 118.457 17.7183C118.023 17.5947 117.573 17.5317 117.121 17.5314C116.65 17.5039 116.181 17.6078 115.766 17.8315C115.608 17.9254 115.478 18.0607 115.391 18.2228C115.304 18.385 115.263 18.5677 115.273 18.7513C115.267 18.9016 115.297 19.0511 115.36 19.1876C115.424 19.324 115.519 19.4434 115.638 19.5359C115.956 19.7668 116.313 19.9392 116.693 20.045C117.151 20.1901 117.715 20.3573 118.383 20.5516C119.234 20.7651 120.06 21.0668 120.848 21.4518C121.489 21.7563 122.039 22.2236 122.442 22.807C122.841 23.4663 123.034 24.2292 122.997 24.9984C123.019 25.7254 122.862 26.4468 122.538 27.0988C122.247 27.6547 121.824 28.131 121.306 28.4859C120.762 28.8462 120.156 29.1053 119.519 29.2508C118.843 29.4126 118.15 29.4951 117.454 29.4967C116.71 29.4947 115.967 29.4222 115.236 29.2803C114.491 29.1381 113.761 28.9282 113.055 28.6531C112.381 28.3953 111.736 28.0654 111.133 27.6693L112.636 24.6909C112.801 24.84 112.983 24.9695 113.178 25.0771C113.546 25.2945 113.926 25.4891 114.317 25.66C114.807 25.8749 115.313 26.0525 115.83 26.1912C116.381 26.3428 116.949 26.4197 117.521 26.4199C117.994 26.4514 118.467 26.3528 118.888 26.1346C119.028 26.0543 119.143 25.9379 119.222 25.7976C119.301 25.6574 119.341 25.4986 119.337 25.3378C119.342 25.1647 119.302 24.9933 119.22 24.8409C119.138 24.6885 119.016 24.5604 118.869 24.4696C118.472 24.2246 118.043 24.0359 117.595 23.9088C117.057 23.744 116.444 23.5571 115.746 23.3505C114.966 23.1251 114.214 22.8124 113.504 22.4184C112.961 22.1196 112.507 21.6836 112.188 21.1542C111.884 20.581 111.737 19.938 111.761 19.2899C111.73 18.3608 111.989 17.4448 112.501 16.6681C113 15.9534 113.691 15.3934 114.494 15.0523C115.358 14.6805 116.29 14.4937 117.23 14.5038C117.909 14.5003 118.585 14.5829 119.243 14.7498C119.865 14.9062 120.473 15.1152 121.06 15.3745C121.624 15.6204 122.127 15.8664 122.573 16.1246L121.067 18.9481Z" fill="white"/>
</svg>
