<svg width="37" height="37" viewBox="0 0 37 37" fill="none" xmlns="http://www.w3.org/2000/svg">
<path d="M37 18.5C37 14.841 35.915 11.2643 33.8822 8.22196C31.8494 5.17965 28.9601 2.80846 25.5796 1.40824C22.1992 0.00801633 18.4795 -0.358346 14.8908 0.35548C11.3022 1.06931 8.00579 2.83126 5.41852 5.41853C2.83125 8.0058 1.06931 11.3022 0.355482 14.8908C-0.358344 18.4795 0.00801161 22.1992 1.40823 25.5796C2.80845 28.9601 5.17964 31.8494 8.22195 33.8822C11.2643 35.915 14.841 37 18.5 37C23.4065 37 28.112 35.0509 31.5815 31.5815C35.0509 28.1121 37 23.4065 37 18.5Z" fill="#00D2FF"/>
<path d="M30.9935 17.5336C30.6066 17.2432 30.2041 16.974 29.7877 16.7271C29.6104 16.6165 29.446 16.4867 29.2976 16.34C28.9865 16.0336 28.466 15.5013 28.2972 15.1726C28.1895 14.971 28.2342 14.5839 28.3176 14.225C28.4651 13.592 28.3548 12.9269 28.0105 12.3741L27.4676 11.5011C27.2184 11.1026 27.0177 10.6762 26.8698 10.2309C26.6836 9.65805 26.3582 9.13944 25.9223 8.72072C25.0418 7.86785 22.6059 7.44848 20.5827 7.38194C20.4571 7.34481 20.3295 7.31519 20.2004 7.29323C19.2996 7.14 18.3378 6.88998 17.4757 7.0533C16.1947 7.29121 14.9014 7.68841 13.9336 8.66628C13.7302 8.8679 13.4354 8.95863 13.226 9.14614C12.8193 9.51914 12.2479 9.51914 11.8778 9.93247C11.6623 10.1724 11.5627 10.9607 10.9954 11.2612C10.0559 11.7592 9.36867 12.3096 9.13483 12.5898C8.96199 12.8015 8.82984 13.0475 8.66107 13.2633C8.4923 13.479 7.68302 13.8581 7.44105 14.0919C7.2615 14.2892 7.13117 14.5255 7.06054 14.7819C6.98991 15.0382 6.98094 15.3074 7.03438 15.5678C7.04861 15.6303 7.05878 15.6807 7.06692 15.721C7.16045 16.0638 7.41054 16.6828 7.3536 16.9671C7.28447 17.3038 6.41216 19.812 8.37028 20.4793C8.54944 20.5325 8.70663 20.6413 8.81866 20.7898C8.93069 20.9383 8.99164 21.1185 8.9925 21.304C9.03477 21.6387 9.13233 21.9644 9.28125 22.2677C9.41138 22.5135 9.60328 22.7219 9.83839 22.8726C10.0891 23.109 10.3261 23.3594 10.548 23.6226C11.2394 24.8908 11.0442 25.5259 12.3781 25.9554C12.7184 26.0667 13.0451 26.2155 13.352 26.399C13.7261 26.6227 14.1271 26.7988 14.5456 26.9232L14.5985 26.9413C14.8913 26.2356 15.1902 25.5683 15.487 24.9372C13.1039 22.5177 13.7302 19.7978 13.96 19.072C13.9666 19.0505 13.9786 19.0309 13.9948 19.0152C14.011 18.9994 14.0309 18.9879 14.0527 18.9817C14.0745 18.9754 14.0976 18.9747 14.1197 18.9796C14.1419 18.9845 14.1625 18.9947 14.1796 19.0095C14.6798 19.445 16.213 21.0116 16.0239 23.8484C16.5485 22.806 17.0609 21.8907 17.5286 21.1084C16.9656 20.1915 16.665 19.14 16.6589 18.0666C16.6528 16.9932 16.9415 15.9385 17.494 15.0154C17.5062 14.9958 17.5233 14.9796 17.5435 14.9684C17.5638 14.9572 17.5867 14.9513 17.6099 14.9513C17.6331 14.9513 17.656 14.9572 17.6762 14.9684C17.6965 14.9796 17.7136 14.9958 17.7258 15.0154C18.0776 15.5315 19.0292 17.2332 18.4395 19.6527C18.8665 19.0035 19.2142 18.5236 19.442 18.2232C20.052 14.1907 23.1264 12.8681 23.9336 12.5878C23.9553 12.5802 23.9786 12.5782 24.0012 12.5819C24.0239 12.5856 24.0452 12.5949 24.0633 12.609C24.0814 12.6231 24.0955 12.6415 24.1045 12.6624C24.1135 12.6834 24.117 12.7063 24.1146 12.729C23.9863 13.957 23.533 15.1296 22.8007 16.1281C22.0683 17.1265 21.0829 17.9154 19.9442 18.4147C19.5151 18.9732 19.1024 19.5619 18.7079 20.1648C20.0703 19.1103 21.9776 18.6143 23.5636 18.9954C23.5858 19.0004 23.6064 19.0109 23.6236 19.0257C23.6408 19.0406 23.654 19.0595 23.662 19.0806C23.6701 19.1018 23.6727 19.1246 23.6697 19.147C23.6667 19.1694 23.6582 19.1908 23.6449 19.2091C23.1894 19.814 21.3757 21.8302 17.9515 21.3645C17.374 22.3302 16.8453 23.3061 16.3756 24.2416C17.8518 23.1347 20.0072 22.7113 21.6786 23.2678C21.701 23.2749 21.7211 23.2874 21.7373 23.3043C21.7535 23.3211 21.7651 23.3417 21.7712 23.3642C21.7773 23.3867 21.7775 23.4103 21.772 23.4329C21.7665 23.4555 21.7554 23.4764 21.7396 23.4936C21.2211 24.048 19.2223 25.8667 15.9344 25.1449C15.6253 25.7901 15.1658 26.8526 14.9421 27.3768C14.8649 27.5583 14.7937 27.7397 14.7388 27.9252C14.5924 28.3527 14.3972 28.887 14.1633 29.4193C14.1309 29.4954 14.1144 29.5773 14.1151 29.6599C14.1158 29.7425 14.1336 29.8242 14.1673 29.8997C14.201 29.9753 14.25 30.0432 14.3112 30.0993C14.3724 30.1554 14.4446 30.1984 14.5232 30.2258C17.1166 31.1448 19.9327 31.2483 22.5876 30.5221C22.6753 30.4973 22.7563 30.4532 22.8245 30.3932C22.8928 30.3332 22.9466 30.2587 22.982 30.1753L23.0918 29.9213C23.0918 29.9213 24.2386 27.2821 24.4074 26.1308C24.4556 25.7682 24.5692 25.4171 24.7429 25.0945C24.8324 24.9331 24.9619 24.7969 25.1191 24.6988C25.2763 24.6008 25.4562 24.544 25.6417 24.534C26.516 24.4876 28.3765 24.3666 29.0537 24.1529C29.9524 23.8706 29.562 22.2455 29.5152 22.0701C29.4684 21.8947 29.9483 21.4874 30.0459 21.2515C30.1435 21.0156 29.804 20.931 29.6637 20.6709C29.5234 20.4108 30.0114 20.2213 30.0703 19.9854C30.1293 19.7495 29.9117 19.4894 29.8182 19.314C29.756 19.1866 29.7135 19.0506 29.6921 18.9107C29.6921 18.9107 30.3489 18.4329 30.7088 18.1324C31.0687 17.832 30.9935 17.582 30.9935 17.5276" fill="black"/>
</svg>
