<svg width="213" height="56" viewBox="0 0 213 56" fill="none" xmlns="http://www.w3.org/2000/svg">
<mask id="mask0_260_1176" style="mask-type:luminance" maskUnits="userSpaceOnUse" x="0" y="0" width="213" height="56">
<path d="M212.06 0H0.940002V56H212.06V0Z" fill="white"/>
</mask>
<g mask="url(#mask0_260_1176)">
<path d="M90.9421 20.5975C90.9421 20.8075 90.6796 21.1575 90.2771 20.4925C89.8746 19.8275 86.9871 15.2425 85.9196 13.9125C84.6596 12.39 83.7846 11.62 82.8221 11.62C82.759 11.6037 82.6927 11.6037 82.6296 11.62C82.6296 11.62 82.4721 11.725 82.4196 11.83C82.2859 12.0054 82.2178 12.2221 82.2271 12.4425C82.1221 13.195 82.0696 26.635 82.1221 34.8425C82.1221 37.275 82.1221 38.99 82.1221 39.795C82.1218 40.984 82.3108 42.1655 82.6821 43.295C82.8094 43.999 83.2045 44.6263 83.7846 45.045C83.831 45.045 83.8755 45.0634 83.9083 45.0963C83.9412 45.1291 83.9596 45.1736 83.9596 45.22C83.9596 45.2664 83.9412 45.3109 83.9083 45.3437C83.8755 45.3766 83.831 45.395 83.7846 45.395H83.5921C83.5921 45.395 81.9646 45.395 79.7421 45.395H74.6671C74.2646 45.395 74.2646 45.0975 74.4746 44.94C75.0614 44.4 75.4652 43.6904 75.6296 42.91C75.8942 41.8511 76.0294 40.764 76.0321 39.6725C76.0321 38.4475 76.1371 37.345 76.1371 35.2625C76.1371 30.6075 76.1371 23.905 76.1371 15.645C76.1371 12.5125 75.9446 11.55 74.8771 11.6025C73.8096 11.655 73.0046 12.4075 71.7271 13.93C70.6596 15.19 67.7196 19.8625 67.3696 20.51C67.0196 21.1575 66.7221 20.825 66.7221 20.615C66.7221 19.95 66.9146 18.865 67.0196 18.2875C67.2296 16.66 67.4221 12.145 67.6321 10.43C67.6321 9.975 67.8246 9.87 68.1921 9.9225C69.5445 10.1718 70.913 10.3238 72.2871 10.3775C74.1596 10.4825 79.2871 10.3775 82.4721 10.3775H82.7871C83.8371 10.3775 84.7471 10.3775 85.3071 10.3775C87.4946 10.2725 88.8071 10.0275 89.4196 9.975C90.0321 9.9225 89.9271 9.975 89.9796 10.4825C90.1196 12.2325 90.3821 16.7125 90.5746 18.34C90.6796 18.8825 90.7846 19.9325 90.9421 20.5975Z" fill="white"/>
<path d="M113.235 35.4375C112.707 38.6595 112.35 41.9075 112.168 45.1675C112.168 45.3775 112.168 45.43 111.66 45.43H102.91C99.7604 45.535 97.7829 45.43 95.2104 45.43H93.8279C93.7868 45.4631 93.7391 45.487 93.6879 45.5C93.2329 45.5 93.1804 45.0975 93.6879 44.73C95.0529 42.4025 94.9479 37.59 95.0529 33.5825C95.0529 30.3975 95.0529 23.5025 95.0529 23.5025V21.7525C95.0638 19.3475 94.9118 16.9445 94.5979 14.56C94.5979 14.35 94.5979 14.14 94.4929 14V13.8075C94.3335 12.6712 93.9011 11.5904 93.2329 10.6575C93.2329 10.6575 93.2329 10.5175 93.2329 10.465V10.5C93.2329 10.3425 93.4429 10.3425 95.3154 10.3425H95.7179C98.4129 10.3425 100.793 10.3425 103.225 10.3425C104.695 10.3425 107.075 10.3425 109.298 10.2025L110.925 10.045C111.18 10.0145 111.432 9.96181 111.678 9.8875C111.993 9.8875 112.08 9.7825 112.238 9.8875C112.395 9.9925 112.343 10.9025 112.448 12.32C112.64 15.2075 112.693 16.5375 112.85 18.6025C112.85 19.2675 112.99 19.9325 112.99 20.58C112.99 20.7375 112.99 20.895 112.903 20.895H112.798C112.08 20.895 110.768 17.395 108.545 15.015C105.448 11.725 102.158 11.305 101.545 11.6725C101.41 11.7562 101.301 11.8758 101.23 12.018C101.159 12.1601 101.129 12.3192 101.143 12.4775C100.985 13.65 100.933 18.865 100.985 25.1475C100.985 25.2532 101.014 25.3569 101.07 25.4468C101.125 25.5366 101.205 25.6088 101.3 25.655C102.316 25.7796 103.342 25.5309 104.188 24.955L105.01 24.5C106.029 23.8742 106.853 22.9775 107.39 21.91C107.495 21.56 107.95 21.455 107.95 22.12C107.95 24.605 108.09 27.2825 108.248 29.12L108.598 31.9025C108.624 32.0045 108.619 32.1117 108.585 32.2111C108.551 32.3105 108.488 32.3978 108.405 32.4625C108.3 32.4625 108.143 32.4625 107.985 32.165C107.425 31.0917 106.671 30.1307 105.763 29.33C104.791 28.3516 103.587 27.6352 102.263 27.2475C101.458 27.09 100.898 27.2475 100.898 28.0525C100.898 34.7025 100.898 37.9925 101.003 39.5675C101.003 39.76 101.003 40.075 101.003 40.3725C101.003 41.125 101.003 41.7375 101.003 42.1225C101.003 43.085 101.353 43.8725 102.07 44.1C102.789 44.1633 103.512 44.0745 104.193 43.8392C104.875 43.604 105.499 43.2278 106.025 42.735C109.525 39.55 112.168 33.8625 113.235 33.985C113.585 34.02 113.34 34.7375 113.235 35.4375Z" fill="white"/>
<path d="M139.277 20.5975C139.277 20.8075 139.032 21.1575 138.63 20.4925C138.227 19.8275 135.322 15.2425 134.255 13.9125C132.995 12.39 132.137 11.62 131.175 11.62C131.106 11.6014 131.034 11.6014 130.965 11.62C130.965 11.62 130.825 11.725 130.772 11.83C130.627 11.9998 130.552 12.219 130.562 12.4425C130.475 13.195 130.422 26.635 130.475 34.8425C130.475 37.275 130.475 38.99 130.475 39.795C130.475 40.984 130.664 42.1655 131.035 43.295C131.175 43.9984 131.575 44.6232 132.155 45.045C132.201 45.045 132.246 45.0634 132.279 45.0963C132.312 45.1291 132.33 45.1736 132.33 45.22C132.33 45.2664 132.312 45.3109 132.279 45.3438C132.246 45.3766 132.201 45.395 132.155 45.395H131.945C131.945 45.395 130.335 45.395 128.095 45.395H123.072C122.652 45.395 122.652 45.0975 122.862 44.94C123.455 44.4017 123.865 43.6921 124.035 42.91C124.3 41.8511 124.435 40.764 124.437 39.6725C124.437 38.4475 124.525 37.345 124.525 35.2625C124.525 30.59 124.525 23.905 124.525 15.645C124.525 12.5125 124.315 11.55 123.247 11.6025C122.18 11.655 121.34 12.39 120.08 14C119.012 15.26 116.072 19.9325 115.722 20.58C115.372 21.2275 115.057 20.895 115.057 20.685C115.162 20.02 115.267 18.935 115.355 18.3575C115.565 16.73 115.775 12.215 115.967 10.5C115.967 10.045 116.177 9.94001 116.527 9.99251C117.886 10.2413 119.26 10.3933 120.64 10.4475C122.512 10.5525 127.64 10.4475 130.825 10.4475H131.122C132.19 10.4475 133.1 10.4475 133.66 10.4475C135.83 10.3425 137.16 10.0975 137.755 10.045C138.35 9.99251 138.262 10.045 138.315 10.5525C138.472 12.3025 138.717 16.7825 138.927 18.41C139.085 18.8825 139.19 19.9325 139.277 20.5975Z" fill="white"/>
<path d="M164.004 45.5C163.252 45.5 161.432 45.5 161.064 45.5H157.022C155.744 45.5 155.744 45.5 155.657 45.29C155.342 44.73 157.022 44.38 157.022 41.2825V36.8725C157.022 35.945 157.022 34.895 157.022 33.67V28.245C157.017 28.0979 156.957 27.958 156.853 27.8539C156.749 27.7498 156.609 27.6894 156.462 27.685H149.357C149.211 27.6895 149.073 27.7505 148.972 27.8551C148.871 27.9596 148.814 28.0995 148.814 28.245V33.25C148.814 34.0025 148.814 34.825 148.814 35.63C148.814 37.38 149.059 39.4275 149.217 41.1075C149.672 45.01 150.687 44.6075 150.634 45.0975C150.582 45.5875 150.739 45.3075 148.762 45.3075H142.217C141.814 45.3075 141.569 45.0625 142.112 44.6425C142.639 43.7487 142.94 42.7393 142.987 41.7025V32.0775C142.987 29.19 142.987 25.69 142.987 21.7875V16.9575C142.987 16.0825 142.829 15.2075 142.777 14.42C142.322 10.5175 141.307 10.92 141.412 10.4125C141.517 9.90499 141.412 10.255 143.039 10.2025H143.582C145.052 10.2025 146.889 10.2025 148.604 10.2025H149.969C150.372 10.2025 150.634 10.465 150.074 10.8675C149.322 11.6725 148.919 15.3825 148.814 19.3375C148.814 20.195 148.814 21.0875 148.814 21.91V25.41C148.819 25.6221 148.905 25.8243 149.055 25.9743C149.205 26.1243 149.407 26.2105 149.619 26.215H156.514C156.663 26.215 156.805 26.156 156.91 26.051C157.015 25.9459 157.074 25.8035 157.074 25.655V20.3525C157.074 19.075 157.074 17.955 157.074 17.045C156.689 14 156.357 11.62 155.744 11.025C155.132 10.43 155.447 10.3075 155.902 10.255H158.439H162.744C164.267 10.255 164.057 10.255 164.109 10.465C164.162 10.675 163.199 10.57 162.849 14.4725C162.849 14.77 162.849 15.015 162.849 15.33C162.692 16.8525 162.849 18.515 162.849 19.9325C162.692 27.09 163.007 39.1825 163.007 39.1825C162.997 41.0529 163.41 42.9014 164.214 44.59C164.617 45.22 164.424 45.5 164.004 45.5Z" fill="white"/>
<path d="M190.814 10.6575C190.203 11.1015 189.619 11.5806 189.064 12.0925C187.907 13.3351 187.014 14.7997 186.439 16.3975L181.189 29.8725C181.189 35.595 181.189 38.3775 181.294 39.76C181.434 41.685 182.152 44.4675 183.219 45.01C183.464 45.15 183.377 45.465 183.062 45.465H173.944C173.489 45.465 173.489 45.255 173.734 45.01C174.802 43.3953 175.407 41.5192 175.484 39.585C175.589 38.1675 175.589 35.175 175.589 29.3475C175.589 29.3475 170.619 18.095 170.339 17.5875C169.272 15.015 167.399 11.2525 166.384 10.9025C166.034 10.745 165.684 10.3425 166.384 10.3425L170.899 10.5L176.062 10.395C176.062 10.395 176.272 10.395 176.324 10.395C176.377 10.395 176.622 10.64 176.219 10.85C174.749 11.515 175.572 14.7 176.377 16.5725L180.279 27.0725C180.384 27.3175 180.472 27.475 180.629 27.0725L184.374 16.6775C184.995 15.1452 185.069 13.4456 184.584 11.865C184.382 11.449 184.089 11.0841 183.727 10.7975C183.622 10.7975 183.412 10.5 183.727 10.395H186.614H190.762C191.129 10.2025 191.164 10.6225 190.814 10.6575Z" fill="white"/>
<path d="M212.252 37.3275C212.202 39.4672 211.369 41.5144 209.912 43.0817C208.454 44.649 206.473 45.6276 204.342 45.8325C200.379 46.1873 196.387 45.686 192.635 44.3625C192.232 44.205 192.232 43.96 192.39 43.61C193.258 40.0019 193.901 36.3431 194.315 32.655C194.315 32.3575 194.77 32.1475 194.98 32.655C195.68 34.895 197.71 44.31 202.522 44.31C205.917 44.31 206.635 40.81 206.022 38.3775C204.85 34.125 199.582 30.6775 195.732 26.635C193.16 23.94 191.882 21.56 192.232 18.0075C192.74 12.7575 196.992 9.15251 202.925 9.55501C205.565 9.67996 208.154 10.3346 210.537 11.48C210.537 11.48 210.625 11.6725 210.537 11.935C209.662 15.33 209.207 19.425 208.962 20.1425C208.962 20.3525 208.56 20.3525 208.507 20.1425C208.297 19.4775 205.567 11.8825 201.857 11.1125C197.36 10.15 196.397 15.9425 198.567 19.18C200.195 21.665 203.432 23.5375 207.44 27.4925C211.447 31.4475 212.357 33.985 212.252 37.3275Z" fill="white"/>
<path d="M28.9391 56C34.477 56 39.8905 54.3578 44.4951 51.2812C49.0997 48.2045 52.6885 43.8315 54.8078 38.7151C56.927 33.5988 57.4815 27.969 56.4011 22.5375C55.3207 17.106 52.654 12.1169 48.7381 8.20102C44.8223 4.28515 39.8331 1.61841 34.4017 0.538025C28.9702 -0.542361 23.3403 0.0121319 18.224 2.13139C13.1077 4.25064 8.73468 7.83947 5.658 12.444C2.58132 17.0486 0.939148 22.4621 0.939148 28C0.939148 35.4261 3.88914 42.548 9.14016 47.799C14.3912 53.05 21.5131 56 28.9391 56Z" fill="#CCB175"/>
<path d="M46.4393 32.6025L48.9243 31.36C49.0205 31.306 49.1037 31.2314 49.1679 31.1416C49.2321 31.0518 49.2758 30.949 49.2958 30.8405C49.3159 30.7319 49.3118 30.6203 49.2839 30.5135C49.2559 30.4067 49.2049 30.3073 49.1343 30.2225L46.0193 22.61C45.5707 21.4913 45.2934 20.3114 45.1968 19.11C44.8953 15.4259 43.5832 11.8964 41.405 8.90996C39.2268 5.92351 36.2669 3.5959 32.8511 2.18332C29.4352 0.770733 25.6959 0.327937 22.0446 0.903665C18.3933 1.47939 14.9716 3.05132 12.1562 5.44644C9.34071 7.84157 7.24063 10.967 6.08705 14.4788C4.93348 17.9906 4.77115 21.7526 5.61792 25.3507C6.46469 28.9488 8.28774 32.2435 10.8864 34.8723C13.4851 37.501 16.7586 39.3619 20.3468 40.25L19.3143 40.8275L12.5418 56H31.0218L35.5718 46.0075C35.8301 45.4549 36.2485 44.9926 36.7727 44.6805C37.2969 44.3685 37.9028 44.2211 38.5117 44.2575L42.7118 44.6075C43.0367 44.638 43.3645 44.5983 43.6727 44.491C43.981 44.3836 44.2625 44.2113 44.4982 43.9855C44.734 43.7597 44.9184 43.4859 45.0389 43.1825C45.1594 42.8792 45.2132 42.5535 45.1968 42.2275V40.88C45.1931 39.9652 45.461 39.0698 45.9668 38.3075V38.045C45.9592 37.7854 45.8631 37.5363 45.6944 37.3389C45.5256 37.1415 45.2945 37.0078 45.0393 36.96C44.0069 36.7974 43.0286 36.3893 42.1868 35.77C43.4352 35.7546 44.6809 35.6493 45.9143 35.455C46.0521 35.438 46.185 35.3933 46.3052 35.3237C46.4254 35.254 46.5302 35.1609 46.6136 35.0498C46.6969 34.9387 46.757 34.8119 46.7901 34.6771C46.8233 34.5422 46.829 34.4021 46.8068 34.265L46.4393 32.6025Z" fill="white"/>
<path d="M25.5788 40.74L33.5413 24.0625C39.4388 23.135 43.1313 11.69 42.7638 11.025C42.0194 9.60381 41.0766 8.29572 39.9638 7.13999C38.0966 5.0175 35.7849 3.3323 33.1928 2.20415C30.6008 1.07599 27.7921 0.532568 24.9663 0.612494C21.0403 0.659982 17.2143 1.85786 13.9622 4.05783C10.7101 6.2578 8.17462 9.36325 6.66965 12.9897C5.16468 16.6162 4.75633 20.6044 5.49514 24.4606C6.23396 28.3168 8.08751 31.8716 10.8263 34.685C8.10319 34.869 5.55586 36.0958 3.71425 38.1101C1.87263 40.1245 0.878551 42.7713 0.938806 45.5C0.999766 47.886 1.85858 50.1827 3.37807 52.0233C4.89756 53.864 6.99006 55.1423 9.32132 55.654C11.6526 56.1658 14.0881 55.8816 16.2389 54.8467C18.3896 53.8118 20.1315 52.086 21.1863 49.945C21.1863 49.945 21.1863 49.84 21.1863 49.7875L25.5788 40.74Z" fill="#0000AE"/>
<path d="M31.266 5.74001C29.9758 10.6951 27.4673 15.249 23.9685 18.9875L30.9685 15.4875C27.8535 22.3825 22.831 27.7375 16.7235 29.785L22.7785 29.575C20.6418 31.833 17.8916 33.417 14.8663 34.1321C11.841 34.8472 8.67256 34.6623 5.75101 33.6C5.21935 33.3507 4.75894 32.9717 4.4122 32.4978C4.06546 32.0239 3.84352 31.4704 3.76683 30.8882C3.69013 30.306 3.76115 29.7139 3.97333 29.1664C4.18551 28.6188 4.53204 28.1335 4.98101 27.755L31.266 5.74001Z" fill="white"/>
<path d="M42.3435 25.7775C43.026 25.7775 43.586 24.85 43.586 23.7125C43.586 22.575 43.026 21.63 42.3435 21.63C41.661 21.63 41.101 22.5575 41.101 23.7125C41.101 24.8675 41.661 25.7775 42.3435 25.7775Z" fill="#0000AE"/>
</g>
</svg>
