<svg width="30" height="30" viewBox="0 0 30 30" fill="none" xmlns="http://www.w3.org/2000/svg">
<path d="M29.8728 12.9077C29.4065 12.5556 28.9212 12.2291 28.4191 11.9297C28.2053 11.7956 28.0072 11.6381 27.8283 11.4603C27.4532 11.0886 26.8256 10.4431 26.6221 10.0446C26.4922 9.80007 26.5462 9.33061 26.6467 8.89539C26.8246 8.12778 26.6915 7.32116 26.2765 6.65082L25.6219 5.59211C25.3214 5.10891 25.0795 4.59182 24.9012 4.05172C24.6767 3.35707 24.2844 2.72815 23.7588 2.22037C22.6973 1.18611 19.7604 0.677535 17.3211 0.596848C17.1698 0.551818 17.0159 0.515892 16.8603 0.489265C15.7742 0.30344 14.6147 0.000251487 13.5752 0.198302C12.0308 0.486819 10.4716 0.968497 9.3047 2.15435C9.05955 2.39886 8.70409 2.50889 8.45158 2.73628C7.96128 3.18862 7.27241 3.18861 6.82623 3.68985C6.56637 3.98081 6.44626 4.93683 5.76229 5.30115C4.62969 5.90508 3.80108 6.57258 3.51915 6.91244C3.31078 7.16918 3.15144 7.46748 2.94796 7.7291C2.74449 7.99072 1.76879 8.45039 1.47706 8.73402C1.26059 8.97326 1.10346 9.25984 1.0183 9.5707C0.933142 9.88156 0.922335 10.208 0.986759 10.5238C1.00392 10.5996 1.01619 10.6607 1.02599 10.7096C1.13876 11.1253 1.44027 11.8759 1.37163 12.2207C1.28828 12.629 0.236585 15.6707 2.59738 16.48C2.81338 16.5445 3.00289 16.6765 3.13796 16.8565C3.27303 17.0366 3.34651 17.2551 3.34756 17.48C3.39852 17.886 3.51614 18.2809 3.69568 18.6488C3.85257 18.9468 4.08393 19.1995 4.36739 19.3823C4.6697 19.669 4.95535 19.9727 5.22297 20.2918C6.05648 21.8298 5.82113 22.6 7.42932 23.1208C7.83967 23.2557 8.23354 23.4362 8.60357 23.6587C9.05458 23.93 9.53806 24.1436 10.0426 24.2944L10.1063 24.3164C10.4594 23.4606 10.8197 22.6513 11.1777 21.886C8.30449 18.9519 9.05955 15.6535 9.33657 14.7733C9.34457 14.7472 9.35901 14.7235 9.37853 14.7044C9.39804 14.6853 9.42204 14.6713 9.44834 14.6638C9.47465 14.6562 9.50242 14.6554 9.52914 14.6613C9.55586 14.6672 9.58069 14.6796 9.60135 14.6975C10.2044 15.2257 12.0528 17.1255 11.8249 20.5657C12.4573 19.3016 13.0751 18.1915 13.639 17.2428C12.9603 16.131 12.5979 14.8558 12.5905 13.5541C12.5832 12.2524 12.9312 10.9733 13.5973 9.85386C13.612 9.8301 13.6326 9.81048 13.657 9.79688C13.6815 9.78328 13.709 9.77614 13.737 9.77614C13.765 9.77614 13.7926 9.78328 13.817 9.79688C13.8415 9.81048 13.862 9.8301 13.8768 9.85386C14.3009 10.4798 15.4482 12.5434 14.7372 15.4775C15.2521 14.6902 15.6713 14.1083 15.9458 13.744C16.6813 8.85383 20.388 7.24986 21.3612 6.91C21.3873 6.90078 21.4154 6.8983 21.4427 6.90279C21.47 6.90728 21.4958 6.91859 21.5175 6.93567C21.5393 6.95275 21.5564 6.97505 21.5672 7.00049C21.578 7.02592 21.5822 7.05367 21.5794 7.08115C21.4247 8.57038 20.8782 9.99241 19.9953 11.2032C19.1123 12.4141 17.9242 13.3707 16.5514 13.9762C16.0341 14.6535 15.5365 15.3675 15.0609 16.0986C16.7034 14.8198 19.0029 14.2183 20.9151 14.6804C20.9419 14.6865 20.9667 14.6992 20.9874 14.7172C21.0081 14.7353 21.0241 14.7581 21.0338 14.7838C21.0435 14.8094 21.0467 14.8371 21.043 14.8643C21.0394 14.8915 21.0292 14.9173 21.0131 14.9396C20.464 15.6731 18.2772 18.1182 14.1489 17.5534C13.4526 18.7246 12.8153 19.908 12.249 21.0425C14.0288 19.7001 16.6274 19.1867 18.6425 19.8615C18.6694 19.8701 18.6937 19.8854 18.7132 19.9058C18.7327 19.9262 18.7468 19.9512 18.7541 19.9784C18.7614 20.0057 18.7617 20.0343 18.7551 20.0617C18.7484 20.0891 18.735 20.1145 18.716 20.1354C18.0909 20.8077 15.6811 23.0132 11.717 22.1379C11.3444 22.9203 10.7903 24.2088 10.5207 24.8445C10.4275 25.0646 10.3417 25.2847 10.2755 25.5096C10.099 26.028 9.86364 26.6759 9.58172 27.3214C9.54257 27.4137 9.52279 27.513 9.52361 27.6132C9.52442 27.7134 9.54585 27.8124 9.58651 27.9041C9.62717 27.9957 9.68621 28.0781 9.76002 28.1461C9.83383 28.2141 9.92082 28.2663 10.0156 28.2994C13.1423 29.4139 16.5375 29.5394 19.7383 28.6588C19.8441 28.6287 19.9417 28.5752 20.024 28.5025C20.1063 28.4297 20.1712 28.3394 20.2139 28.2383L20.3463 27.9302C20.3463 27.9302 21.7289 24.7296 21.9324 23.3335C21.9905 22.8938 22.1275 22.468 22.3369 22.0767C22.4448 21.881 22.6009 21.7159 22.7905 21.597C22.98 21.478 23.1969 21.4092 23.4205 21.397C24.4746 21.3408 26.7178 21.1941 27.5341 20.9349C28.6177 20.5926 28.147 18.6219 28.0906 18.4091C28.0342 18.1964 28.6128 17.7025 28.7305 17.4164C28.8481 17.1304 28.4387 17.0277 28.2696 16.7123C28.1004 16.3969 28.6888 16.167 28.7599 15.8809C28.831 15.5949 28.5687 15.2795 28.4559 15.0667C28.3809 14.9123 28.3297 14.7474 28.3039 14.5777C28.3039 14.5777 29.0957 13.9982 29.5296 13.6339C29.9635 13.2696 29.8728 12.9664 29.8728 12.9004" fill="black"/>
</svg>
