<?xml version="1.0" encoding="UTF-8"?>
<svg width="284px" height="256px" viewBox="0 0 284 256" version="1.1" xmlns="http://www.w3.org/2000/svg" xmlns:xlink="http://www.w3.org/1999/xlink">
    <title>Symbol Enki</title>
    <g id="页面-1" stroke="none" stroke-width="1" fill="none" fill-rule="evenodd">
        <g id="madiakit" transform="translate(-274.000000, -4379.000000)" fill="#DBA45C">
            <g id="Symbol-Enki" transform="translate(274.000000, 4379.000000)">
                <path d="M141.641587,78 L171.18262,131.694685 C173.171304,135.980597 174.283174,140.769216 174.283174,145.821703 C174.283174,164.139141 159.669038,178.988359 141.641587,178.988359 C123.614136,178.988359 109,164.139141 109,145.821703 C109,140.61629 110.180195,135.690961 112.283534,131.306903 L141.641587,78 Z M141.639629,86.9005511 L116.081266,133.308179 L116.009439,133.460299 C114.259235,137.201216 113.320092,141.295255 113.279217,145.532575 L113.277823,145.821703 C113.277823,161.744225 125.978324,174.649026 141.641587,174.649026 C157.30485,174.649026 170.005351,161.744225 170.005351,145.821703 C170.005351,141.609236 169.118408,137.53286 167.428558,133.796843 L167.369686,133.668757 L141.639629,86.9005511 Z M141.930612,112.1781 L141.947404,112.366996 C142.303346,117.10988 139.391556,122.396483 135.341546,124.564057 C134.788248,125.615106 134.261246,126.683507 133.746203,127.772533 C133.67236,127.927081 133.600139,128.088955 133.526279,128.243419 C135.821284,125.754691 139.431191,124.234605 142.583422,124.627439 L142.877548,124.6699 L142.892087,124.666762 L142.815152,124.806538 C140.934775,128.392222 136.430093,130.850447 132.53904,130.481395 C131.712815,132.438278 130.943995,134.452033 130.241363,136.528529 C132.726755,133.905412 136.79543,132.488071 140.135827,133.22026 L140.428619,133.290467 L140.443074,133.287347 L140.357374,133.421338 C138.18059,136.786097 133.530981,138.80586 129.713484,138.136123 C129.023663,140.309907 128.398492,142.539088 127.846802,144.829346 C130.197572,142.009008 134.265508,140.339056 137.69643,140.921833 L137.988894,140.977328 L138.003432,140.97419 L137.919287,141.115609 C135.900762,144.584735 131.342505,146.823534 127.493637,146.329971 C127.314118,147.120246 127.142656,147.918004 126.979649,148.722617 C127.230756,148.736019 127.482861,148.741773 127.736289,148.741773 C131.154114,148.741773 134.331371,147.695211 136.974594,145.900274 C136.977847,145.897082 136.981203,145.894307 136.98456,145.891533 L137.425383,145.583146 L137.493287,145.533417 L137.493287,145.533417 C137.790002,145.314969 138.079264,145.086887 138.360707,144.849565 C141.637444,142.575502 145.599572,141.246119 149.867278,141.246119 C155.0245,141.246119 159.735484,143.187419 163.331046,146.39007 L163.549625,146.620001 C163.532199,146.974436 163.506626,147.32669 163.473092,147.676574 L163.416794,148.200021 L163.414453,148.219578 C163.392884,148.399035 163.369218,148.577833 163.343478,148.755947 L163.319773,148.915929 C163.301749,149.034639 163.282804,149.15304 163.262944,149.271124 L163.25233,149.333696 C163.223417,149.502702 163.19263,149.671055 163.159993,149.838732 C163.123449,150.026478 163.084613,150.213247 163.043491,150.399137 C163.034261,150.440865 163.024856,150.48281 163.015335,150.524711 C162.970744,150.720936 162.923667,150.915918 162.874085,151.109872 L162.838875,151.24583 L162.838875,151.24583 C162.82089,151.31439 162.80262,151.382716 162.784038,151.45091 C162.776105,151.480025 162.768145,151.509007 162.760129,151.537965 L162.7543,151.5541 L162.741,151.605 L162.739676,151.611368 L162.718979,151.684681 L162.718979,151.684681 L162.729,151.648 L162.701419,151.746146 C162.681526,151.8154 162.661312,151.884515 162.640777,151.953489 C162.628439,151.994932 162.616017,152.036218 162.603481,152.077453 C162.548835,152.257194 162.492025,152.435923 162.43307,152.613649 L162.34838,152.863998 L162.260947,153.112742 L162.260947,153.112742 C162.18507,153.32461 162.106119,153.534978 162.024152,153.743791 L162.000259,153.804397 L161.976218,153.864863 C161.944362,153.944645 161.912151,154.023987 161.879504,154.103097 C161.68975,154.562923 161.485116,155.015212 161.266329,155.459047 C161.235286,155.522025 161.20371,155.585326 161.171846,155.648451 C161.154982,155.681859 161.138,155.715294 161.120936,155.74868 C161.046947,155.893445 160.971464,156.037237 160.894486,156.180078 L160.832806,156.293746 C160.785314,156.380661 160.737487,156.46683 160.689114,156.552641 C160.548487,156.802105 160.403294,157.048469 160.253612,157.291689 L160.179371,157.411477 L160.161844,157.439513 C160.007089,157.686647 159.847675,157.930474 159.683728,158.170867 C159.272276,158.774159 158.832415,159.355648 158.366004,159.9135 C158.29391,159.999724 158.221546,160.08496 158.148562,160.16963 C157.904023,160.453332 157.652248,160.730954 157.393762,161.001927 C156.961629,161.454922 156.510974,161.889127 156.042853,162.303476 L155.98542,162.354135 C155.859837,162.464521 155.733009,162.573482 155.604959,162.680995 C155.491022,162.776659 155.376063,162.871221 155.260152,162.964617 C155.196132,163.016203 155.131811,163.067441 155.067202,163.11832 L154.998315,163.172349 L154.824276,163.306899 L154.824276,163.306899 L154.730467,163.378282 L154.730467,163.378282 C154.57546,163.495593 154.417957,163.61153 154.258897,163.725374 L154.157235,163.797701 C154.022189,163.893198 153.886517,163.986868 153.749769,164.079021 L153.609741,164.172605 C153.562853,164.203681 153.515918,164.23453 153.46886,164.265202 C153.326136,164.358225 153.182351,164.449571 153.037463,164.539257 L152.884227,164.633243 L152.658013,164.768849 L152.429815,164.90192 C152.390078,164.924772 152.350092,164.947598 152.310029,164.970301 C152.055332,165.11463 151.79754,165.253936 151.536754,165.388104 C151.500583,165.406713 151.46418,165.425312 151.427719,165.443811 L151.245848,165.535018 L151.245848,165.535018 C151.194761,165.560338 151.143738,165.585377 151.092605,165.610221 L151.018357,165.646122 L150.85443,165.724156 L150.646791,165.820597 C150.477509,165.898139 150.306855,165.973661 150.135088,166.047025 L150.005273,166.10197 L150.005273,166.10197 C149.951993,166.124316 149.898657,166.146436 149.845217,166.168347 L149.701068,166.226844 L149.616734,166.260508 L149.616734,166.260508 L149.532118,166.293873 C149.458079,166.322887 149.383779,166.35153 149.309287,166.379773 L149.231358,166.409148 L149.231358,166.409148 C149.168625,166.432656 149.105915,166.455823 149.043071,166.478707 C148.992841,166.497 148.942116,166.515257 148.891305,166.53333 C148.730109,166.590662 148.568547,166.645973 148.406156,166.699411 C148.123672,166.792371 147.838557,166.8797 147.55106,166.961228 C147.511915,166.972328 147.472923,166.983266 147.433889,166.994097 C147.363439,167.013645 147.29271,167.032882 147.22184,167.051768 C147.151566,167.070495 147.081399,167.088813 147.011098,167.106787 C146.984839,167.113501 146.958488,167.120184 146.932118,167.12682 C146.844401,167.148892 146.756412,167.170444 146.668218,167.191455 L146.572644,167.213993 L146.572644,167.213993 C146.516075,167.227198 146.459056,167.240263 146.401954,167.253101 L146.207954,167.29578 L146.077691,167.323385 L145.881447,167.363386 C145.842591,167.371118 145.803684,167.378748 145.76474,167.386274 C145.462017,167.444776 145.157078,167.496959 144.850073,167.542679 C144.796608,167.55064 144.743397,167.558361 144.690125,167.565887 C144.511836,167.591076 144.332784,167.614097 144.153072,167.634911 C143.857673,167.669127 143.560301,167.697394 143.261265,167.719571 C143.083872,167.732724 142.906182,167.743719 142.727933,167.752552 L142.593835,167.758785 C142.278287,167.772484 141.960733,167.779409 141.641587,167.779409 L141.2833,167.7751 L141.3923,167.7771 L141.340213,167.777348 L141.2663,167.7751 L141.2463,167.7751 L141.039815,167.771184 C140.945627,167.768605 140.851929,167.765436 140.758381,167.761672 C140.726066,167.760372 140.693738,167.758999 140.661428,167.757555 C140.37322,167.74468 140.086328,167.726142 139.800986,167.702055 C139.734188,167.696415 139.667813,167.690503 139.601524,167.684291 C139.544653,167.678962 139.487958,167.673423 139.431326,167.667665 C139.353245,167.659728 139.274994,167.651342 139.196866,167.642539 C138.777375,167.595272 138.36148,167.535991 137.949494,167.465037 C137.917294,167.459492 137.884982,167.453851 137.852695,167.448139 C137.577106,167.399377 137.303543,167.345446 137.031845,167.286402 L136.880128,167.252858 C136.815081,167.238232 136.74944,167.223147 136.683911,167.207764 L136.441384,167.149344 L136.441384,167.149344 C136.399658,167.139038 136.357263,167.128429 136.314917,167.117696 C136.202584,167.089218 136.091308,167.060054 135.980377,167.030028 L135.714983,166.956366 L135.714983,166.956366 C135.639506,166.934894 135.564378,166.913077 135.489415,166.890864 L135.381322,166.858526 C135.306041,166.835788 135.23103,166.812682 135.156191,166.78918 C134.90123,166.70912 134.647898,166.624336 134.396652,166.535037 L134.280331,166.493318 L134.280331,166.493318 C134.181572,166.457578 134.08293,166.421061 133.984621,166.383847 L133.872528,166.341059 L133.872528,166.341059 C133.801559,166.313743 133.730443,166.285936 133.659507,166.257765 C133.542519,166.211304 133.426139,166.163901 133.310257,166.115519 C133.258933,166.094091 133.207657,166.07245 133.15648,166.050617 L133.012224,165.988456 L133.012224,165.988456 L132.755606,165.874783 L132.601217,165.804463 L132.601217,165.804463 C132.243779,165.639978 131.890919,165.465756 131.543498,165.282366 C131.494046,165.256261 131.445072,165.230169 131.396208,165.203894 C131.333218,165.170026 131.269791,165.135515 131.206551,165.100697 L130.94846,164.956309 L130.94846,164.956309 C130.873394,164.913642 130.798723,164.870612 130.724327,164.82715 C130.686743,164.805196 130.648705,164.782821 130.610739,164.760333 C124.40098,161.082064 120.130585,154.393912 119.7363,146.663925 C121.691351,147.754789 123.885473,148.458151 126.218491,148.672411 C126.387936,147.826011 126.567292,146.989416 126.752743,146.158834 C123.436906,144.052835 121.263593,139.310461 121.776583,135.249055 L121.816751,134.966847 L121.845523,134.81435 C124.873952,136.532114 127.025117,140.433324 127.216423,144.17238 C127.743559,142.018267 128.335345,139.919551 128.984619,137.877688 C125.849788,135.673995 123.966783,131.018561 124.652902,127.099608 L124.706298,126.820979 L124.743835,126.674266 C127.635975,128.42912 129.576482,132.22951 129.658669,135.845918 C130.326445,133.89244 131.058771,131.994291 131.839753,130.147315 C129.293588,127.236227 128.582009,122.209084 130.210344,118.553649 L130.340225,118.275226 L130.411386,118.144373 C132.574567,120.364572 133.549123,124.042399 133.08225,127.353801 C133.576004,126.307839 134.081717,125.282501 134.613742,124.274601 C134.458621,119.488551 137.52257,114.266474 141.656408,112.299819 L141.916147,112.181175 L141.930612,112.1781 Z" id="蒙版"></path>
            </g>
        </g>
    </g>
</svg>