<svg width="182" height="139" viewBox="0 0 182 139" fill="none" xmlns="http://www.w3.org/2000/svg">
<path d="M188.712 39.0842C203.048 78.4821 196.023 125.322 124.682 151.283C53.341 177.244 17.8593 145.887 3.51678 106.49C-3.91188 86.1063 31.5437 54.4954 82.6777 35.8846C133.812 17.2739 181.29 18.7075 188.712 39.0842Z" fill="#C7676A"/>
<path d="M76.9624 163.332C63.9296 163.332 52.1024 160.784 41.6111 155.682C23.4108 146.839 9.41368 130.124 1.13137 107.363C-6.89029 85.3243 28.5523 52.8793 81.8106 33.4931C106.866 24.3832 131.824 19.7045 152.168 20.3561C173.3 21.0077 187.128 27.3482 191.097 38.2501C199.385 61.0183 199.398 82.8155 191.149 101.289C181.042 123.908 158.971 141.541 125.555 153.707C107.87 160.113 91.6307 163.332 76.9624 163.332ZM148.571 25.3542C129.51 25.3542 106.599 29.9156 83.5765 38.2696C34.6516 56.0723 -0.901739 86.9143 5.90787 105.623C13.7275 127.127 26.845 142.851 43.8397 151.114C64.8289 161.318 91.735 160.569 123.815 148.898C202.298 120.33 196.668 68.3818 186.32 39.9573C183.16 31.271 170.681 25.9667 152.011 25.3998C150.871 25.3672 149.711 25.3542 148.571 25.3542Z" fill="#3E064F"/>
<path d="M160.747 110.281C167.303 128.305 170.841 147.275 128.817 162.582C86.7928 177.889 77.2854 161.083 70.7234 143.032C67.3284 133.708 79.4619 120.727 109.6 109.76C139.738 98.7928 157.352 100.956 160.747 110.281Z" fill="#AAAAAA"/>
<path d="M100.908 171.092C94.8215 171.092 89.6214 169.913 85.2685 167.554C75.722 162.426 71.5255 152.664 68.3259 143.926C66.8402 139.833 66.9379 133.258 75.8719 125.152C82.864 118.818 94.2285 112.673 108.727 107.395C123.226 102.117 135.868 99.5232 145.317 99.8555C157.366 100.318 161.673 105.297 163.159 109.389C166.345 118.127 169.401 128.286 165.387 138.367C161.119 149.061 149.442 157.753 129.691 164.941C118.45 169.053 108.91 171.092 100.908 171.092ZM143.486 104.925C135.581 104.925 124.588 107.03 110.454 112.171C81.0003 122.891 70.4633 134.979 73.0894 142.186C79.7687 160.529 88.5006 174.546 127.931 160.191C146.249 153.524 156.949 145.776 160.643 136.51C163.999 128.097 161.223 119.014 158.363 111.148C157.001 107.395 152.055 104.925 143.486 104.925Z" fill="#3E064F"/>
<path d="M155.528 110.979C161.392 127.068 164.54 144.004 127.006 157.669C89.4713 171.334 81 156.326 75.1418 140.238C72.1117 131.916 82.9614 120.33 109.848 110.536C136.735 100.742 152.478 102.658 155.528 110.979Z" fill="#8C8C8C"/>
<path d="M15.4492 117.944C15.8141 109.636 21.2292 99.7768 31.0885 89.8849C44.9619 75.9529 65.7295 63.5001 89.573 54.8203C109.624 47.522 129.727 43.6643 147.256 43.6643C150.579 43.6643 153.8 43.8033 156.92 44.0813C170.826 45.3325 181.31 49.3987 186.934 55.5306C188.804 51.6208 189.756 47.9065 189.677 44.4006C170.076 29.9017 129.408 29.4782 86.0997 45.2673C42.7919 61.0565 11.8652 87.4739 6.18945 111.18C8.38547 113.924 11.5264 116.178 15.4492 117.944Z" fill="#3E064F"/>
<path d="M109.55 109.695C152.095 94.2125 183.764 69.7305 188.978 50.2009C172.315 34.9331 130.982 34.1381 87.8044 49.8621C44.6269 65.5861 13.4395 92.7463 10.4941 115.156C27.0066 126.788 67.0106 125.178 109.55 109.695Z" fill="#FFEBB1"/>
<path d="M109.544 109.696C150.011 94.9622 180.644 72.0962 187.995 53.0945C173.066 37.4552 131.902 36.5625 88.6524 52.2995C45.4033 68.0365 14.4505 95.1837 13.0625 116.759C30.9108 126.573 69.0707 124.423 109.544 109.696Z" fill="#FFDA82"/>
<path d="M44.4873 112.341C25.6224 112.341 13.8147 107.291 10.3284 97.7051C2.60653 76.4813 41.5875 49.321 82.1975 34.5419C103.845 26.6636 125.362 22.239 142.8 22.0956C162.219 21.9327 174.319 26.9959 177.858 36.7314C185.586 57.9552 146.579 85.1154 105.995 99.8946C84.3414 107.773 62.8243 112.191 45.393 112.341H44.4873ZM143.627 31.9223H142.871C126.535 32.0852 106.217 36.2752 85.56 43.8147C39.3849 60.5878 16.0042 84.555 19.5491 94.3426C21.4258 99.4971 31.2786 102.631 45.2888 102.508C61.6188 102.371 81.9694 98.1612 102.6 90.6544C148.769 73.8486 172.15 49.8814 168.592 40.0938C166.767 35.0306 157.227 31.9223 143.627 31.9223Z" fill="#3E064F"/>
<path d="M98.1235 78.3047C129.199 66.994 151.159 48.945 147.172 37.9912C143.186 27.0374 114.762 27.3267 83.6858 38.6374C52.6099 49.9481 30.65 67.997 34.6368 78.9508C38.6237 89.9047 67.0476 89.6154 98.1235 78.3047Z" fill="#FFDA82"/>
<path d="M110.588 73.1975C111.604 72.7283 112.606 72.257 113.592 71.7834L110.588 73.1975Z" fill="#FFDA82"/>
<path d="M110.586 75.7454C110.005 75.7462 109.441 75.548 108.989 75.1839C108.537 74.8197 108.222 74.3116 108.099 73.744C107.976 73.1765 108.05 72.5838 108.311 72.0647C108.571 71.5455 109.001 71.1312 109.53 70.8907C110.525 70.4563 111.509 69.9936 112.482 69.5027C112.784 69.3297 113.119 69.2206 113.465 69.1822C113.811 69.1439 114.161 69.177 114.494 69.2797C114.827 69.3824 115.135 69.5524 115.4 69.7791C115.664 70.0059 115.879 70.2845 116.031 70.5978C116.183 70.9111 116.269 71.2523 116.284 71.6002C116.299 71.9482 116.242 72.2954 116.117 72.6205C115.992 72.9455 115.801 73.2414 115.557 73.4898C115.313 73.7381 115.021 73.9336 114.698 74.0642C113.701 74.5464 112.678 75.0286 111.648 75.5043C111.315 75.6601 110.953 75.7423 110.586 75.7454Z" fill="#3E064F"/>
<path d="M44.6052 109.865C27.011 109.865 15.666 105.212 12.5968 96.7736C9.47546 88.1981 15.3988 77.1593 29.2722 65.6905C42.4939 54.7626 61.5608 44.4667 82.9606 36.647C104.706 28.7362 126.203 24.3767 143.491 24.3767C161.085 24.3767 172.43 29.0229 175.5 37.4681C178.621 46.0371 172.698 57.0759 158.824 68.5447C145.596 79.4791 126.529 89.7881 105.136 97.5751C83.4037 105.506 61.8997 109.865 44.6052 109.865Z" fill="#FFEBB1"/>
<path d="M143.498 26.8722C159.287 26.8722 170.411 30.6843 173.193 38.341C178.856 53.8826 148.007 79.3942 104.302 95.2941C82.1463 103.368 60.8834 107.421 44.612 107.421C28.8229 107.421 17.6994 103.602 14.9169 95.9457C9.25419 80.4042 40.1027 54.8926 83.808 38.9926C105.964 30.9189 127.227 26.8722 143.498 26.8722ZM143.498 21.9458C125.904 21.9458 104.133 26.3574 82.1268 34.366C60.4729 42.2313 41.1453 52.6901 27.7086 63.794C20.9315 69.398 15.94 74.937 12.8773 80.2543C8.36797 88.074 8.96747 94.0169 10.2707 97.6139C11.574 101.211 14.8322 106.04 23.1471 109.148C28.7772 111.253 35.9909 112.321 44.599 112.321C62.1932 112.321 83.9579 107.91 105.97 99.9012C127.624 92.0164 146.952 81.5641 160.382 70.4537C167.165 64.8496 172.157 59.3107 175.22 53.9999C179.729 46.1802 179.13 40.2308 177.826 36.6337C176.523 33.0367 173.265 28.2081 164.956 25.0997C159.326 22.995 152.113 21.9263 143.505 21.9263L143.498 21.9458Z" fill="#3E064F"/>
<path d="M103.376 92.7204C145.446 77.4081 175.383 53.5436 170.241 39.4176C165.1 25.2916 126.827 26.2533 84.757 41.5656C42.6867 56.8779 12.75 80.7424 17.8914 94.8684C23.0329 108.994 61.3055 108.033 103.376 92.7204Z" fill="#FFDA82"/>
<path d="M21.0364 70.6167C19.6747 70.6228 18.3351 70.2732 17.15 69.6026C15.9649 68.9319 14.9755 67.9635 14.2797 66.793C13.5839 65.6225 13.2058 64.2907 13.1828 62.9292C13.1598 61.5677 13.4927 60.2239 14.1485 59.0306L35.9914 18.8506C36.6432 17.6335 37.6056 16.6106 38.7809 15.886C39.9561 15.1613 41.3022 14.7608 42.6825 14.725C44.0627 14.6893 45.4277 15.0196 46.6389 15.6824C47.8501 16.3453 48.8642 17.3169 49.5781 18.4987L73.4541 57.4992C74.1823 58.6741 74.586 60.0211 74.6241 61.4029C74.6623 62.7847 74.3334 64.1519 73.6712 65.3652C73.0089 66.5785 72.0368 67.5946 70.8539 68.3099C69.6711 69.0252 68.3198 69.4142 66.9377 69.4372L21.2188 70.6167H21.0364Z" fill="#C38D44"/>
<path d="M42.8838 17.2927C43.7933 17.284 44.6891 17.5134 45.4825 17.9581C46.2758 18.4028 46.939 19.0473 47.4062 19.8276L71.2822 58.802C71.7671 59.5959 72.0346 60.5033 72.058 61.4333C72.0815 62.3632 71.8599 63.2829 71.4156 64.1002C70.9714 64.9175 70.3199 65.6036 69.5268 66.0896C68.7336 66.5756 67.8266 66.8445 66.8967 66.8693L21.1778 68.0487H21.0344C20.1181 68.0457 19.2181 67.8054 18.4223 67.3512C17.6264 66.8969 16.9619 66.2442 16.4933 65.4567C16.0247 64.6692 15.7682 63.7738 15.7486 62.8576C15.7291 61.9415 15.9472 61.0359 16.3817 60.2291L38.2246 20.0622C38.6727 19.2177 39.3443 18.5128 40.166 18.0243C40.9877 17.5359 41.9279 17.2828 42.8838 17.2927ZM42.8838 12.2034C41.0164 12.2083 39.1846 12.7146 37.5798 13.6695C35.975 14.6244 34.6561 15.9927 33.7609 17.6316L11.918 57.8115C11.057 59.3935 10.6222 61.1722 10.6561 62.973C10.6901 64.7738 11.1918 66.5348 12.1119 68.0832C13.032 69.6315 14.3389 70.9141 15.9043 71.8048C17.4697 72.6956 19.2398 73.164 21.0409 73.1641H21.3146L67.0335 71.9846C68.8535 71.9362 70.6288 71.41 72.1812 70.4587C73.7336 69.5075 75.0085 68.1647 75.878 66.565C76.7474 64.9654 77.1809 63.1652 77.1348 61.3451C77.0888 59.525 76.5648 57.7491 75.6156 56.1955L51.7396 17.1689C50.8169 15.6479 49.5166 14.3913 47.9649 13.5212C46.4132 12.6512 44.6628 12.1972 42.8838 12.2034Z" fill="#3E064F"/>
<path d="M44.2207 50.7542C35.8341 56.5863 29.9694 62.6075 27.832 67.9248L66.9303 66.9148C67.8643 66.8891 68.7751 66.6172 69.5703 66.1265C70.3655 65.6358 71.0169 64.9437 71.4587 64.1203C71.9005 63.2969 72.1169 62.3714 72.0861 61.4375C72.0553 60.5036 71.7783 59.5944 71.2832 58.8019L55.8589 33.6292C50.0463 38.9661 45.928 44.7331 44.2207 50.7542Z" fill="#B27E38"/>
<path d="M122.025 67.3456C125.517 65.3625 128.895 63.187 132.145 60.8292C143.406 52.612 149.42 44.1668 147.172 37.9828C145.869 34.3271 141.783 31.9291 135.827 30.7692C132.954 26.5487 128.898 23.2708 124.169 21.3465C113.619 17.0131 121.856 6.01997 115.196 3.53072C110.361 1.70613 101.629 14.8236 86.3286 22.4282C68.6823 31.1406 54.9914 42.4335 51.479 54.8081C39.0588 63.4292 32.2688 72.4414 34.6342 78.9512C38.6222 89.9052 67.0467 89.6185 98.1232 78.2996" fill="#FFDA82"/>
<path d="M55.5212 89.5203C42.7817 89.5203 34.532 86.0862 32.2512 79.8175C29.5339 72.3497 35.5811 62.927 49.2981 53.2307C54.0876 38.2104 71.3951 26.9632 85.2033 20.121C92.4039 16.5565 98.1318 11.6823 102.732 7.73987C108.245 3.04808 112.22 -0.340434 116.097 1.12575C120.659 2.84607 120.704 7.25114 120.737 10.4637C120.783 14.6407 121.024 17.2798 125.142 18.9741C129.993 20.9637 134.205 24.2453 137.321 28.4619C145.48 30.2995 148.484 34.1377 149.559 37.0961C152.166 44.3032 146.535 53.4587 133.646 62.8619C130.319 65.2744 126.86 67.4999 123.285 69.5281C122.699 69.8625 122.004 69.9505 121.354 69.7727C120.703 69.5949 120.149 69.1658 119.815 68.58C119.481 67.9941 119.393 67.2994 119.57 66.6486C119.748 65.9979 120.177 65.4444 120.763 65.11C124.174 63.1948 127.474 61.0888 130.648 58.8022C141.075 51.1976 146.49 43.5604 144.782 38.8816C143.57 35.5387 138.976 33.9943 135.34 33.2906C134.685 33.1624 134.106 32.7807 133.731 32.2284C131.144 28.411 127.481 25.4488 123.207 23.718C115.765 20.6618 115.7 14.5951 115.654 10.568C115.615 7.08171 115.4 6.34536 114.299 5.92832C113.198 5.51127 108.897 9.1865 106.03 11.6562C101.214 15.755 95.2189 20.8573 87.4579 24.689C68.8602 33.8966 56.9483 44.8441 53.9247 55.5114C53.7619 56.0767 53.41 56.569 52.9277 56.9059C41.3025 64.9666 35.1901 73.0795 37.0277 78.0776C40.0318 86.3338 65.5043 87.4742 97.2586 75.9142C97.8874 75.703 98.574 75.7461 99.1715 76.0343C99.769 76.3224 100.23 76.8328 100.456 77.4564C100.683 78.08 100.656 78.7674 100.383 79.3717C100.109 79.976 99.6099 80.4494 98.9919 80.6907C83.7045 86.2621 68.5214 89.3965 56.251 89.5203H55.5212Z" fill="#3E064F"/>
<path d="M45.8825 77.0676C47.2501 77.0676 48.3587 75.9589 48.3587 74.5913C48.3587 73.2238 47.2501 72.1151 45.8825 72.1151C44.5149 72.1151 43.4062 73.2238 43.4062 74.5913C43.4062 75.9589 44.5149 77.0676 45.8825 77.0676Z" fill="#FFC466"/>
<path d="M78.3476 97.8685C79.7151 97.8685 80.8238 96.7599 80.8238 95.3923C80.8238 94.0247 79.7151 92.9161 78.3476 92.9161C76.98 92.9161 75.8713 94.0247 75.8713 95.3923C75.8713 96.7599 76.98 97.8685 78.3476 97.8685Z" fill="#FFC466"/>
<path d="M43.3024 28.7359C44.67 28.7359 45.7786 27.6273 45.7786 26.2597C45.7786 24.8921 44.67 23.7834 43.3024 23.7834C41.9348 23.7834 40.8262 24.8921 40.8262 26.2597C40.8262 27.6273 41.9348 28.7359 43.3024 28.7359Z" fill="#E2A749"/>
<path d="M51.2106 40.1458C52.5782 40.1458 53.6868 39.0372 53.6868 37.6696C53.6868 36.302 52.5782 35.1934 51.2106 35.1934C49.843 35.1934 48.7344 36.302 48.7344 37.6696C48.7344 39.0372 49.843 40.1458 51.2106 40.1458Z" fill="#E2A749"/>
<path d="M39.3981 36.2623C40.7657 36.2623 41.8743 35.1536 41.8743 33.786C41.8743 32.4185 40.7657 31.3098 39.3981 31.3098C38.0305 31.3098 36.9219 32.4185 36.9219 33.786C36.9219 35.1536 38.0305 36.2623 39.3981 36.2623Z" fill="#E2A749"/>
<path d="M24.6269 62.5557C25.9944 62.5557 27.1031 61.447 27.1031 60.0794C27.1031 58.7118 25.9944 57.6032 24.6269 57.6032C23.2593 57.6032 22.1506 58.7118 22.1506 60.0794C22.1506 61.447 23.2593 62.5557 24.6269 62.5557Z" fill="#E2A749"/>
<path d="M53.9508 78.9573C55.3184 78.9573 56.4271 77.8487 56.4271 76.4811C56.4271 75.1135 55.3184 74.0049 53.9508 74.0049C52.5833 74.0049 51.4746 75.1135 51.4746 76.4811C51.4746 77.8487 52.5833 78.9573 53.9508 78.9573Z" fill="#FFC466"/>
<path d="M50.8493 70.4346C52.2168 70.4346 53.3255 69.326 53.3255 67.9584C53.3255 66.5908 52.2168 65.4822 50.8493 65.4822C49.4817 65.4822 48.373 66.5908 48.373 67.9584C48.373 69.326 49.4817 70.4346 50.8493 70.4346Z" fill="#FFC466"/>
<path d="M23.6442 94.3692C25.0118 94.3692 26.1204 93.2606 26.1204 91.893C26.1204 90.5254 25.0118 89.4167 23.6442 89.4167C22.2766 89.4167 21.168 90.5254 21.168 91.893C21.168 93.2606 22.2766 94.3692 23.6442 94.3692Z" fill="#FFC466"/>
<path d="M64.3621 53.2894C63.9447 53.29 63.534 53.1842 63.1688 52.982C62.8036 52.7798 62.4959 52.4878 62.2749 52.1337C62.0538 51.7796 61.9266 51.3751 61.9053 50.9582C61.884 50.5413 61.9693 50.1258 62.1531 49.751C66.1607 42.4868 72.3685 36.6805 79.8841 33.1669C80.1784 33.0166 80.4998 32.927 80.8294 32.9035C81.159 32.88 81.4899 32.9231 81.8025 33.0301C82.1151 33.1371 82.4029 33.306 82.6489 33.5265C82.8949 33.7471 83.094 34.0149 83.2344 34.314C83.3748 34.6131 83.4535 34.9374 83.466 35.2676C83.4785 35.5977 83.4244 35.927 83.3069 36.2359C83.1895 36.5447 83.0112 36.8268 82.7825 37.0652C82.5538 37.3037 82.2795 37.4938 81.9759 37.6241C75.4954 40.6903 70.1183 45.6805 66.5777 51.9145C66.374 52.328 66.0584 52.6761 65.6668 52.9192C65.2751 53.1622 64.8231 53.2905 64.3621 53.2894Z" fill="#FFEBB1"/>
<path d="M115.863 29.3291C115.435 29.329 115.015 29.2167 114.644 29.0033C112.399 27.7402 110.644 25.7566 109.666 23.3731C109.438 22.7613 109.464 22.0843 109.735 21.491C110.007 20.8977 110.504 20.4367 111.116 20.2094C111.727 19.9822 112.404 20.0073 112.998 20.2792C113.591 20.5511 114.052 21.0475 114.279 21.6593C114.876 22.946 115.858 24.016 117.088 24.722C117.559 24.9919 117.928 25.41 118.137 25.9111C118.346 26.4123 118.384 26.9685 118.244 27.4932C118.104 28.018 117.795 28.4818 117.364 28.8126C116.934 29.1435 116.406 29.3228 115.863 29.3226V29.3291Z" fill="#FFEBB1"/>
<path d="M60.9687 100.917C60.3403 100.908 59.7391 100.659 59.2882 100.221C58.8373 99.7834 58.5709 99.1898 58.5434 98.5619C58.5159 97.934 58.7295 97.3193 59.1404 96.8438C59.5513 96.3682 60.1284 96.0677 60.7537 96.0038C63.2559 95.7757 68.0455 94.9416 70.7823 94.3356C71.4135 94.2118 72.068 94.3399 72.6059 94.6923C73.1439 95.0447 73.5228 95.5935 73.6615 96.2215C73.8002 96.8495 73.6878 97.5069 73.3482 98.0531C73.0087 98.5993 72.469 98.9911 71.8445 99.1447C68.328 99.9144 64.774 100.502 61.1968 100.904L60.9687 100.917Z" fill="#FFC466"/>
<path d="M159.059 55.9611C158.581 55.9611 158.114 55.8221 157.713 55.5612C157.313 55.3002 156.998 54.9286 156.805 54.4914C156.612 54.0543 156.551 53.5705 156.628 53.0991C156.706 52.6277 156.918 52.1889 157.241 51.8363C161.73 46.936 163.105 44.0166 162.017 41.6707C161.761 41.2889 161.433 40.9611 161.051 40.7062C160.668 40.4513 160.239 40.2742 159.789 40.185C159.464 40.1182 159.157 39.9868 158.885 39.7986C158.613 39.6104 158.381 39.3693 158.204 39.0896C158.027 38.81 157.908 38.4976 157.855 38.171C157.801 37.8444 157.814 37.5104 157.893 37.1889C157.971 36.8674 158.113 36.565 158.311 36.2998C158.509 36.0345 158.758 35.8118 159.044 35.645C159.33 35.4783 159.647 35.3708 159.975 35.329C160.303 35.2873 160.636 35.3121 160.955 35.402C161.893 35.6301 165.08 36.6075 166.474 39.5725C169.081 45.0853 165.099 50.546 160.877 55.1596C160.646 55.4125 160.365 55.6144 160.052 55.7524C159.739 55.8904 159.401 55.9615 159.059 55.9611Z" fill="#FFEBB1"/>
<path d="M98.0575 91.7614C97.4732 91.7579 96.9092 91.5467 96.4662 91.1656C96.0233 90.7846 95.7302 90.2585 95.6393 89.6813C95.5485 89.1041 95.6658 88.5133 95.9703 88.0147C96.2748 87.516 96.7466 87.1418 97.3016 86.9589C99.5642 86.2696 101.786 85.4515 103.955 84.5087C104.248 84.3552 104.57 84.2625 104.9 84.2361C105.23 84.2097 105.562 84.2501 105.876 84.355C106.19 84.4598 106.48 84.6269 106.728 84.8463C106.976 85.0657 107.177 85.3329 107.32 85.6318C107.462 85.9308 107.543 86.2554 107.557 86.5863C107.571 86.9171 107.519 87.2474 107.402 87.5575C107.286 87.8675 107.108 88.1508 106.88 88.3906C106.651 88.6304 106.377 88.8216 106.073 88.9529C103.712 89.9964 101.29 90.8952 98.8199 91.6441C98.573 91.7208 98.316 91.7604 98.0575 91.7614Z" fill="#FFEBB1"/>
<path d="M87.8728 95.2483C87.2832 95.244 86.7147 95.0283 86.2706 94.6404C85.8265 94.2525 85.5362 93.7182 85.4526 93.1345C85.369 92.5508 85.4976 91.9565 85.8149 91.4595C86.1323 90.9625 86.6174 90.5959 87.1821 90.4262L88.7069 89.9635C89.3242 89.7932 89.9836 89.8699 90.5453 90.1774C91.107 90.485 91.5268 90.9992 91.7158 91.611C91.9048 92.2229 91.848 92.8843 91.5576 93.455C91.2672 94.0258 90.7659 94.461 90.1601 94.6684L88.5701 95.1506C88.3433 95.2154 88.1087 95.2483 87.8728 95.2483Z" fill="#FFEBB1"/>
<path d="M113.498 63.1157C112.947 63.1156 112.412 62.9307 111.978 62.5906C111.544 62.2505 111.238 61.7748 111.106 61.2397C110.975 60.7045 111.027 60.1408 111.254 59.6386C111.48 59.1364 111.869 58.7248 112.357 58.4695C115.212 56.9708 117.864 55.4459 120.236 53.9081C129.873 47.724 132.532 43.1691 131.965 41.6117C131.76 41.0027 131.801 40.3376 132.079 39.7584C132.358 39.1792 132.852 38.7317 133.455 38.5115C134.059 38.2912 134.725 38.3157 135.311 38.5796C135.897 38.8434 136.357 39.3259 136.592 39.924C138.866 46.1797 130.401 53.2369 122.907 58.0525C120.418 59.6555 117.636 61.2586 114.651 62.8225C114.296 63.0125 113.9 63.1132 113.498 63.1157Z" fill="#FFEBB1"/>
<path d="M108.857 73.8291C109.874 73.3599 110.875 72.8886 111.861 72.415L108.857 73.8291Z" fill="#FFDA82"/>
<path d="M108.856 76.396C108.275 76.3983 107.71 76.2012 107.257 75.8376C106.803 75.474 106.488 74.9658 106.363 74.3979C106.239 73.8299 106.313 73.2366 106.574 72.7167C106.834 72.1969 107.265 71.7821 107.794 71.5414C108.797 71.1069 109.784 70.6443 110.752 70.1534C111.055 69.9803 111.389 69.8712 111.735 69.8328C112.081 69.7945 112.432 69.8277 112.764 69.9304C113.097 70.0331 113.405 70.203 113.67 70.4298C113.934 70.6565 114.149 70.9352 114.301 71.2484C114.453 71.5617 114.539 71.9029 114.554 72.2508C114.569 72.5988 114.512 72.9461 114.387 73.2711C114.262 73.5962 114.072 73.892 113.827 74.1404C113.583 74.3887 113.291 74.5843 112.968 74.7148C111.964 75.197 110.948 75.6792 109.918 76.1484C109.587 76.3093 109.224 76.3939 108.856 76.396Z" fill="#3E064F"/>
<path d="M133.421 90.4841C132.339 88.8453 130.855 87.5105 129.111 86.6069C127.367 85.7032 125.421 85.2606 123.458 85.3212C121.495 85.3818 119.58 85.9436 117.895 86.9531C116.21 87.9626 114.812 89.3863 113.832 91.0888C112.853 92.7913 112.325 94.716 112.3 96.6799C112.274 98.6438 112.751 100.582 113.686 102.309C114.62 104.037 115.981 105.496 117.639 106.549C119.297 107.603 121.197 108.214 123.158 108.326C122.147 110.104 121.627 112.118 121.653 114.163C121.678 116.208 122.247 118.21 123.302 119.962C124.356 121.714 125.858 123.154 127.653 124.134C129.448 125.113 131.472 125.598 133.516 125.537C135.56 125.476 137.551 124.872 139.285 123.787C141.018 122.702 142.432 121.175 143.38 119.363C144.328 117.551 144.777 115.52 144.681 113.477C144.584 111.434 143.946 109.454 142.831 107.739C144.874 107.839 146.906 107.393 148.72 106.446C150.533 105.5 152.062 104.088 153.149 102.356C154.237 100.623 154.843 98.6325 154.906 96.5881C154.969 94.5436 154.487 92.5192 153.509 90.7228C152.531 88.9264 151.092 87.4228 149.34 86.3665C147.589 85.3101 145.588 84.7391 143.542 84.7122C141.497 84.6852 139.482 85.2033 137.703 86.2131C135.924 87.2229 134.446 88.688 133.421 90.458V90.4841Z" fill="#00B76A"/>
<path d="M133.146 128.103C130.698 128.105 128.294 127.462 126.173 126.239C123.474 124.674 121.37 122.258 120.191 119.369C119.011 116.48 118.824 113.281 119.657 110.274C118.678 109.97 117.736 109.557 116.848 109.043C115.139 108.057 113.656 106.721 112.496 105.124C111.336 103.527 110.526 101.704 110.117 99.7728C109.709 97.8417 109.711 95.8463 110.124 93.9163C110.538 91.9863 111.353 90.1649 112.517 88.5707C113.68 86.9765 115.167 85.6451 116.879 84.6631C118.591 83.6811 120.491 83.0706 122.454 82.8712C124.418 82.6718 126.402 82.8881 128.276 83.5059C130.151 84.1237 131.874 85.1292 133.335 86.457C135.516 84.2231 138.377 82.7762 141.469 82.3434C144.562 81.9106 147.71 82.5163 150.421 84.0655C152.865 85.4729 154.829 87.5825 156.058 90.1205C157.288 92.6585 157.726 95.5075 157.316 98.2976C156.905 101.088 155.666 103.69 153.757 105.766C151.849 107.843 149.361 109.298 146.615 109.942C147.255 112.046 147.392 114.271 147.017 116.438C146.641 118.606 145.762 120.654 144.451 122.42C143.14 124.186 141.433 125.62 139.468 126.607C137.502 127.594 135.332 128.107 133.133 128.103H133.146ZM123.808 87.871C123.011 87.8719 122.218 87.977 121.449 88.1838C119.391 88.74 117.597 90.0106 116.39 91.7682C115.182 93.5258 114.64 95.6557 114.859 97.7767C115.079 99.8977 116.046 101.871 117.588 103.345C119.129 104.818 121.145 105.694 123.274 105.817C123.706 105.84 124.125 105.973 124.492 106.204C124.858 106.435 125.159 106.756 125.367 107.136C125.574 107.516 125.68 107.943 125.675 108.376C125.67 108.809 125.555 109.234 125.339 109.61C124.552 110.996 124.148 112.566 124.168 114.16C124.188 115.754 124.632 117.313 125.455 118.679C126.277 120.044 127.448 121.166 128.848 121.929C130.247 122.692 131.824 123.069 133.417 123.021C135.011 122.973 136.562 122.502 137.913 121.656C139.264 120.81 140.365 119.619 141.104 118.207C141.843 116.794 142.192 115.21 142.116 113.618C142.04 112.026 141.542 110.483 140.672 109.147C140.421 108.755 140.283 108.302 140.272 107.837C140.261 107.372 140.377 106.913 140.609 106.509C140.841 106.106 141.179 105.774 141.587 105.55C141.994 105.326 142.456 105.217 142.92 105.237C144.513 105.315 146.097 104.968 147.511 104.231C148.925 103.494 150.117 102.393 150.965 101.043C151.812 99.6929 152.285 98.1413 152.335 96.5477C152.385 94.9541 152.009 93.3761 151.247 91.9757C150.485 90.5753 149.363 89.4031 147.998 88.5796C146.633 87.756 145.073 87.3108 143.479 87.2896C141.885 87.2684 140.314 87.6721 138.927 88.4591C137.541 89.2462 136.389 90.3882 135.59 91.7678C135.373 92.1413 135.064 92.4533 134.693 92.6744C134.322 92.8955 133.901 93.0184 133.469 93.0314C133.037 93.0445 132.609 92.9472 132.225 92.749C131.842 92.5507 131.515 92.2579 131.276 91.8982C130.459 90.6634 129.35 89.6496 128.047 88.947C126.745 88.2444 125.288 87.8748 123.808 87.871Z" fill="#3E064F"/>
<path d="M153.325 99.9724C153.989 97.2809 153.66 94.4402 152.398 91.9716C151.137 89.503 149.028 87.572 146.458 86.5329C143.887 85.4937 141.029 85.4162 138.406 86.3144C135.784 87.2126 133.573 89.0264 132.179 91.4229C131.149 89.8659 129.755 88.5831 128.118 87.6851C126.481 86.7871 124.65 86.3009 122.783 86.2685C122.783 86.4119 122.783 86.5552 122.75 86.6986C122.602 89.7905 123.499 92.8423 125.295 95.3631C127.092 97.884 129.684 99.7273 132.655 100.597C135.626 101.466 138.803 101.311 141.675 100.157C144.547 99.0022 146.947 96.9152 148.49 94.2315C149.542 96.5538 151.215 98.5404 153.325 99.9724Z" fill="#009F61"/>
<path d="M133.146 128.103C130.698 128.105 128.294 127.462 126.173 126.239C123.474 124.674 121.37 122.258 120.191 119.369C119.011 116.48 118.824 113.281 119.657 110.274C118.678 109.97 117.736 109.557 116.848 109.043C115.139 108.057 113.656 106.721 112.496 105.124C111.336 103.527 110.526 101.704 110.117 99.7728C109.709 97.8417 109.711 95.8463 110.124 93.9163C110.538 91.9863 111.353 90.1649 112.517 88.5707C113.68 86.9765 115.167 85.6451 116.879 84.6631C118.591 83.6811 120.491 83.0706 122.454 82.8712C124.418 82.6718 126.402 82.8881 128.276 83.5059C130.151 84.1237 131.874 85.1292 133.335 86.457C135.516 84.2231 138.377 82.7762 141.469 82.3434C144.562 81.9106 147.71 82.5163 150.421 84.0655C152.865 85.4729 154.829 87.5825 156.058 90.1205C157.288 92.6585 157.726 95.5075 157.316 98.2976C156.905 101.088 155.666 103.69 153.757 105.766C151.849 107.843 149.361 109.298 146.615 109.942C147.255 112.046 147.392 114.271 147.017 116.438C146.641 118.606 145.762 120.654 144.451 122.42C143.14 124.186 141.433 125.62 139.468 126.607C137.502 127.594 135.332 128.107 133.133 128.103H133.146ZM123.808 87.871C123.011 87.8719 122.218 87.977 121.449 88.1838C119.391 88.74 117.597 90.0106 116.39 91.7682C115.182 93.5258 114.64 95.6557 114.859 97.7767C115.079 99.8977 116.046 101.871 117.588 103.345C119.129 104.818 121.145 105.694 123.274 105.817C123.706 105.84 124.125 105.973 124.492 106.204C124.858 106.435 125.159 106.756 125.367 107.136C125.574 107.516 125.68 107.943 125.675 108.376C125.67 108.809 125.555 109.234 125.339 109.61C124.552 110.996 124.148 112.566 124.168 114.16C124.188 115.754 124.632 117.313 125.455 118.679C126.277 120.044 127.448 121.166 128.848 121.929C130.247 122.692 131.824 123.069 133.417 123.021C135.011 122.973 136.562 122.502 137.913 121.656C139.264 120.81 140.365 119.619 141.104 118.207C141.843 116.794 142.192 115.21 142.116 113.618C142.04 112.026 141.542 110.483 140.672 109.147C140.421 108.755 140.283 108.302 140.272 107.837C140.261 107.372 140.377 106.913 140.609 106.509C140.841 106.106 141.179 105.774 141.587 105.55C141.994 105.326 142.456 105.217 142.92 105.237C144.513 105.315 146.097 104.968 147.511 104.231C148.925 103.494 150.117 102.393 150.965 101.043C151.812 99.6929 152.285 98.1413 152.335 96.5477C152.385 94.9541 152.009 93.3761 151.247 91.9757C150.485 90.5753 149.363 89.4031 147.998 88.5796C146.633 87.756 145.073 87.3108 143.479 87.2896C141.885 87.2684 140.314 87.6721 138.927 88.4591C137.541 89.2462 136.389 90.3882 135.59 91.7678C135.373 92.1413 135.064 92.4533 134.693 92.6744C134.322 92.8955 133.901 93.0184 133.469 93.0314C133.037 93.0445 132.609 92.9472 132.225 92.749C131.842 92.5507 131.515 92.2579 131.276 91.8982C130.459 90.6634 129.35 89.6496 128.047 88.947C126.745 88.2444 125.288 87.8748 123.808 87.871Z" fill="#3E064F"/>
<path d="M160.954 74.3698C161.917 72.6576 162.426 70.7276 162.433 68.7631C162.44 66.7987 161.945 64.865 160.994 63.1459C160.044 61.4268 158.669 59.9794 157.002 58.9411C155.334 57.9028 153.429 57.3082 151.466 57.2138C149.504 57.1193 147.55 57.5282 145.791 58.4015C144.031 59.2748 142.524 60.5836 141.413 62.2034C140.301 63.8233 139.622 65.7004 139.441 67.6565C139.259 69.6125 139.581 71.5825 140.375 73.3793C138.334 73.2931 136.306 73.7516 134.501 74.7077C132.695 75.6638 131.177 77.0831 130.101 78.8199C129.025 80.5567 128.431 82.5485 128.379 84.5909C128.327 86.6333 128.819 88.6528 129.806 90.442C130.792 92.2312 132.236 93.7258 133.991 94.7724C135.746 95.819 137.747 96.3798 139.79 96.3974C141.833 96.4151 143.844 95.8888 145.616 94.8726C147.389 93.8565 148.859 92.387 149.876 90.6151C150.719 92.4779 152.042 94.0827 153.71 95.2646C155.379 96.4465 157.332 97.163 159.368 97.3403C161.405 97.5176 163.452 97.1493 165.3 96.2734C167.147 95.3975 168.728 94.0455 169.88 92.3563C171.032 90.6671 171.713 88.7017 171.854 86.6621C171.995 84.6224 171.59 82.582 170.681 80.7506C169.772 78.9192 168.392 77.3628 166.682 76.2414C164.973 75.12 162.996 74.474 160.954 74.3698Z" fill="#00B76A"/>
<path d="M160.361 99.9337H159.67C157.75 99.8425 155.87 99.3583 154.145 98.5109C152.42 97.6635 150.887 96.471 149.641 95.0073C148.072 96.5241 146.171 97.6547 144.089 98.3097C142.007 98.9647 139.801 99.1261 137.646 98.7811C135.491 98.4362 133.446 97.5943 131.673 96.3222C129.899 95.0501 128.446 93.3826 127.429 91.4518C126.411 89.5209 125.857 87.3798 125.81 85.1977C125.763 83.0157 126.225 80.8527 127.158 78.8799C128.092 76.9072 129.472 75.1788 131.189 73.8317C132.906 72.4845 134.914 71.5555 137.052 71.1183C136.876 70.1097 136.815 69.0845 136.869 68.0621C136.964 66.088 137.474 64.156 138.366 62.3921C139.257 60.6282 140.511 59.0721 142.044 57.8253C143.578 56.5784 145.357 55.6688 147.265 55.1558C149.174 54.6428 151.17 54.5379 153.122 54.8479C155.073 55.158 156.938 55.876 158.594 56.9552C160.25 58.0344 161.659 59.4505 162.731 61.1111C163.803 62.7718 164.512 64.6397 164.814 66.5931C165.115 68.5464 165.001 70.5413 164.479 72.4477C167.702 73.4315 170.464 75.5404 172.262 78.39C174.06 81.2396 174.775 84.6404 174.276 87.9728C173.777 91.3051 172.097 94.3473 169.543 96.5452C166.989 98.743 163.73 99.9501 160.361 99.9467V99.9337ZM149.876 88.0739H150C150.466 88.0959 150.917 88.2463 151.304 88.5084C151.69 88.7706 151.997 89.1344 152.189 89.5596C152.845 91.0128 153.876 92.2651 155.176 93.1879C156.476 94.1107 157.998 94.6708 159.587 94.8106C161.175 94.9504 162.771 94.6648 164.213 93.9833C165.654 93.3017 166.888 92.2488 167.787 90.9325C168.687 89.6163 169.22 88.0844 169.331 86.494C169.443 84.9036 169.129 83.3122 168.422 81.8833C167.715 80.4544 166.64 79.2395 165.308 78.3634C163.976 77.4873 162.435 76.9816 160.843 76.8983C160.411 76.8776 159.991 76.7466 159.624 76.5177C159.257 76.2889 158.954 75.9698 158.745 75.5909C158.536 75.212 158.427 74.7859 158.43 74.3532C158.432 73.9205 158.545 73.4955 158.758 73.1188C159.503 71.7849 159.895 70.2828 159.897 68.7549C159.899 67.227 159.511 65.7238 158.77 64.3879C158.028 63.052 156.958 61.9276 155.66 61.1212C154.362 60.3149 152.88 59.8532 151.354 59.7801C149.827 59.707 148.308 60.0248 146.939 60.7034C145.57 61.382 144.397 62.399 143.531 63.6579C142.665 64.9168 142.135 66.3759 141.991 67.897C141.847 69.4182 142.094 70.9509 142.708 72.3499C142.884 72.7453 142.957 73.1793 142.918 73.6105C142.879 74.0417 142.73 74.4557 142.486 74.8132C142.241 75.1706 141.909 75.4594 141.522 75.6522C141.134 75.8449 140.703 75.9352 140.271 75.9144C138.678 75.8444 137.096 76.1996 135.686 76.9436C134.276 77.6876 133.09 78.7935 132.249 80.1477C131.408 81.5019 130.942 83.0556 130.9 84.6492C130.858 86.2428 131.241 87.8188 132.01 89.2153C132.779 90.6119 133.905 91.7786 135.274 92.5957C136.643 93.4127 138.205 93.8507 139.799 93.8645C141.393 93.8783 142.962 93.4675 144.345 92.6743C145.727 91.8811 146.874 90.7341 147.667 89.3511C147.89 88.9624 148.212 88.6395 148.6 88.4152C148.988 88.1909 149.428 88.0731 149.876 88.0739Z" fill="#3E064F"/>
<path d="M150.913 73.0338C153.525 73.0338 155.643 70.9157 155.643 68.3029C155.643 65.6901 153.525 63.572 150.913 63.572C148.3 63.572 146.182 65.6901 146.182 68.3029C146.182 70.9157 148.3 73.0338 150.913 73.0338Z" fill="#12C96A"/>
<path d="M136.123 88.5241C135.607 88.5235 135.104 88.3609 134.685 88.0592C134.267 87.7576 133.954 87.3321 133.79 86.8429C133.275 85.3471 133.342 83.7127 133.977 82.2641C134.612 80.8154 135.769 79.6586 137.217 79.0232C137.809 78.7678 138.478 78.7548 139.08 78.987C139.681 79.2192 140.168 79.678 140.435 80.265C140.702 80.852 140.728 81.5202 140.508 82.1263C140.288 82.7324 139.839 83.2279 139.257 83.5065C139.08 83.5617 138.916 83.6541 138.778 83.7775C138.639 83.901 138.529 84.0526 138.453 84.2223C138.378 84.3919 138.34 84.5757 138.341 84.7613C138.343 84.9469 138.384 85.1301 138.462 85.2985C138.668 85.9181 138.62 86.5942 138.328 87.1783C138.036 87.7624 137.524 88.2066 136.905 88.4133C136.651 88.4912 136.387 88.5286 136.123 88.5241Z" fill="#12C96A"/>
<path d="M3.51758 106.489C17.8536 145.887 53.3483 177.25 124.683 151.282C196.018 125.314 203.049 78.4812 188.713 39.0833C196.142 59.4534 160.686 91.0774 109.545 109.695C58.405 128.312 10.9397 126.872 3.51758 106.489Z" fill="#E6E6E6"/>
<path d="M20.4473 120.805C29.9156 146.805 63.3771 167.019 122.572 145.469C181.767 123.92 194.402 86.9264 184.94 60.926L148.8 92.5435L105.362 111.988L64.1265 121.939L20.4473 120.805Z" fill="#C8C8C8"/>
<path d="M169.313 76.3964C171.592 90.1762 168.643 104.31 161.044 116.029C160.783 116.418 160.679 116.893 160.754 117.355C160.829 117.818 161.077 118.235 161.448 118.523C161.819 118.81 162.284 118.945 162.751 118.902C163.218 118.859 163.651 118.64 163.963 118.29C178.951 101.869 182.392 83.9619 179.329 67.28L169.313 76.3964Z" fill="white"/>
<path d="M22.2841 120.134C22.0406 120.221 21.8174 120.357 21.6281 120.533C21.4388 120.709 21.2874 120.922 21.1831 121.159C21.0788 121.396 21.0238 121.651 21.0216 121.91C21.0193 122.168 21.0697 122.424 21.1698 122.663C26.7152 136.158 38.9465 147.823 58.0329 152.443C58.4784 152.55 58.9475 152.493 59.3546 152.282C59.7617 152.072 60.0795 151.723 60.2502 151.297C60.4209 150.872 60.4331 150.4 60.2844 149.966C60.1357 149.533 59.8362 149.168 59.4405 148.937C48.7406 142.701 40.543 133.122 34.9519 122.428L22.2841 120.134Z" fill="#B4B4B4"/>
<path d="M76.9593 163.331C63.9265 163.331 52.0993 160.783 41.608 155.681C23.4142 146.838 9.41707 130.137 1.13477 107.382L5.91127 105.642C12.7469 124.331 59.7951 125.093 108.674 107.304C133.111 98.4088 154.674 86.2818 169.394 73.1578C183.306 60.7767 189.477 48.6432 186.337 39.9569L191.113 38.217C199.395 60.9787 199.408 82.7695 191.159 101.237C181.052 123.855 158.981 141.489 125.565 153.655C107.866 160.112 91.6276 163.331 76.9593 163.331ZM11.8281 118.974C19.6934 133.695 30.6213 144.675 43.8366 151.113C64.8258 161.318 91.7319 160.568 123.812 148.898C190.631 124.572 196.476 83.3038 190.357 54.0323C187.549 61.272 181.619 69.059 172.763 76.9504C157.573 90.4979 135.424 102.97 110.401 112.08C68.8529 127.224 30.491 129.27 11.8281 118.974Z" fill="#3E064F"/>
</svg>
