<svg width="167" height="130" viewBox="0 0 167 130" fill="none" xmlns="http://www.w3.org/2000/svg">
<path d="M78.4435 6.25975C71.8811 12.7983 65.2551 19.4001 58.591 26.04C65.395 32.8193 78.1891 45.5669 82.0681 49.4191C82.704 50.0526 82.6913 51.0664 82.0681 51.6873L72.3771 61.2796C72.3771 61.2796 79.2447 68.1096 82.1317 70.986C88.6432 64.4982 95.4981 57.6682 102.493 50.6862C94.4171 42.6651 85.9979 34.3146 77.7059 26.0907C80.9489 22.8722 84.0902 19.7296 87.1679 16.6631C90.7289 13.1151 96.5028 13.1151 100.064 16.6631C120.107 36.6461 140.239 56.7179 160.117 76.5362C160.791 77.2078 160.791 78.2849 160.117 78.9565C158.082 80.9839 156.009 83.0367 153.911 85.1275C149.434 89.5752 142.122 89.5752 137.67 85.0895C135.14 82.5425 132.558 79.9575 129.963 77.3345C124.558 71.8984 115.745 71.8857 110.314 77.2965C102.531 85.0768 94.8113 92.7811 87.0153 100.561C86.3285 101.258 85.1967 101.258 84.4972 100.561C74.9843 91.0704 65.5604 81.6808 56.2128 72.3546C43.9909 60.1645 24.1639 60.1772 11.942 72.3546C7.93592 76.3461 3.95524 80.3123 0 84.2532C23.1719 107.341 46.4582 130.542 69.6682 153.668C79.4864 163.438 95.3836 163.45 105.202 153.668C114.499 144.405 123.846 135.091 133.156 125.803L123.973 116.819L99.7331 141.022C93.3233 147.421 82.8184 147.421 76.4087 141.022C57.2047 121.875 38.2425 102.969 19.3056 84.0884L19.4583 83.9364C27.356 76.1687 40.0738 76.2067 47.9207 84.0251C59.7229 95.7969 71.5886 107.645 83.5306 119.543C84.459 120.468 85.9725 120.468 86.9009 119.543C97.5965 108.823 107.949 98.4326 118.352 88.0039C119.039 87.307 120.171 87.307 120.87 88.0039L125.97 93.0852C137.073 104.173 155.107 104.16 166.196 93.0726C171.169 88.1053 176.104 83.1634 181 78.2849C156.938 54.3103 132.761 30.2217 108.686 6.2344C104.515 2.07813 99.0464 0 93.5777 0C88.109 0 82.6404 2.07813 78.4689 6.2344" fill="url(#paint0_linear_260_2402)"/>
<defs>
<linearGradient id="paint0_linear_260_2402" x1="0" y1="80.5277" x2="180.987" y2="80.5277" gradientUnits="userSpaceOnUse">
<stop stop-color="#FE651E"/>
<stop offset="0.5" stop-color="#FFBE00"/>
<stop offset="1" stop-color="#02C2E4"/>
</linearGradient>
</defs>
</svg>
