<svg width="190" height="140" viewBox="0 0 190 140" fill="none" xmlns="http://www.w3.org/2000/svg">
<path d="M193.374 -6.71076L143.901 75.0862L106.579 46.3381L185.396 -6.89416L185.579 -7.07757C188.193 -8.45308 191.173 -8.26967 193.374 -6.66491V-6.71076Z" fill="white"/>
<path d="M43.9471 0.0749969L62.1039 69.4924L3.41544 150.693C2.81938 150.281 2.22333 149.501 1.81068 148.905C0.801969 147.3 0.435166 145.1 1.03122 143.311L39.5455 4.84343V4.66003C40.3249 2.45921 41.9297 0.854452 43.9471 0.0749969Z" fill="white"/>
<path d="M48.303 -0.154333C49.3118 0.0290682 50.0912 0.441722 50.9165 1.03778L144.084 74.9026L62.104 69.5381L43.9473 0.120769C45.3228 -0.475286 46.7441 -0.475285 48.3489 -0.0626326L48.303 -0.154333Z" fill="white"/>
<path d="M62.1035 69.4926L99.4257 96.2233L11.6223 150.923C9.00883 152.528 5.6159 152.298 3.46094 150.51L62.1035 69.4926Z" fill="white"/>
<path d="M193.374 -6.71074C193.97 -6.29809 194.566 -5.51863 195.162 -4.92258C196.17 -3.31781 196.537 -1.52965 196.354 0.258511L173.612 133.133L172.603 138.497C172.191 140.881 170.586 142.899 168.431 143.862L143.901 74.8111L193.374 -6.71074Z" fill="white"/>
<path d="M62.1035 69.4926L144.084 74.8571L168.614 143.908C167.422 144.504 166 144.687 164.441 144.504C163.433 144.32 162.241 143.908 161.461 143.312L62.1035 69.4926Z" fill="white"/>
<path d="M193.374 -6.71076L143.901 75.0862L106.579 46.3381L185.396 -6.89416L185.579 -7.07757C188.193 -8.45308 191.173 -8.26967 193.374 -6.66491V-6.71076Z" fill="#008CFF"/>
<path d="M43.9471 0.0749969L62.1039 69.4924L3.41544 150.693C2.81938 150.281 2.22333 149.501 1.81068 148.905C0.801969 147.3 0.435166 145.1 1.03122 143.311L39.5455 4.84343V4.66003C40.3249 2.45921 41.9297 0.854452 43.9471 0.0749969Z" fill="#0031D3"/>
<path d="M48.303 -0.154333C49.3118 0.0290682 50.0912 0.441722 50.9165 1.03778L144.084 74.9026L62.104 69.5381L43.9473 0.120769C45.3228 -0.475286 46.7441 -0.475285 48.3489 -0.0626326L48.303 -0.154333Z" fill="#0051FB"/>
<path d="M62.1035 69.4926L99.4257 96.2233L11.6223 150.923C9.00883 152.528 5.6159 152.298 3.46094 150.51L62.1035 69.4926Z" fill="#001284"/>
<path d="M193.374 -6.71074C193.97 -6.29809 194.566 -5.51863 195.162 -4.92258C196.17 -3.31781 196.537 -1.52965 196.354 0.258511L173.612 133.133L172.603 138.497C172.191 140.881 170.586 142.899 168.431 143.862L143.901 74.8111L193.374 -6.71074Z" fill="#007CFF"/>
<path d="M62.1035 69.4926L144.084 74.8571L168.614 143.908C167.422 144.504 166 144.687 164.441 144.504C163.433 144.32 162.241 143.908 161.461 143.312L62.1035 69.4926Z" fill="#0064FF"/>
</svg>
