<svg width="164" height="140" viewBox="0 0 164 140" fill="none" xmlns="http://www.w3.org/2000/svg">
<path d="M93.101 169C144.513 169 186.192 127.363 186.192 76C186.192 24.6375 144.513 -17 93.101 -17C41.688 -17 0.00976562 24.6375 0.00976562 76C0.00976562 127.363 41.688 169 93.101 169Z" fill="#CCB175"/>
<path d="M151.438 91.2985L159.697 87.1728C161.073 86.4852 161.418 84.5944 160.385 83.3912L150.061 58.1213C148.512 54.3391 147.652 50.5575 147.308 46.4318C144.555 11.7071 115.302 -15.4537 79.6834 -14.938C43.8926 -14.4223 14.6404 14.6295 13.9521 50.5575C13.4359 82.3595 35.1169 109.177 64.541 116.396L61.0995 118.288L38.5584 168.827H99.9883L115.131 135.65C116.851 131.868 120.809 129.633 124.938 129.805L138.876 131.008C143.522 131.352 147.308 127.742 147.136 123.101L146.964 118.631C146.964 115.537 147.824 112.615 149.545 110.036V109.177C149.545 107.458 148.168 105.911 146.448 105.566C140.425 104.535 136.984 101.613 136.984 101.613C141.113 101.613 146.103 101.097 149.373 100.582C151.266 100.41 152.642 98.5188 152.298 96.6274L151.438 91.2985Z" fill="white"/>
<path d="M81.9194 118.288L108.418 62.9352C128.035 59.8413 140.252 21.8504 139.048 19.6156C135.778 13.4271 132.853 10.1609 129.755 6.72285C117.194 -7.54516 99.6428 -15.2809 79.8545 -14.937C43.5475 -14.5932 13.9511 15.318 13.9511 51.7619C13.9511 69.8114 21.1781 86.3143 32.879 98.1759C14.1232 99.5511 -0.502962 115.194 0.0132537 134.276C0.52947 153.013 15.6718 168.312 34.4276 168.828C48.8817 169.172 61.4429 161.093 67.2931 149.059C67.2931 148.888 67.4653 148.716 67.4653 148.543L81.9194 118.288Z" fill="#3838F1"/>
<path d="M100.849 2.08081C96.7188 18.4117 88.1149 33.7112 76.5861 46.0883L99.6442 34.5706C89.3198 57.4338 72.6286 75.3119 52.3241 82.016L72.4564 81.3284C56.6259 97.3157 35.4611 101.613 15.8449 94.7372C15.8449 94.7372 15.6728 94.7372 15.6728 94.5652C8.10165 91.8147 6.72507 80.4693 13.0917 75.1398L100.849 2.08081Z" fill="white"/>
<path d="M137.669 68.6083C139.95 68.6083 141.799 65.5294 141.799 61.7321C141.799 57.9343 139.95 54.856 137.669 54.856C135.388 54.856 133.539 57.9343 133.539 61.7321C133.539 65.5294 135.388 68.6083 137.669 68.6083Z" fill="#3838F1"/>
</svg>
