<svg width="171" height="140" viewBox="0 0 171 140" fill="none" xmlns="http://www.w3.org/2000/svg">
<path d="M143.959 155H85.5703C83.9681 155 82.4636 154.143 81.6504 152.769C80.8371 151.395 80.821 149.674 81.6017 148.284L91.5799 130.551H64.1256C62.7676 130.551 61.507 129.824 60.8401 128.652C60.8322 128.628 60.8157 128.612 60.8075 128.588C60.5718 128.353 60.3684 128.086 60.1978 127.795L49.4632 109.877L39.0702 127.707C38.2978 129.04 36.8583 129.865 35.3133 129.865H35.2887C33.7355 129.856 32.2882 129.008 31.5318 127.666L0.556242 73.0308C-0.200053 71.6972 -0.183799 70.0405 0.596892 68.723L31.5726 16.2536C32.345 14.9444 33.7681 14.1281 35.2969 14.1199H35.3213C36.834 14.1199 38.257 14.9203 39.0459 16.2052L49.0323 32.6604L60.206 13.9989C60.3279 13.7966 60.466 13.6028 60.6205 13.4169L61.8486 11.2589L64.0197 11.2347H92.2061L79.9019 -11.3468L82.0327 -14.9677L84.1634 -15H146.537L147.643 -13.1411L178.44 40.201C179.188 41.5023 179.188 43.1108 178.432 44.4119C177.675 45.7132 176.268 46.5134 174.764 46.5134H152.905L165.762 67.9796C166.282 68.8443 166.469 69.8385 166.331 70.8083C166.51 71.8023 166.339 72.8367 165.819 73.7341L153.271 95.2648H174.227C175.854 95.2648 177.366 96.1378 178.171 97.544C178.977 98.9504 178.96 100.688 178.131 102.078L147.863 152.785C147.05 154.151 145.553 155 143.959 155ZM90.3113 147.726H142.382L169.356 102.539H149.034L133.827 128.62C133.127 129.808 131.826 130.551 130.436 130.551H99.9723L90.3113 147.726ZM67.1997 128.579L67.1833 128.604C67.1915 128.596 67.1915 128.587 67.1997 128.579ZM104.071 123.27H128.484L140.568 102.531H115.733L104.071 123.27ZM70.3712 123.27H95.6786L110.146 97.5683C110.951 96.1457 112.463 95.2566 114.106 95.2566H144.805L156.89 74.518H99.5575L70.3712 123.27ZM53.6757 102.66L63.9385 119.802L93.2307 70.8891L63.9385 21.9758L53.3178 39.7162L70.8915 68.6664C71.713 70.0162 71.7291 71.6972 70.9323 73.0631L53.6757 102.66ZM7.76136 70.9293L35.3459 119.584L45.1775 102.717L27.4413 73.1036C26.628 71.7377 26.628 70.0485 27.4413 68.6825L44.7708 39.7406L35.3538 24.2065L7.76136 70.9293ZM34.6464 70.8891L49.3899 95.4991L63.719 70.9214L49.073 46.7961L34.6464 70.8891ZM99.5657 67.252H156.808L144.39 46.5134H111.471L110.373 44.5978L96.1664 18.5005H70.3712L99.5657 67.252ZM148.554 39.2393H169.454L142.341 -7.72607H90.2055L100.525 11.2347H129.118C130.761 11.2347 132.298 12.1075 133.135 13.5059L148.554 39.2393ZM115.773 39.2393H140.04L127.622 18.5005H104.494L115.773 39.2393ZM67.1264 13.0774L67.1346 13.0855L67.1264 13.0774Z" fill="white"/>
</svg>
