<svg width="30" height="22" viewBox="0 0 30 22" fill="none" xmlns="http://www.w3.org/2000/svg">
<path d="M26.329 3.35956C22.6826 0.630875 19.189 0.707565 19.189 0.707565L18.8319 1.11551C23.1669 2.41605 25.1816 4.32852 25.1816 4.32852C18.9792 0.913767 11.0793 0.938269 4.62813 4.32852C4.62813 4.32852 6.71911 2.31391 11.3093 1.01337L11.0545 0.707246C11.0545 0.707246 7.58624 0.630875 3.91437 3.35924C3.91437 3.35924 0.242188 9.96377 0.242188 18.0986C0.242188 18.0986 2.3844 21.7708 8.01997 21.9493C8.01997 21.9493 8.96347 20.8273 9.72846 19.8583C6.49 18.8893 5.26583 16.8747 5.26583 16.8747C7.30049 18.1479 9.35774 18.9447 11.9216 19.4504C16.0927 20.3089 21.2812 19.4262 25.1564 16.8747C25.1564 16.8747 23.8813 18.9403 20.5407 19.8838C21.3057 20.8273 22.2238 21.9238 22.2238 21.9238C27.8593 21.7453 30.0012 18.0731 30.0012 18.0989C30.0009 9.96408 26.329 3.35956 26.329 3.35956ZM10.3658 15.7273C8.9377 15.7273 7.76476 14.4776 7.76476 12.9222C7.86914 9.19687 12.8886 9.20833 12.9669 12.9222C12.9669 14.4776 11.8191 15.7273 10.3658 15.7273ZM19.6733 15.7273C18.2451 15.7273 17.0722 14.4776 17.0722 12.9222C17.1868 9.20419 22.1436 9.2026 22.2744 12.9222C22.2744 14.4776 21.1269 15.7273 19.6733 15.7273Z" fill="#00D2FF"/>
</svg>
