<svg width="26" height="19" viewBox="0 0 26 19" fill="none" xmlns="http://www.w3.org/2000/svg">
<path d="M25.8598 4.36054C25.8598 4.14184 25.5317 2.39222 24.7663 1.62676C23.7821 0.533253 22.6886 0.423902 22.1418 0.423902H22.0325C18.6426 0.2052 13.6125 0.2052 13.5031 0.2052C13.5031 0.2052 8.3636 0.2052 4.97372 0.423902H4.86437C4.31762 0.423902 3.22411 0.533253 2.23995 1.62676C1.47449 2.50157 1.14644 4.25119 1.14644 4.46989C1.14644 4.57924 0.927734 6.54756 0.927734 8.62523V10.4842C0.927734 12.5619 1.14644 14.5302 1.14644 14.6395C1.14644 14.8582 1.47449 16.6079 2.23995 17.3733C3.11475 18.3575 4.20826 18.4668 4.86437 18.5762C4.97372 18.5762 5.08307 18.5762 5.19242 18.5762C7.16074 18.7949 13.175 18.7949 13.3937 18.7949C13.3937 18.7949 18.5332 18.7949 21.9231 18.5762H22.0325C22.5792 18.4668 23.6727 18.3575 24.6569 17.3733C25.4224 16.4985 25.7504 14.7489 25.7504 14.5302C25.7504 14.4208 25.9691 12.4525 25.9691 10.3748V8.51588C26.0785 6.54756 25.8598 4.46989 25.8598 4.36054ZM17.7678 9.71874L11.2067 13.218C11.0974 13.218 11.0974 13.3273 10.988 13.3273C10.8787 13.3273 10.7693 13.3273 10.7693 13.218C10.66 13.1086 10.5506 12.9993 10.5506 12.7806V5.67275C10.5506 5.45405 10.66 5.3447 10.7693 5.23535C10.8787 5.126 11.0974 5.126 11.3161 5.23535L17.8771 8.73458C18.0958 8.84393 18.2052 8.95328 18.2052 9.17198C18.2052 9.39069 17.9865 9.60939 17.7678 9.71874Z" fill="#00D2FF"/>
</svg>
