<svg width="36" height="36" viewBox="0 0 36 36" fill="none" xmlns="http://www.w3.org/2000/svg">
<rect width="36" height="36" rx="18" fill="url(#paint0_linear_281_53)"/>
<rect x="34" y="34" width="32" height="32" rx="16" transform="rotate(-180 34 34)" fill="url(#paint1_linear_281_53)"/>
<path d="M20.795 13.1468C20.8094 13.1034 20.837 13.0658 20.874 13.039C20.911 13.0123 20.9554 12.998 21.0011 12.998C21.0467 12.998 21.0911 13.0123 21.1281 13.039C21.1651 13.0658 21.1927 13.1034 21.2071 13.1468L21.5941 14.3088C21.7671 14.8269 22.1732 15.2329 22.6912 15.4059L23.8533 15.793C23.8966 15.8073 23.9343 15.8349 23.961 15.8719C23.9877 15.9089 24.0021 15.9534 24.0021 15.999C24.0021 16.0446 23.9877 16.0891 23.961 16.126C23.9343 16.163 23.8966 16.1907 23.8533 16.205L22.6912 16.592C22.4357 16.6771 22.2035 16.8206 22.0131 17.011C21.8227 17.2015 21.6792 17.4336 21.5941 17.6891L21.2071 18.8512C21.1927 18.8945 21.1651 18.9322 21.1281 18.9589C21.0911 18.9856 21.0467 19 21.0011 19C20.9554 19 20.911 18.9856 20.874 18.9589C20.837 18.9322 20.8094 18.8945 20.795 18.8512L20.408 17.6891C20.3229 17.4336 20.1794 17.2015 19.989 17.011C19.7986 16.8206 19.5664 16.6771 19.3109 16.592L18.1488 16.205C18.1055 16.1907 18.0678 16.163 18.0411 16.126C18.0144 16.0891 18 16.0446 18 15.999C18 15.9534 18.0144 15.9089 18.0411 15.8719C18.0678 15.8349 18.1055 15.8073 18.1488 15.793L19.3109 15.4059C19.5664 15.3208 19.7986 15.1773 19.989 14.9869C20.1794 14.7965 20.3229 14.5643 20.408 14.3088L20.795 13.1468ZM23.8643 10.0975C23.8742 10.069 23.8927 10.0443 23.9172 10.0269C23.9418 10.0094 23.9712 10 24.0013 10C24.0315 10 24.0608 10.0094 24.0854 10.0269C24.11 10.0443 24.1285 10.069 24.1383 10.0975L24.3964 10.8716C24.5114 11.2176 24.7824 11.4886 25.1284 11.6036L25.9025 11.8616C25.931 11.8715 25.9557 11.89 25.9731 11.9146C25.9906 11.9391 26 11.9685 26 11.9987C26 12.0288 25.9906 12.0582 25.9731 12.0827C25.9557 12.1073 25.931 12.1258 25.9025 12.1357L25.1284 12.3937C24.9579 12.4504 24.8029 12.5461 24.6759 12.6732C24.5488 12.8003 24.4531 12.9552 24.3964 13.1257L24.1383 13.8998C24.1285 13.9283 24.11 13.953 24.0854 13.9705C24.0608 13.9879 24.0315 13.9973 24.0013 13.9973C23.9712 13.9973 23.9418 13.9879 23.9172 13.9705C23.8927 13.953 23.8742 13.9283 23.8643 13.8998L23.6063 13.1257C23.5496 12.9552 23.4539 12.8003 23.3268 12.6732C23.1997 12.5461 23.0447 12.4504 22.8742 12.3937L22.1002 12.1357C22.0717 12.1258 22.047 12.1073 22.0295 12.0827C22.012 12.0582 22.0026 12.0288 22.0026 11.9987C22.0026 11.9685 22.012 11.9391 22.0295 11.9146C22.047 11.89 22.0717 11.8715 22.1002 11.8616L22.8742 11.6036C23.2203 11.4886 23.4913 11.2176 23.6063 10.8716L23.8643 10.0985V10.0975Z" fill="#00D2FF"/>
<path d="M22.2674 21.8002C18.401 21.8002 15.2666 18.6658 15.2666 14.7994H13.2666C13.2666 19.7704 17.2964 23.8002 22.2674 23.8002V21.8002ZM15.2666 14.7994C15.2666 14.2393 15.3322 13.6959 15.4556 13.1758L13.5097 12.714C13.3506 13.3843 13.2666 14.0827 13.2666 14.7994H15.2666ZM11 17.9995C11 15.7449 12.0646 13.7395 13.7227 12.4575L12.4993 10.8753C10.3725 12.5198 9 15.0996 9 17.9995H11ZM18.0008 25.0003C14.1344 25.0003 11 21.8659 11 17.9995H9C9 22.9705 13.0298 27.0003 18.0008 27.0003V25.0003ZM22.3994 23.4462C21.1971 24.4186 19.6682 25.0003 18.0008 25.0003V27.0003C20.1424 27.0003 22.1117 26.251 23.6571 25.0013L22.3994 23.4462ZM15.4556 13.1758C15.6465 12.3717 15.382 11.5549 14.8656 11.0382C14.6002 10.7727 14.2326 10.5526 13.7869 10.5004C13.3236 10.4463 12.8737 10.5858 12.4993 10.8753L13.7227 12.4575C13.7272 12.454 13.7121 12.4665 13.6764 12.477C13.6399 12.4878 13.5972 12.4919 13.5545 12.4869C13.47 12.477 13.4395 12.4405 13.451 12.452C13.4621 12.4631 13.488 12.4975 13.5044 12.5544C13.52 12.6083 13.5216 12.6635 13.5097 12.714L15.4556 13.1758ZM22.2674 23.8002C22.2793 23.8002 22.2927 23.8034 22.3068 23.8117C22.3238 23.8218 22.326 23.8299 22.3197 23.8189C22.3135 23.808 22.2843 23.7497 22.2976 23.6522C22.3042 23.6031 22.3206 23.5556 22.3442 23.5149C22.3676 23.4747 22.3909 23.4531 22.3994 23.4462L23.6571 25.0013C23.9983 24.7253 24.2213 24.3489 24.2794 23.9212C24.3353 23.5091 24.2284 23.1267 24.0544 22.8235C23.7156 22.2331 23.0444 21.8002 22.2674 21.8002V23.8002Z" fill="#00D2FF"/>
<defs>
<linearGradient id="paint0_linear_281_53" x1="18" y1="0" x2="18" y2="36" gradientUnits="userSpaceOnUse">
<stop stop-color="white"/>
<stop offset="1" stop-color="#EBEBEB"/>
</linearGradient>
<linearGradient id="paint1_linear_281_53" x1="50" y1="34" x2="50" y2="66" gradientUnits="userSpaceOnUse">
<stop stop-color="white"/>
<stop offset="1" stop-color="#EBEBEB"/>
</linearGradient>
</defs>
</svg>
