<svg width="24" height="24" viewBox="0 0 24 24" fill="none" xmlns="http://www.w3.org/2000/svg">
<path d="M23.9935 10.5336C23.6066 10.2432 23.2041 9.974 22.7877 9.72714C22.6104 9.61652 22.446 9.48668 22.2976 9.34002C21.9865 9.03356 21.466 8.50128 21.2972 8.17263C21.1895 7.97101 21.2342 7.58389 21.3176 7.225C21.4651 6.59202 21.3548 5.92688 21.0105 5.37411L20.4676 4.50109C20.2184 4.10263 20.0177 3.67624 19.8698 3.23087C19.6836 2.65805 19.3582 2.13944 18.9223 1.72072C18.0418 0.867853 15.6059 0.448479 13.5827 0.381944C13.4571 0.344811 13.3295 0.315186 13.2004 0.293229C12.2996 0.139996 11.3378 -0.110016 10.4757 0.0532984C9.19466 0.291213 7.90144 0.688409 6.93356 1.66628C6.73022 1.8679 6.43539 1.95863 6.22595 2.14614C5.81928 2.51914 5.2479 2.51914 4.87783 2.93247C4.6623 3.1724 4.56267 3.96074 3.99536 4.26116C3.05595 4.75916 2.36867 5.30959 2.13483 5.58985C1.96199 5.80155 1.82984 6.04753 1.66107 6.26327C1.4923 6.479 0.683019 6.85805 0.441049 7.09193C0.261502 7.28921 0.131172 7.52553 0.0605387 7.78187C-0.0100946 8.03821 -0.0190585 8.30741 0.034377 8.56781C0.0486106 8.63031 0.0587843 8.68072 0.0669178 8.72104C0.160452 9.0638 0.410538 9.68278 0.353604 9.96706C0.28447 10.3038 -0.587842 12.812 1.37028 13.4793C1.54944 13.5325 1.70663 13.6413 1.81866 13.7898C1.93069 13.9383 1.99164 14.1185 1.9925 14.304C2.03477 14.6387 2.13233 14.9644 2.28125 15.2677C2.41138 15.5135 2.60328 15.7219 2.83839 15.8726C3.08913 16.109 3.32606 16.3594 3.54803 16.6226C4.23937 17.8908 4.04417 18.5259 5.37806 18.9554C5.71841 19.0667 6.0451 19.2155 6.35202 19.399C6.7261 19.6227 7.12712 19.7988 7.5456 19.9232L7.59847 19.9413C7.89127 19.2356 8.19018 18.5683 8.48705 17.9372C6.10395 15.5177 6.73022 12.7978 6.95999 12.072C6.96663 12.0505 6.9786 12.0309 6.99479 12.0152C7.01098 11.9994 7.03088 11.9879 7.0527 11.9817C7.07452 11.9754 7.09755 11.9747 7.11972 11.9796C7.14188 11.9845 7.16247 11.9947 7.17961 12.0095C7.67982 12.445 9.21296 14.0116 9.02386 16.8484C9.54847 15.806 10.0609 14.8907 10.5286 14.1084C9.96564 13.1915 9.66503 12.14 9.65894 11.0666C9.65285 9.99324 9.94151 8.93845 10.494 8.01536C10.5062 7.99577 10.5233 7.9796 10.5435 7.96838C10.5638 7.95716 10.5867 7.95128 10.6099 7.95128C10.6331 7.95128 10.656 7.95716 10.6762 7.96838C10.6965 7.9796 10.7136 7.99577 10.7258 8.01536C11.0776 8.53152 12.0292 10.2332 11.4395 12.6527C11.8665 12.0035 12.2142 11.5236 12.442 11.2232C13.052 7.19073 16.1264 5.86809 16.9336 5.58783C16.9553 5.58023 16.9786 5.57819 17.0012 5.58189C17.0239 5.58559 17.0452 5.59492 17.0633 5.609C17.0814 5.62308 17.0955 5.64147 17.1045 5.66245C17.1135 5.68342 17.117 5.7063 17.1146 5.72897C16.9863 6.957 16.533 8.12961 15.8007 9.12807C15.0683 10.1265 14.0829 10.9154 12.9442 11.4147C12.5151 11.9732 12.1024 12.5619 11.7079 13.1648C13.0703 12.1103 14.9776 11.6143 16.5636 11.9954C16.5858 12.0004 16.6064 12.0109 16.6236 12.0257C16.6408 12.0406 16.654 12.0595 16.662 12.0806C16.6701 12.1018 16.6727 12.1246 16.6697 12.147C16.6667 12.1694 16.6582 12.1908 16.6449 12.2091C16.1894 12.814 14.3757 14.8302 10.9515 14.3645C10.374 15.3302 9.84533 16.3061 9.37563 17.2416C10.8518 16.1347 13.0072 15.7113 14.6786 16.2678C14.701 16.2749 14.7211 16.2874 14.7373 16.3043C14.7535 16.3211 14.7651 16.3417 14.7712 16.3642C14.7773 16.3867 14.7775 16.4103 14.772 16.4329C14.7665 16.4555 14.7554 16.4764 14.7396 16.4936C14.2211 17.048 12.2223 18.8667 8.9344 18.1449C8.62533 18.7901 8.16579 19.8526 7.94212 20.3768C7.86485 20.5583 7.79369 20.7397 7.73879 20.9252C7.59238 21.3527 7.39716 21.887 7.16333 22.4193C7.13085 22.4954 7.11445 22.5773 7.11513 22.6599C7.1158 22.7425 7.13358 22.8242 7.1673 22.8997C7.20102 22.9753 7.24999 23.0432 7.31121 23.0993C7.37243 23.1554 7.44459 23.1984 7.52324 23.2258C10.1166 24.1448 12.9327 24.2483 15.5876 23.5221C15.6753 23.4973 15.7563 23.4532 15.8245 23.3932C15.8928 23.3332 15.9466 23.2587 15.982 23.1753L16.0918 22.9213C16.0918 22.9213 17.2386 20.2821 17.4074 19.1308C17.4556 18.7682 17.5692 18.4171 17.7429 18.0945C17.8324 17.9331 17.9619 17.7969 18.1191 17.6988C18.2763 17.6008 18.4562 17.544 18.6417 17.534C19.516 17.4876 21.3765 17.3666 22.0537 17.1529C22.9524 16.8706 22.562 15.2455 22.5152 15.0701C22.4684 14.8947 22.9483 14.4874 23.0459 14.2515C23.1435 14.0156 22.804 13.931 22.6637 13.6709C22.5234 13.4108 23.0114 13.2213 23.0703 12.9854C23.1293 12.7495 22.9117 12.4894 22.8182 12.314C22.756 12.1866 22.7135 12.0506 22.6921 11.9107C22.6921 11.9107 23.3489 11.4329 23.7088 11.1324C24.0687 10.832 23.9935 10.582 23.9935 10.5276" fill="black"/>
</svg>
