<svg width="38" height="38" viewBox="0 0 38 38" fill="none" xmlns="http://www.w3.org/2000/svg">
<path fill-rule="evenodd" clip-rule="evenodd" d="M19 3C10.1634 3 3 10.1634 3 19C3 27.8366 10.1634 35 19 35C27.8366 35 35 27.8366 35 19C35 10.1634 27.8366 3 19 3ZM1 19C1 9.05887 9.05887 1 19 1C28.9411 1 37 9.05887 37 19C37 28.9411 28.9411 37 19 37C9.05887 37 1 28.9411 1 19Z" fill="#00D2FF"/>
<path fill-rule="evenodd" clip-rule="evenodd" d="M19 3.5C15.9344 3.5 12.9376 4.40906 10.3887 6.11222C7.83971 7.81538 5.85303 10.2362 4.67988 13.0684C3.50672 15.9007 3.19977 19.0172 3.79784 22.0239C4.39591 25.0306 5.87214 27.7924 8.03985 29.9602C10.2076 32.1279 12.9694 33.6041 15.9761 34.2022C18.9828 34.8002 22.0993 34.4933 24.9316 33.3201C27.7639 32.147 30.1846 30.1603 31.8878 27.6113C33.591 25.0624 34.5 22.0656 34.5 19H37.5C37.5 22.659 36.415 26.2357 34.3822 29.278C32.3494 32.3204 29.4601 34.6916 26.0797 36.0918C22.6992 37.492 18.9795 37.8584 15.3908 37.1445C11.8022 36.4307 8.5058 34.6687 5.91853 32.0815C3.33126 29.4942 1.56931 26.1978 0.855481 22.6092C0.141654 19.0205 0.508016 15.3008 1.90824 11.9204C3.30846 8.53992 5.67965 5.65062 8.72196 3.61781C11.7643 1.58501 15.3411 0.5 19 0.5V3.5Z" fill="black"/>
<path d="M38 7C38 10.866 34.866 14 31 14C27.134 14 24 10.866 24 7C24 3.13401 27.134 0 31 0C34.866 0 38 3.13401 38 7Z" fill="black"/>
<path fill-rule="evenodd" clip-rule="evenodd" d="M31 12C33.7614 12 36 9.76142 36 7C36 4.23858 33.7614 2 31 2C28.2386 2 26 4.23858 26 7C26 9.76142 28.2386 12 31 12ZM31 14C34.866 14 38 10.866 38 7C38 3.13401 34.866 0 31 0C27.134 0 24 3.13401 24 7C24 10.866 27.134 14 31 14Z" fill="black"/>
<path fill-rule="evenodd" clip-rule="evenodd" d="M31 4.7981L34.5547 7.1679L33.4453 8.832L31 7.2018L28.5547 8.832L27.4453 7.1679L31 4.7981Z" fill="#00D2FF"/>
<path d="M27.3512 17.812C27.3512 18.3407 27.2299 18.826 26.9872 19.268C26.7446 19.7014 26.3719 20.0524 25.8692 20.321C25.3666 20.5897 24.7426 20.724 23.9972 20.724H22.6192V24H20.3962V14.874H23.9972C24.7252 14.874 25.3406 14.9997 25.8432 15.251C26.3459 15.5024 26.7229 15.849 26.9742 16.291C27.2256 16.733 27.3512 17.24 27.3512 17.812ZM23.8282 18.956C24.2529 18.956 24.5692 18.8564 24.7772 18.657C24.9852 18.4577 25.0892 18.176 25.0892 17.812C25.0892 17.448 24.9852 17.1664 24.7772 16.967C24.5692 16.7677 24.2529 16.668 23.8282 16.668H22.6192V18.956H23.8282Z" fill="black"/>
<path d="M16.6934 24L14.8344 21.205L13.1964 24H10.6744L13.5994 19.359L10.6094 14.874H13.1964L15.0294 17.63L16.6414 14.874H19.1634L16.2644 19.476L19.2804 24H16.6934Z" fill="black"/>
</svg>
